<svg width="140" height="205" viewBox="0 0 140 205" fill="none" xmlns="http://www.w3.org/2000/svg">
<path fill-rule="evenodd" clip-rule="evenodd" d="M135.336 201.101C138.644 200.941 137.313 195.153 137.076 193.027C134.457 185.264 135.073 176.793 134.043 168.656C133.401 161.059 132.577 153.486 131.883 145.896C130.521 130.487 120.741 99.1198 109.579 94.0752C108.173 87.9035 102.366 82.1424 95.0183 82.1424C90.0071 76.2082 83.9753 72.0319 76.2388 72.8751C73.0418 73.0206 69.9413 76.4128 66.8779 77.0678C65.1626 77.3045 49.9406 76.6954 46.8914 78.5071C44.7674 79.5981 42.85 81.6141 43.4746 84.1808C44.471 87.2905 41.3744 83.9257 34.9147 87.2448C21.7425 95.1589 29.6137 105.746 29.9625 106.074C21.7425 117.516 14.5579 126.798 11.2336 140.782C9.07922 151.164 9.32174 161.882 7.51663 172.318C6.87927 175.936 5.90149 179.431 4.84345 182.945C3.69675 187.544 3.13917 199.006 2.50712 199.108C1.3558 199.394 3.17252 201.759 4.39247 201.761C38.2156 207.373 72.5718 201.993 106.577 201.114C116.16 200.781 125.753 200.704 135.336 201.101Z" fill="#EDBFA7"/>
<path fill-rule="evenodd" clip-rule="evenodd" d="M66.9204 87.1425C66.9204 90.7435 79.4194 104.124 83.733 103.242C86.6087 102.653 90.9536 98.8151 96.7677 91.7275V87.1425L95.512 82.1511C102.625 82.4019 108.205 88.0424 109.579 94.0752C120.629 99.0694 130.325 129.863 131.84 145.429L131.883 145.896C132.577 153.486 133.401 161.059 134.043 168.656C135.073 176.793 134.457 185.264 137.076 193.027L137.091 193.159C137.365 195.382 138.577 200.944 135.336 201.101C125.753 200.704 116.16 200.781 106.577 201.114C72.5718 201.993 38.2156 207.373 4.39247 201.761C3.17252 201.759 1.3558 199.394 2.50712 199.108C3.13917 199.006 3.69675 187.544 4.84345 182.945L5.06112 182.218C6.03474 178.949 6.92322 175.687 7.51663 172.318C9.32174 161.882 9.07922 151.164 11.2336 140.782C14.5579 126.798 21.7425 117.516 29.9625 106.074C29.6137 105.746 21.7425 95.1589 34.9147 87.2448C41.3744 83.9257 44.471 87.2905 43.4746 84.1809C42.85 81.6142 44.7674 79.5981 46.8914 78.5071C49.9406 76.6955 65.1626 77.3045 66.8779 77.0679C67.6747 76.8975 68.474 76.5419 69.2769 76.1064L69.1376 76.5704C67.6594 81.5264 66.9204 85.0505 66.9204 87.1425Z" fill="#423E3F"/>
<path fill-rule="evenodd" clip-rule="evenodd" d="M84.0716 107.084C84.0874 106.929 84.2962 106.93 84.3123 107.084L84.5511 109.39C84.8416 112.207 85.1213 115.018 85.3241 117.848C85.5769 121.376 85.746 124.904 85.8275 128.44C86.1116 140.757 86.168 153.08 86.192 165.4C87.8575 165.285 89.5231 165.174 91.1896 165.066C92.3202 164.993 93.4509 164.923 94.5817 164.854L97.4651 164.679L98.6522 164.606C99.4544 164.557 100.366 164.355 100.927 165.066C101.151 165.35 101.264 165.72 101.054 166.058C100.572 166.837 99.83 166.81 98.9912 166.843C98.1998 166.875 97.4084 166.907 96.617 166.937C94.9211 167.003 93.2254 167.065 91.529 167.113C89.7487 167.163 87.9692 167.204 86.1896 167.234C86.1716 172.435 85.9565 177.629 85.7239 182.824L85.6187 185.162C85.334 191.485 85.0278 197.812 84.593 204.126C84.5572 204.643 83.8262 204.642 83.7908 204.126C83.3009 197.016 82.9778 189.89 82.6574 182.77C82.425 177.608 82.2898 172.444 82.2254 167.28C81.9901 167.281 81.755 167.285 81.5198 167.286C74.8404 167.315 68.1626 167.344 61.4832 167.281C61.4943 167.294 61.5053 167.307 61.5126 167.325C61.996 168.466 62.042 169.923 62.0302 171.148C62.0167 172.553 61.8275 173.941 61.5041 175.307C60.3452 180.202 57.3559 184.586 53.9513 188.211L53.8402 188.329C53.0372 189.178 52.1159 190.03 51.6228 191.112C51.1191 192.216 50.9443 193.507 50.6958 194.693L50.6667 194.83L49.695 199.32C49.3862 200.746 49.2986 202.826 48.17 203.855C47.1171 204.815 45.7222 204.314 45.2268 203.078C44.8398 202.113 45.2252 201.053 45.4544 200.089L47.2499 192.538C47.545 191.307 47.8673 190.068 48.5041 188.961C49.1563 187.829 50.1126 187.007 51.0883 186.167C52.9358 184.576 54.6319 182.754 56.0663 180.781C57.5002 178.81 58.7256 176.636 59.585 174.351C60.0152 173.207 60.3678 172.018 60.611 170.82C60.8422 169.683 60.8402 168.505 61.0875 167.381C61.1044 167.303 61.17 167.25 61.2451 167.226C61.2273 167.176 61.2545 167.108 61.3247 167.104L66.7874 166.752C71.6432 166.439 76.4988 166.118 81.3502 165.75L82.2075 165.688C82.1409 158.798 82.1974 151.906 82.3218 145.013C82.4358 138.692 82.4382 132.369 82.6261 126.048C82.7196 122.912 82.921 119.782 83.1452 116.652C83.3745 113.45 83.7417 110.276 84.0716 107.084ZM32.7799 143.736C32.7217 143.385 33.1631 143.167 33.3666 143.488C35.6927 147.156 36.8143 151.14 37.287 155.432C37.7046 159.22 37.5815 163.063 37.3736 166.861C37.1518 170.912 36.893 174.962 36.6313 179.011L36.2292 185.22L35.2203 200.785C35.1481 201.898 34.8955 202.911 33.9372 203.428C33.8159 203.53 33.6894 203.621 33.5421 203.699C33.0243 203.976 32.3377 203.836 32.0383 203.305L32.1584 203.384C32.2629 203.45 32.1455 203.358 31.8061 203.108L31.518 202.735C31.3087 202.421 31.1751 202.111 31.1213 201.737C31.0378 201.156 31.146 200.518 31.184 199.934L31.8453 189.728C32.3596 181.793 32.9601 173.86 33.4128 165.922C33.6237 162.222 33.7714 158.518 33.6714 154.812C33.5718 151.126 33.3841 147.377 32.7799 143.736ZM52.9024 75.4109L53.0314 75.3893C57.6516 74.6215 62.6755 74.7652 66.8979 76.9932C66.9329 77.0115 66.9169 77.0696 66.8777 77.0679L65.5187 77.0136C61.2162 76.845 56.927 76.7452 52.6965 77.7565L52.2634 77.8609C50.7399 78.2327 49.1489 78.6877 47.9252 79.6943C46.7556 80.6566 46.1731 82.1408 45.6131 83.5073L45.5382 83.6876C44.9701 85.0372 44.2509 86.3171 43.0055 87.1611C41.3924 88.2539 39.4525 88.12 37.6028 88.2685C34.3462 88.5303 31.6837 90.8913 30.359 93.7806C29.5568 95.5301 29.2147 97.4916 29.1469 99.4047C29.1121 100.379 29.1072 101.391 29.2369 102.358C29.2783 102.668 29.6607 103.795 29.8556 103.768C30.2888 103.708 30.6848 103.934 30.8199 104.28C31.8899 103.246 32.9907 102.242 34.127 101.273C36.9593 98.8604 40.0101 96.6735 43.2229 94.7942C45.6749 93.3598 48.2613 91.9387 50.9397 90.8643C50.7274 90.8598 50.5181 90.902 50.3156 91.0073C50.227 91.0537 50.1388 90.9424 50.2088 90.8687C51.0524 89.9808 52.0629 89.8545 53.0816 90.0913C53.2989 90.0221 53.5165 89.9551 53.7349 89.8916C53.8435 89.8599 53.8976 90.0098 53.809 90.0676L53.5587 90.2275C54.67 90.5999 55.7611 91.3319 56.6249 91.9096C59.1062 93.5685 61.2902 95.5965 63.5042 97.5866L63.9068 97.9474C65.8556 99.6881 67.854 101.38 70.0681 102.776C71.2272 103.507 72.4445 104.183 73.7215 104.686C74.8167 105.118 76.5999 105.389 77.1128 106.547C77.5687 107.101 77.3783 107.809 76.8443 108.181C75.9437 109.173 74.1422 108.532 73.0691 108.119C71.7754 107.622 70.522 107.023 69.3267 106.321C67.0061 104.958 64.8664 103.264 62.8732 101.461C60.7915 99.5787 58.8279 97.5787 56.8032 95.6369C55.926 94.7956 55.0689 93.9345 54.1903 93.0944L53.7491 92.6763C53.3007 92.2556 52.6618 91.5998 51.9787 91.203C50.6918 91.9709 49.3851 92.7071 48.1099 93.4949C46.3297 94.5944 44.602 95.7732 42.9009 96.9909C39.6262 99.335 36.5229 101.96 33.6419 104.775C28.3582 109.935 23.8567 115.829 19.9242 122.069L19.6255 122.544C17.3909 126.116 15.2776 129.803 13.7792 133.749C12.1305 138.092 11.3287 142.659 10.8931 147.269C10.4608 151.846 10.315 156.446 9.83184 161.019C9.33636 165.709 8.36013 170.295 7.24971 174.873L6.98488 175.958C5.98013 180.057 4.94309 184.157 4.4266 188.354C4.15088 190.595 3.98504 192.867 4.02252 195.127C4.06017 197.4 4.41719 199.622 4.70524 201.871C4.81563 202.733 3.9681 203.452 3.20973 203.566C2.33756 203.697 1.58827 203.141 1.31717 202.33C0.472031 199.803 0.318511 197.01 0.345039 194.358C0.371738 191.666 0.715234 188.991 1.19856 186.345C2.14912 181.141 3.61604 176.044 4.84318 170.902C5.92467 166.369 6.65052 161.829 7.04176 157.186C7.4479 152.368 7.6911 147.535 8.43201 142.752C9.16333 138.031 10.5394 133.521 12.6146 129.216C14.504 125.296 16.8594 121.606 19.3287 118.03C22.3274 113.688 25.6209 109.555 29.3023 105.79C28.9716 105.776 28.6321 105.669 28.3202 105.475C27.3662 104.879 26.9219 103.715 26.7854 102.651C26.4657 100.164 26.5428 97.5676 27.1823 95.1358C28.2138 91.2129 30.8909 87.7273 34.7708 86.3132C35.7695 85.9492 36.8311 85.8163 37.8895 85.7901C38.8938 85.7651 39.9907 85.8961 40.9598 85.5777C42.5022 85.0704 43.1634 83.2531 43.7425 81.8755L43.7692 81.8123C44.5118 80.0568 45.4031 78.5521 47.0116 77.456C48.7277 76.2863 50.8777 75.7544 52.9024 75.4109ZM96.8014 82.3534C98.1898 81.8716 99.9256 82.3089 101.283 82.7298C102.796 83.1989 104.194 84.0629 105.392 85.089C106.656 86.171 107.701 87.5072 108.439 88.9999L108.51 89.1437C109.184 90.5283 109.952 92.4291 109.612 93.9502C109.602 93.9934 109.591 94.035 109.579 94.0752C112.333 95.4318 114.877 97.1309 117.093 99.2845C119.672 101.792 121.856 104.645 123.705 107.728C131.046 119.971 132.338 134.675 133.205 148.638L133.421 152.178C133.892 159.822 134.443 167.449 135.874 174.988L135.979 175.532C137.508 183.426 139.698 191.38 139.477 199.477C139.41 201.903 135.826 201.887 135.722 199.477C135.331 190.407 133.215 181.65 131.782 172.722C129.261 157.015 130.524 140.821 126.953 125.271C125.551 119.168 123.38 113.249 120.279 107.802C118.747 105.111 116.995 102.51 114.942 100.189C113.176 98.1913 111.34 96.2688 109.276 94.5896C108.617 95.2505 107.299 94.9137 106.955 93.9502C106.718 93.2881 106.787 92.5141 106.635 91.8205C106.495 91.1769 106.3 90.5388 106.042 89.9327C105.526 88.7247 104.769 87.5647 103.895 86.5871C102.95 85.5303 101.865 84.6524 100.651 83.9274C99.428 83.1975 98.0909 82.9796 96.8014 82.4462C96.7579 82.4283 96.7538 82.37 96.8014 82.3534ZM102.196 166.3C102.198 166.236 102.273 166.206 102.319 166.249C102.806 166.697 103.1 167.34 103.458 167.891C103.871 168.527 104.305 169.149 104.76 169.756C105.672 170.97 106.686 172.116 107.709 173.238C108.66 174.281 109.674 175.28 110.726 176.222C111.865 177.243 113.142 178.154 114.178 179.284C116.338 181.643 116.687 184.88 117.143 187.92L117.193 188.249C117.471 190.053 117.72 191.861 117.944 193.673C118.053 194.554 118.162 195.436 118.251 196.319L118.278 196.599C118.358 197.464 118.379 198.341 117.883 199.096C117.351 199.905 116.143 200.188 115.425 199.413C114.191 198.082 114.422 195.716 114.262 194.003C114.129 192.587 113.978 191.172 113.81 189.759L113.724 189.053C113.526 187.446 113.365 185.807 112.997 184.228C112.673 182.837 112.056 181.788 111.043 180.78C110.023 179.766 108.962 178.818 108.02 177.725C107.021 176.566 106.12 175.323 105.308 174.026C104.614 172.917 104.057 171.709 103.547 170.504L103.463 170.303C102.97 169.126 102.157 167.595 102.196 166.3ZM120.014 115.783C120.025 115.619 120.268 115.617 120.271 115.783C120.302 117.194 120.331 118.605 120.361 120.016C120.596 131.385 120.451 142.781 121.591 154.111C122.129 159.453 123.119 164.717 124.265 169.958C124.851 172.64 125.466 175.316 126.051 177.999C126.62 180.613 127.231 183.24 127.683 185.879C128.127 188.472 128.525 191.085 128.703 193.712L128.725 194.054C128.802 195.327 129.169 197.198 128.469 198.326C127.71 199.548 126.257 199.57 125.444 198.403C124.68 197.308 124.87 195.361 124.735 194.054C124.598 192.724 124.453 191.392 124.288 190.064C123.967 187.474 123.544 184.89 123.104 182.317C122.187 176.96 120.857 171.671 119.875 166.322C118.869 160.842 118.154 155.322 118.124 149.742C118.094 144.115 118.69 138.499 118.99 132.884C119.296 127.181 119.643 121.482 120.014 115.783ZM66.3286 80.4214C66.6337 79.3936 67.7106 78.7511 68.7611 79.0397C69.7238 79.3044 70.5187 80.4733 70.1423 81.4734C69.7315 82.5647 69.0137 83.4953 68.4086 84.4871C67.8496 85.4037 67.0342 86.1253 66.4648 87.0256L67.0923 87.7023C67.4062 88.0399 67.7211 88.3755 68.0394 88.7052L69.1338 89.8393C69.9862 90.7207 70.8439 91.5973 71.7258 92.4482C74.319 94.9505 76.9533 97.3706 79.8576 99.5136C80.5187 100.001 81.185 100.486 81.8699 100.94L82.1254 101.109C82.5953 101.417 83.1195 101.72 83.6872 101.668C85.0666 101.541 86.3129 100.075 87.2608 99.1633L87.3104 99.1158C89.6595 96.8799 91.8346 94.4353 93.7362 91.8068C94.1585 91.2228 94.5673 90.6288 94.9654 90.0279C94.046 88.9535 94.2656 86.8563 94.2149 85.5533C94.1792 84.6371 94.1764 83.7208 94.1715 82.8039L94.169 82.619C94.1578 82.0256 94.131 81.4564 94.516 80.9681C94.5384 80.9399 94.5848 80.9407 94.6134 80.9556C95.1406 81.232 95.3031 81.6948 95.5281 82.2139L95.5516 82.2678C95.8254 82.8909 96.0876 83.5198 96.3529 84.1464C96.6307 84.8025 96.8854 85.4682 97.1435 86.1322C97.2636 86.4411 97.3783 86.7511 97.4904 87.0629C97.5587 87.262 97.6294 87.4601 97.7019 87.6579L97.719 87.6731C97.8149 87.7545 97.8962 87.8404 97.9662 87.9291C98.2604 88.0763 98.4942 88.3446 98.6039 88.7388C98.8426 89.5967 98.3485 90.2963 97.9078 90.9773C96.1176 93.7441 94.0768 96.3807 91.8084 98.7724C90.6816 99.9606 89.4964 101.095 88.2624 102.172L88.0466 102.359C86.9381 103.312 85.7346 104.214 84.2542 104.437C82.5218 104.698 81.1118 103.836 79.7856 102.843L79.6532 102.744C78.396 101.792 77.164 100.806 75.9704 99.7752C73.5369 97.6733 71.2217 95.4165 69.1671 92.9406C67.1684 90.5323 65.1928 87.8394 63.9609 84.9415C63.8858 84.765 64.0833 84.5803 64.238 84.7277C64.8398 85.3008 65.4188 85.905 65.9909 86.5169C66.0068 85.6161 65.8406 84.7077 65.9331 83.8012C66.0458 82.6995 66.0133 81.4823 66.3286 80.4214Z" fill="black"/>
<path fill-rule="evenodd" clip-rule="evenodd" d="M80.3172 10.0515C87.9636 10.0515 97.138 13.7677 97.918 13.842L97.939 13.8431C98.3494 13.8431 99.953 15.0679 102.75 17.5174L99.7206 23.4404L99.9657 23.6751C101.139 24.8026 102.14 25.8303 102.931 26.6404C109.385 33.2553 110.545 59.227 109.024 68.2841C107.503 77.3413 104.686 86.204 91.5694 86.204C78.4531 86.204 63.861 78.2977 61.6132 75.8355C60.1146 74.1941 58.4313 73.4077 56.5634 73.4764C56.4866 73.3793 56.4104 73.2825 56.3349 73.1859L56.0601 73.1469C53.4748 72.7715 51.6224 72.2663 50.503 71.6314C48.3163 70.3912 45.913 63.8714 45.913 62.4352C45.913 61.0133 42.3243 50.6698 42.2525 49.5752L42.2514 49.5448C42.2514 48.6298 37.5631 44.4234 37.5631 43.0876C37.5631 41.7517 36.6181 41.8328 37.5631 37.1254L37.8376 35.7425C38.8433 30.7306 40.8116 22.4315 48.3163 18.8253C56.5634 14.8625 72.5935 10.0515 80.3172 10.0515Z" fill="#EDBFA7"/>
<path fill-rule="evenodd" clip-rule="evenodd" d="M58.6048 51.0759C58.6048 51.0759 55.1604 52.7113 51.7159 55.3808C48.2715 58.0503 49.9722 58.1384 49.9722 58.1384C49.9722 58.1384 49.824 63.8593 50.8854 66.1286C51.9469 68.3979 58.2334 68.7995 58.2334 68.7995L59.2982 72.374L59.151 74.0305C58.3316 73.6612 57.4687 73.4933 56.5624 73.5266C56.4856 73.4295 56.4095 73.3326 56.3339 73.2361L56.0591 73.197C53.4738 72.8217 51.6215 72.3165 50.502 71.6815C48.3154 70.4414 45.912 63.9216 45.912 62.4853C45.912 61.6866 44.7796 58.0728 43.7743 54.8645C42.9899 52.3613 42.283 50.1051 42.2515 49.6253L42.2504 49.595C42.2504 49.1806 41.289 48.0913 40.2369 46.8993C38.9657 45.459 37.5621 43.8687 37.5621 43.1378C37.5621 42.7479 37.4816 42.4788 37.3911 42.1761C37.1715 41.4415 36.8928 40.5093 37.5621 37.1756L37.8366 35.7927C38.8423 30.7808 40.8106 22.4817 48.3154 18.8755C56.5624 14.9127 72.5925 10.1017 80.3162 10.1017C86.3394 10.1017 93.3107 12.4076 96.3803 13.4229C97.2076 13.6965 97.7514 13.8764 97.917 13.8922L97.9381 13.8933C98.3485 13.8933 99.952 15.1181 102.749 17.5675L102.038 18.9569C92.8017 19.2274 77.6126 20.0535 70.9823 22.576C61.1238 26.3269 58.6048 51.0759 58.6048 51.0759Z" fill="#7F7D80"/>
<path fill-rule="evenodd" clip-rule="evenodd" d="M47.0434 18.6391C51.1564 14.2625 74.5069 7.49295 86.3205 8.92794L86.6749 8.97394C87.6177 9.09379 88.5468 9.27528 89.4637 9.52183C92.4276 10.2158 95.4891 11.2665 97.938 13.0217C99.9826 14.4575 106.432 16.8023 104.531 20.5584C105.236 21.8972 105.499 23.5511 105.023 24.8696C104.963 25.3251 104.823 25.7446 104.644 26.1794C106.149 28.4071 107.342 30.9264 108.307 33.3226C109.993 39.353 111.043 45.6287 111.196 51.7814C111.708 63.4707 110.429 77.4335 100.274 84.9924C94.139 89.7821 84.5291 89.9431 77.6349 84.0043C77.2437 83.5401 75.4038 82.2875 76.0177 82.0678C76.2005 82.2613 76.3884 82.4496 76.5796 82.6345C76.5709 82.614 76.5692 82.5934 76.5728 82.5712L76.3929 82.4078C76.0541 82.0936 75.6152 81.6379 76.1151 81.7271C76.1371 81.7528 76.1612 81.775 76.1849 81.8007C76.2908 81.8644 76.3708 81.9196 76.433 81.9682L76.4651 81.9939L76.4552 81.9836C76.1672 81.6758 75.9946 81.3618 76.4251 81.5623L76.4821 81.5901C76.6736 81.7922 76.8681 81.9856 77.0662 82.174C77.063 82.1517 77.0662 82.1294 77.0783 82.1055L76.8936 81.9266C76.7133 81.7495 76.7408 81.7487 76.829 81.6055C76.4457 81.067 77.1612 81.3869 77.2114 81.597C77.659 81.4908 78.052 82.3332 78.3403 82.4359C90.9784 92.1764 109.319 83.5336 109.022 56.3916L109.017 55.8605C108.93 47.1817 108.202 38.2614 104.621 30.4051C104.273 29.6483 103.883 28.9121 103.455 28.1998C103.159 27.6656 102.843 27.1451 102.504 26.6383C101.552 26.5613 100.613 26.3866 99.6873 26.1161C99.3694 26.0356 99.0552 25.9466 98.7411 25.8422C94.1503 26.0932 89.6618 26.3662 85.0582 26.6251L83.6203 26.7149C79.7205 26.9662 75.6874 27.3688 72.5403 29.787C69.4525 31.9885 69.4385 36.3297 66.7952 38.7467C63.0259 41.3114 62.9984 43.624 62.2726 47.4034C62.3264 50.2524 64.2969 54.3919 60.6808 55.591C61.2909 56.463 60.4405 56.044 60.3736 55.7382C60.3667 55.7399 60.3599 55.7416 60.3548 55.7416C60.8984 56.7547 60.0993 56.1168 60.0286 55.7913C59.9859 55.7793 59.9432 55.7485 59.9005 55.7057C60.4482 56.5932 59.5628 55.9717 59.6153 55.8101C58.5569 54.1793 56.3787 53.926 54.8433 54.3582C54.8245 54.4164 54.7563 54.4215 54.7136 54.3907C48.1849 55.8091 49.8694 69.3584 56.5599 68.0486C56.8463 67.9901 56.8394 68.1279 56.8963 68.1411C56.7418 67.7343 57.1774 67.8998 57.1728 67.9853L57.1994 67.984C57.2204 67.9821 57.2118 67.9798 57.2275 67.9853C57.078 67.1533 57.919 68.3587 57.8526 68.4082C57.8783 68.3928 57.9074 68.3842 57.933 68.3808L57.9041 68.3018C57.7645 67.9291 57.7765 68.084 57.7774 67.8706C57.6726 67.6067 57.6649 67.7221 57.6895 67.5502C58.058 67.264 58.1668 68.1324 58.2898 68.1959C58.079 67.9014 58.2466 67.6608 58.4454 67.8207C59.9522 70.9982 61.8987 73.9837 64.4142 76.3355C64.6894 76.5529 64.9678 76.767 65.2562 76.969C66.3262 77.9033 67.9675 78.5041 68.9692 79.3318C68.9692 79.3455 68.9625 79.3626 68.9522 79.3797L68.9752 79.4005L68.9984 79.4225L69.3468 79.5903C69.4492 79.6776 69.5415 79.7752 69.6233 79.8831C69.7105 79.9841 69.7872 80.0954 69.8523 80.2135C69.8847 80.3574 69.813 80.4173 69.6764 80.3556C69.6164 80.3351 69.5568 80.3111 69.4971 80.2889C69.5005 80.294 69.502 80.2974 69.5056 80.3009C69.5252 80.3306 69.6579 80.6389 69.505 80.5887L69.4868 80.5816C69.403 80.5508 69.3194 80.5166 69.2375 80.4841C69.3348 80.6056 69.4235 80.7375 69.502 80.8487C69.5859 80.9361 69.6369 81.0388 69.6576 81.1552C69.654 81.2203 69.6183 81.2477 69.5534 81.2391C69.4544 81.2066 69.357 81.1723 69.2595 81.1364L69.2872 81.1894C69.3561 81.3253 69.454 81.5532 69.2802 81.4771C69.1314 81.4309 68.9881 81.3778 68.8447 81.3196C68.8325 81.3436 68.8088 81.3521 68.761 81.3299C68.305 81.1672 67.8643 80.9686 67.4425 80.734C67.0719 80.4635 66.6977 80.1981 66.3255 79.9293C65.9752 79.7187 65.6371 79.4842 65.3145 79.2205C63.1547 77.822 61.2639 76.0455 59.7639 74.0669C57.2551 76.2449 52.2393 74.1641 49.1366 72.4592C46.3922 70.9353 45.3135 68.1178 45.0346 65.0801C44.4548 60.9904 41.121 59.5906 41.3529 50.6171C41.3478 50.6188 41.3425 50.6188 41.3357 50.6188C41.2144 50.5829 41.0967 50.5349 40.9857 50.4733C40.8713 50.4185 40.7637 50.3535 40.6627 50.2747L40.5381 50.1018C40.4733 50.0658 40.4153 50.0281 40.3709 49.9905L40.3478 50.0202C40.2749 50.1084 40.3239 49.9757 40.3282 49.9494L40.1116 49.6541C39.5981 48.9512 39.0346 48.1625 38.5757 47.5318L38.5613 47.5574C38.5509 47.5768 38.5454 47.5908 38.5503 47.5969C37.4581 46.0237 36.431 44.1236 36.1456 42.284C35.8086 40.8671 35.9403 39.4069 36.2342 38.0944C37.4945 33.4981 41.6227 23.097 47.0434 18.6391ZM76.6832 82.2036L76.6148 82.1425L76.6749 82.2181C76.7065 82.2572 76.7388 82.2923 76.7914 82.3281C76.7879 82.3161 76.7879 82.3041 76.7895 82.2904C76.7546 82.2638 76.7189 82.2346 76.6832 82.2036ZM86.2677 11.2374C78.2564 10.5468 70.3767 12.3162 62.7319 14.4579L62.2045 14.6099C57.8576 15.8534 53.2612 16.9723 49.5877 19.6338C44.4554 23.5747 41.8051 29.8439 39.4923 35.6322C37.4727 39.9328 38.5051 44.7822 41.5486 47.7851C41.8652 44.801 42.4051 41.9042 43.2488 39.0307C43.4248 38.5818 43.2916 38.4347 43.6711 38.3761C44.2443 46.1199 41.4213 51.8413 47.0078 61.0188C49.4318 65.3492 46.6258 68.5177 53.4709 70.7964L53.6562 70.8674C55.0823 71.4069 56.6397 71.8327 58.0364 71.5311L57.9113 71.327C57.7837 71.1169 57.745 71.0149 57.9306 70.925C57.9256 70.9147 57.9188 70.9045 57.9118 70.8925C57.7616 70.6083 57.6165 70.3206 57.478 70.0295C57.4218 70.0484 57.3654 70.0621 57.3072 70.0775C57.3449 70.1477 57.3499 70.2179 57.2442 70.2419C56.8678 70.3713 56.4813 70.4232 56.0857 70.3989L56.0008 70.3925C55.5539 70.3651 55.2722 70.2835 55.0203 70.2076C54.9368 70.1939 54.8531 70.1802 54.771 70.1631C53.9606 69.983 53.1027 69.5248 52.5475 69.0707C46.2184 65.467 46.8725 53.1995 54.6738 52.0399C54.8338 44.316 58.4984 31.285 64.5802 23.925C70.0775 17.1549 85.0853 14.2206 95.5266 15.2553C95.6788 15.3058 95.831 15.3568 95.9832 15.4083C97.594 15.5518 99.1292 16.2713 100.741 16.6055C99.5839 15.7359 98.2709 15.1567 96.9184 14.6644C94.2237 13.012 91.1345 12.1179 88.15 11.4873C87.5317 11.3349 86.9049 11.2511 86.2677 11.2374ZM54.3178 58.2447C54.7373 58.0163 54.6893 58.2369 54.7858 58.1728C57.8029 57.9261 61.0562 60.5743 62.7428 62.782C62.6096 62.9207 62.2492 62.5097 62.186 62.4447C62.1775 62.4532 62.1672 62.4601 62.157 62.4635L62.2039 62.53C62.8875 63.5134 61.5324 62.3562 61.4055 62.1177C61.3833 62.1296 61.3611 62.1365 61.3355 62.1314C61.4429 62.237 61.771 62.5125 61.8273 62.7084L61.9143 62.7809C62.7345 63.485 62.6665 64.0147 61.7353 63.0148C61.7573 63.0611 61.7659 63.1039 61.7505 63.1381L61.7826 63.1595C62.2404 63.4803 62.617 64.3745 61.66 63.4566C61.7595 64.127 60.7116 62.8311 60.6779 62.8402C58.8645 61.4131 56.1946 60.0252 53.9199 59.8388L53.8416 59.8298C53.4242 59.776 53.2268 59.6518 53.3733 59.3782C52.8593 59.2556 52.9797 59.0019 53.223 59.0101C52.8605 58.7711 53.1868 58.5425 53.3973 58.6317C53.2526 58.2302 53.8328 58.4976 53.8857 58.4416C54.1868 57.9761 54.2679 58.3644 54.3178 58.2447ZM47.9935 33.3586C49.4426 32.8264 53.7231 34.4194 53.3807 36.5291C53.1768 37.0135 52.5049 37.291 52.0326 37.0176L51.4163 36.6026C50.3437 35.8825 49.3763 35.251 48.2248 34.623C47.598 34.3112 47.3281 33.6493 47.9935 33.3586ZM56.2378 30.2234L55.6781 29.8582C52.6579 27.8766 48.3883 24.8741 55.9602 27.9806C56.8232 28.3516 57.9699 28.5711 58.4408 29.395C59.1804 30.9135 57.2338 31.0156 56.2378 30.2234ZM56.5777 21.3322C56.3353 20.4102 59.3509 21.4922 60.2288 21.7774L60.3625 21.828C61.2164 22.147 62.1953 22.4429 62.7061 23.1817C63.3045 24.2025 62.0933 24.414 61.343 23.9529C59.8047 22.9451 58.1182 22.1847 56.5777 21.3322ZM64.2457 17.0373C62.5483 15.179 67.091 16.9592 67.7715 17.4533L67.7909 17.4679C68.2987 17.8262 68.1957 18.5981 67.7187 18.8248C66.3614 18.8506 65.3627 17.7165 64.2457 17.0373ZM71.9698 15.0014C69.2714 13.0573 72.826 13.982 74.0606 14.7439C74.9021 15.4878 74.0353 16.7437 71.9698 15.0014Z" fill="black"/>
<path fill-rule="evenodd" clip-rule="evenodd" d="M96.1059 67.0032C96.6931 65.9667 98.4453 66.1352 98.7132 67.3441C99.2566 69.7949 96.3352 72.058 94.1164 72.1145C91.9115 72.1705 89.4376 70.2931 89.7568 67.9218C89.8357 67.3352 90.6188 67.4064 90.8858 67.7742L90.9895 67.9153C91.7147 68.8899 92.6715 69.8986 94.0173 69.661C94.5751 69.5627 95.0817 69.2141 95.4189 68.7654C95.8255 68.2238 95.7809 67.5771 96.1059 67.0032ZM82.0857 49.0734C82.3845 48.991 82.6861 49.0229 82.9509 49.1355C83.542 49.2439 84.0358 49.737 84.2093 50.3C84.223 50.3487 84.2383 50.3969 84.2551 50.4445L84.2815 50.5155L84.2107 50.3351C84.2434 50.5128 84.388 50.6996 84.44 50.878C84.504 51.0973 84.5196 51.3465 84.498 51.5879C84.686 51.5898 84.8739 51.5961 85.0615 51.6124L85.2427 51.6286C86.2564 51.7228 87.3694 51.8957 87.9703 52.772C88.3078 53.2644 87.991 54.151 87.3709 54.2458C86.4164 54.3919 85.5942 53.8635 84.643 53.7577C83.7438 53.6575 82.8028 53.7149 81.9152 53.8774C80.0828 54.2125 78.3989 54.9556 76.6131 55.4218L76.37 55.4835L76.3703 55.4823C76.0643 55.5563 75.7169 55.1307 76.0197 54.8817C77.4503 53.706 79.2819 52.7532 81.0864 52.1729C80.8235 51.7546 80.7422 51.2037 80.9219 50.7546C80.9497 50.6615 80.9843 50.571 81.0207 50.4808L81.0966 50.2952C81.104 50.2077 81.1208 50.1212 81.1451 50.0365L81.149 50.0106L81.1512 50.0122C81.2856 49.5754 81.6364 49.1973 82.0857 49.0734ZM100.338 49.141C100.729 48.7494 101.279 48.8073 101.687 49.1155L101.741 49.158C102.126 49.329 102.445 49.7028 102.654 50.0491C102.871 50.4089 103.015 50.7753 103.021 51.1713C103.968 51.1744 104.875 51.4586 105.571 52.2236C105.795 52.4705 105.949 52.8513 105.825 53.186L105.751 53.3851C105.518 54.0173 104.468 54.3812 104.111 53.6378L104.095 53.6015C103.716 52.7187 102.26 52.8114 101.487 52.9016C100.948 52.9648 100.415 53.0988 99.8949 53.249C99.7114 53.3019 99.5296 53.3593 99.348 53.418L99.1664 53.4769C99.0696 53.5082 98.565 53.7823 98.8789 53.7174C98.9633 53.7 99.0268 53.8229 98.9407 53.8642C98.5666 54.0431 98.1674 53.6868 98.1924 53.2848C98.2357 52.5869 99.3435 52.2043 99.8765 51.9637L99.9084 51.9491C100.113 51.8546 100.327 51.764 100.548 51.68C100.424 51.4951 100.321 51.2896 100.235 51.0691C100.155 50.8609 100.101 50.6585 100.071 50.4371C100.042 50.3289 100.042 50.2207 100.071 50.1123L100.076 50.0813C100.061 50.0098 100.053 49.9358 100.054 49.8613L100.051 49.8324H100.054C100.065 49.5716 100.168 49.3103 100.338 49.141ZM94.0862 56.5726C95.5894 57.0373 98.0694 58.3031 97.286 60.2568C96.1922 62.0512 93.2914 60.7325 91.8857 60.1527C90.6228 59.7343 89.9653 61.5048 91.1864 62.0385C101.277 66.0321 101.24 55.4922 94.4521 55.647C93.7047 55.664 93.6813 56.4182 94.0862 56.5726ZM80.7357 42.8296L80.9921 42.7547C82.3245 42.3686 83.6846 41.7019 84.8676 42.7422C85.3321 43.1507 85.4278 43.9996 85.0954 44.5092C84.3382 45.6702 83.2153 45.4928 81.9925 45.5918C81.0614 45.6671 80.1442 45.9407 79.2751 46.2826C78.5649 46.5622 77.9061 46.9558 77.2841 47.3948C76.6731 47.8265 76.2557 48.5012 75.629 48.8897C75.3993 49.0322 75.134 48.8856 75.0515 48.6546C74.7592 47.8354 75.2531 46.8148 75.6711 46.1167C76.1813 45.2651 76.9562 44.5686 77.7895 44.0416C78.7021 43.4644 79.7111 43.1311 80.7357 42.8296ZM100.15 41.948C102.402 41.9473 104.569 43.2004 105.829 45.0374C106.257 45.6615 105.943 46.5861 105.329 46.9455C104.64 47.3488 103.903 47.0584 103.448 46.4804L103.422 46.4453C102.699 45.4829 101.768 44.725 100.664 44.2315C100.125 43.9906 99.5298 43.7952 98.9472 43.6961L98.7589 43.6638C98.495 43.6196 98.1889 43.5774 97.9503 43.6187C97.8224 43.6355 97.705 43.6778 97.5968 43.7422C97.6489 43.8559 97.5145 43.9928 97.3904 43.9247C96.8308 43.6172 96.8994 43.0686 97.3617 42.6423C98.0156 42.0391 99.3056 41.9482 100.15 41.948Z" fill="black"/>
<path fill-rule="evenodd" clip-rule="evenodd" d="M95.1438 63.2348C93.2405 62.3772 89.8226 63.1256 88.5818 63.4232C85.6971 64.1152 82.7951 65.6108 81.8983 67.9539C80.8876 70.5946 82.9041 71.4258 83.2007 71.2901C85.1977 71.4308 87.5758 70.1749 89.6684 69.8508C91.3672 69.5854 93.1593 69.3538 94.751 68.4508C95.9131 69.0903 98.5379 69.436 100.656 69.9951C102.46 70.4711 103.242 71.5034 104.914 71.2839C106.919 71.0209 106.098 66.8033 103.864 65.0948C101.419 63.2249 97.284 62.4666 95.1438 63.2348ZM98.9126 81.2683C97.2474 81.6744 97.1355 78.0232 96.949 76.7333C96.8032 75.7255 95.9813 73.1266 93.8974 73.2388C91.8135 73.3509 91.0302 75.5283 91.1359 76.8826C91.2044 77.7608 92.0134 82.2093 89.4312 82.7721C87.785 82.7663 85.8804 82.6551 84.1494 82.3358C82.1121 81.8742 79.4628 80.2581 78.763 83.4408C78.5111 84.5863 87.4858 87.9895 91.4683 88.2974C95.5071 89.1162 100.233 87.8572 103.108 84.7663C103.762 84.0631 105.605 81.1444 105.736 80.4293C106.012 78.9269 105.373 77.9601 103.515 78.4896C102.202 79.1909 99.9835 81.0071 98.9126 81.2683Z" fill="#564334"/>
<circle cx="55" cy="64" r="3" fill="#4C4032"/>
</svg>
