<svg width="140" height="203" viewBox="0 0 140 203" fill="none" xmlns="http://www.w3.org/2000/svg">
<path fill-rule="evenodd" clip-rule="evenodd" d="M13.2164 199.695C35.449 203.073 58.085 203.243 80.5024 202.016C89.3744 201.352 98.2735 201.232 107.138 202.082C112.377 202.471 135.344 204.227 137.22 199.534C136.039 174.541 133.647 149.336 126.309 125.3C123.291 116.765 120.7 109.681 114.81 102.618C112.953 100.69 108.95 96.6457 106.656 95.3266C104.669 94.1841 103.839 94.5917 102.697 92.6618C101.563 90.5299 100.727 86.9695 99.117 85.4652C97.4777 83.9335 95.0482 84.4815 92.037 84.9748C92.5902 77.496 89.1393 75.5912 84.3853 74.169C76.0288 70.9785 67.7759 72.5813 65.6727 82.7579C61.7729 82.7579 59.5823 84.4368 57.2142 86.0499C56.2461 86.7094 56.9195 88.3894 55.7632 88.9077C53.6238 89.6697 49.8432 89.4831 47.7833 90.4209C38.4162 94.6854 30.0732 100.87 24.5942 109.901C12.3108 129.184 3.87313 169.803 5.33323 192.658C4.69351 193.661 5.57814 195.1 5.803 196.18C6.08683 197.118 7.00596 197.743 7.9652 197.636C9.30378 199.076 11.3742 199.397 13.2164 199.695Z" fill="#E1BAA9"/>
<path fill-rule="evenodd" clip-rule="evenodd" d="M59.4708 84.286C60.8407 82.8562 62.9886 82.0027 65.0228 82.0508L65.118 82.0537L65.8086 82.0846L65.3471 84.3493L65.3239 84.4566L65.2298 84.8498L65.1045 85.3646L65.0599 85.5538L65.0129 85.7633C65.0055 85.7973 64.9982 85.831 64.9912 85.8643L64.9706 85.9634L64.7738 86.9256L64.8106 87.0111L64.7999 87.2297C64.7694 88.0201 64.9397 88.4546 65.3147 88.5939L65.3447 88.6043L65.5586 88.673L65.7332 89.0519C66.1349 89.9184 66.5096 90.6754 66.8943 91.3883C68.0164 93.4675 69.3551 95.546 70.8985 97.6347C72.365 99.6195 73.8927 101.514 75.481 103.313C76.1952 104.122 76.9496 104.934 77.7525 105.76L78.4438 106.469L78.6635 106.691L78.8114 106.839L78.9958 107.019L79.2616 107.273L79.4542 107.462L79.5167 107.522C79.5952 107.595 79.656 107.644 79.7107 107.679L79.731 107.692L79.7918 107.728L82.9961 111.099L84.1279 111.722L84.6654 112.02L84.7743 111.803L84.7963 111.734L85.9874 109.117L86.7146 107.515C88.2072 104.218 89.3685 101.595 90.4305 99.0977L90.5627 98.7861L90.9543 97.857L91.1616 97.3612C92.1108 95.0856 92.812 93.3293 93.4396 91.6232L93.5287 91.3798L93.6609 91.0152L93.8572 90.4655L93.8929 90.3715C94.0633 89.935 93.6446 88.3484 93.2322 87.4793L93.2089 87.4309L93.1016 87.2155L92.9856 86.9883C92.7129 86.4559 92.5153 85.865 92.3493 85.1497C92.3224 85.0339 92.2971 84.9173 92.2733 84.7997L92.2387 84.6226L92.2168 84.5063L92.1862 84.3435L92.1424 84.1103L93.0654 83.956L93.5717 83.8734L93.7924 83.8388C94.0786 83.7946 94.3332 83.7583 94.5729 83.7279L94.6621 83.7167L94.8226 83.6977L94.8283 83.7294L95.1576 83.7619L95.4021 83.7872C96.6064 83.9146 97.5353 84.055 98.1949 84.2106L98.26 84.2262L98.3778 84.2559L98.4316 84.2702C99.0315 84.4318 99.4939 84.7809 99.8597 85.2957C100.111 85.6489 100.274 85.9872 100.531 86.6281L100.624 86.8596L100.931 87.6182C100.966 87.7106 101.022 87.8582 101.097 88.0611L101.357 88.7701L102.662 92.3745L103.997 93.0773C104.618 93.4022 105.072 93.6365 105.296 93.7472L105.376 93.7859L105.433 93.812L105.893 93.9944L105.843 94.1381L105.899 94.1699C111.396 97.3333 115.635 102.2 118.936 108.66L119.035 108.856L119.137 109.06C121.768 114.322 123.652 120.195 125.492 128.035L125.606 128.523L125.696 128.91L126.176 131.003C127.978 138.902 129.217 144.793 130.242 150.573L130.308 150.95L130.479 151.932C131.766 159.414 132.844 166.827 133.707 174.168L133.85 175.404C134.21 178.558 134.535 181.819 134.888 185.734L134.935 186.26L135.09 188.019C135.255 189.914 135.406 191.806 135.543 193.693L135.61 194.636L135.749 196.687L135.83 197.856L135.839 198.014L135.872 198.623L135.881 198.766C135.894 198.949 135.908 199.104 135.925 199.247L135.939 199.352L135.955 199.454C136.001 199.733 136.091 199.983 136.239 200.262L136.278 200.333L136.533 200.79L136.07 201.034C133.656 202.306 128.902 202.866 122.38 202.895L122.182 202.896H121.774C118.605 202.894 115.246 202.772 111.742 202.563L110.949 202.515L110.288 202.472C110.003 202.454 109.726 202.435 109.438 202.415L108.997 202.384L107.154 202.249C98.8653 201.455 90.1728 201.468 80.5949 202.185C55.6239 203.552 34.0706 202.975 13.8125 199.951L13.199 199.858L12.7469 199.785L12.4773 199.739C10.3285 199.372 8.97926 198.902 7.92645 197.915L7.87131 197.863L7.82535 197.818L7.80543 197.818C6.74536 197.813 5.77491 197.12 5.41483 196.097L5.39612 196.042L5.37237 195.965L5.35597 195.889C5.33919 195.816 5.31825 195.736 5.29278 195.649L5.27283 195.583L5.10547 195.034L5.66927 194.931C5.71785 194.922 5.76836 194.889 5.81735 194.817L5.86432 194.75L5.94562 194.638L6.14201 194.368C6.35119 194.075 6.45411 193.891 6.50511 193.706C6.55022 193.542 6.56713 193.332 6.56223 193.04L6.55845 192.897L6.53623 192.38C6.53478 192.338 6.53379 192.302 6.53315 192.267L6.53245 192.215L6.53209 191.486L6.53389 190.686C6.53519 190.336 6.53716 189.995 6.53984 189.661L6.54439 189.163L6.54893 188.762C6.57608 186.545 6.64114 184.329 6.74413 182.116C6.94545 177.797 7.29078 173.484 7.77931 169.187C8.788 160.317 10.3331 151.713 12.4349 143.399L12.646 142.569C14.9186 133.684 17.1097 126.834 19.8947 120.5C23.4368 112.443 27.7557 105.812 33.1936 100.512C36.1833 97.5969 39.4944 95.1369 43.013 93.2501C44.6313 92.3824 46.3512 91.6124 48.1955 90.9197L48.4598 90.8212L48.8865 90.6653L49.2138 90.5444L50.2685 90.1502C50.4901 90.0671 50.7314 89.9741 51.0167 89.8619L51.1933 89.7922L53.082 89.0385L53.3956 88.915L53.7443 88.7793L54.0006 88.6809C54.4197 88.521 54.7992 88.3815 55.1515 88.2585L55.3598 88.1866L55.5487 88.123L56.3548 87.844L56.3391 88.5775C56.3286 89.0652 56.4542 89.4338 56.7331 89.6985L56.7425 89.7069L56.7521 89.7146L56.7607 89.7203L56.8095 89.7189L57 89.718C57.0197 89.7072 57.0382 89.6945 57.0554 89.6799C57.3265 89.4496 57.4525 89.1407 57.5749 88.4325L57.6073 88.2355L57.6638 87.8663L57.6863 87.7266C57.7678 87.2352 57.8388 86.9637 57.9769 86.6532C58.1765 86.2044 58.4403 85.7674 58.7508 85.3657L58.8233 85.2736L59.1133 84.9248L59.1578 84.8698C59.2594 84.7395 59.3115 84.6475 59.3333 84.5632L59.3385 84.5404L59.3675 84.3938L59.4708 84.286Z" fill="#1A181B"/>
<path fill-rule="evenodd" clip-rule="evenodd" d="M105.241 94.7612C105.105 94.6851 105.225 94.4901 105.362 94.5546C111.956 97.6489 117.014 103.078 120.573 109.35C124.258 115.845 126.359 123.22 128.169 130.427L128.235 130.688C130.166 138.398 131.808 146.188 133.286 153.997C134.783 161.905 135.984 169.862 136.951 177.852C137.429 181.802 137.856 185.76 138.188 189.725C138.354 191.707 138.505 193.69 138.641 195.674C138.695 196.467 138.746 197.261 138.79 198.055L138.821 198.651C138.848 199.191 138.912 199.733 138.779 200.266C138.664 200.725 138.421 201.141 138.207 201.563C137.784 202.397 136.624 202.26 136.168 201.563L136.036 201.36C135.733 200.893 135.482 200.459 135.387 199.877C135.295 199.314 135.292 198.723 135.251 198.154C135.175 197.108 135.111 196.06 135.037 195.013C134.883 192.808 134.709 190.605 134.517 188.404C134.138 184.058 133.73 179.717 133.23 175.383C132.342 167.681 131.226 160 129.912 152.359C128.627 144.896 127.004 137.507 125.31 130.129L125.134 129.365C122.168 116.482 117.597 101.646 105.241 94.7612ZM35.0118 145.208C35.0603 145.079 35.269 145.05 35.3042 145.208C35.7484 147.209 35.7923 149.269 35.8602 151.317C35.927 153.338 35.9243 155.367 35.8949 157.389C35.7863 164.819 35.5824 172.242 35.4061 179.671C35.318 183.387 35.2353 187.103 35.1718 190.82C35.1478 192.214 35.1276 193.608 35.1109 195.001L35.0904 196.84C35.0802 197.653 35.0588 198.456 34.9598 199.268C34.8944 199.802 34.7552 200.311 34.4605 200.769C34.2513 201.094 33.9532 201.259 33.6626 201.48L33.6082 201.522C33.2376 201.815 32.8472 201.817 32.4801 201.522L32.3735 201.437C32.0229 201.163 31.7198 200.949 31.496 200.515C31.1846 199.912 31.1347 199.256 31.0818 198.592C31.0014 197.584 31.0547 196.561 31.0651 195.551C31.0859 193.523 31.1139 191.496 31.1495 189.468C31.28 182.034 31.538 174.598 32.0082 167.176C32.2297 163.68 32.5301 160.173 32.933 156.692L33.0097 156.039C33.1319 155.015 33.2434 153.972 33.3689 152.926C31.4941 151.607 29.8461 150.007 28.4408 148.191C28.3373 148.057 28.5077 147.87 28.6326 147.999C30.0685 149.487 31.715 150.672 33.5378 151.605C33.8364 149.415 34.2471 147.237 35.0118 145.208ZM66.3333 78.9348C66.359 78.9149 66.3992 78.9062 66.4237 78.9348C66.8266 79.4048 66.7449 80.1234 66.7579 80.719L66.7594 80.7745C66.7883 81.6453 66.7938 82.5133 66.7909 83.3847L66.7819 86.1581C66.7807 86.5394 66.7497 86.9364 66.7693 87.32L66.7795 87.4684C66.9912 87.6853 67.0896 87.9987 67.0177 88.3135C67.0048 88.7173 66.7938 89.0542 66.4859 89.266L67.1457 90.2025L67.8062 91.1384C69.1674 93.0698 70.5436 94.984 71.9779 96.8623C73.4404 98.7773 75.0005 100.62 76.6332 102.392C77.4308 103.258 78.2421 104.112 79.0722 104.946C79.4095 105.286 79.7553 105.616 80.0972 105.951L80.4373 106.287C80.6383 106.488 80.8912 106.687 81.0246 106.942C81.1031 107.092 81.1209 107.463 81.149 107.524C81.4009 108.078 80.9712 108.961 80.2571 108.685L80.2895 108.663C80.4195 108.573 80.3362 108.571 80.0395 108.659C79.8523 108.659 79.6768 108.616 79.5128 108.53L79.4639 108.503C79.233 108.386 79.0269 108.159 78.8393 107.977L78.7928 107.933C78.3637 107.531 77.9548 107.104 77.5437 106.684C76.6855 105.807 75.8467 104.911 75.0346 103.992C73.4145 102.157 71.8787 100.247 70.4242 98.2789C68.9426 96.2739 67.5655 94.166 66.3813 91.9715C65.9319 91.1387 65.5199 90.2899 65.1249 89.4312C64.356 89.1843 64.1775 88.3663 64.2311 87.4448C63.9474 86.7839 63.6918 86.1094 63.5407 85.4202C63.5201 85.3258 63.6414 85.2367 63.7141 85.3193C63.96 85.5988 64.1877 85.8964 64.4066 86.2017C64.5386 85.5556 64.7057 84.9609 64.7844 84.5818L65.1252 82.9087C63.2044 82.8085 61.0997 83.598 59.7756 84.98C59.7044 85.3399 59.4275 85.5975 59.1576 85.9339C58.8493 86.3184 58.5802 86.75 58.3796 87.2013C57.9346 88.2017 58.1858 89.6758 57.3221 90.4097C57.2321 90.4862 57.1315 90.5393 57.0277 90.5721C57.4375 92.5823 57.2516 94.7973 57.2426 96.8367L57.2423 97.0162C57.2444 99.2986 57.1681 101.583 57.08 103.864L56.9903 106.121C56.8741 109.131 56.7986 112.142 57.091 115.136C58.4261 113.953 59.8065 112.824 61.2345 111.749C62.1734 111.042 63.1311 110.36 64.1063 109.703L64.8986 109.173C65.848 108.536 66.8206 107.881 67.8601 107.425C69.2198 106.829 70.5128 107.034 71.8256 107.645C73.1329 108.255 74.4012 108.962 75.6835 109.623C76.9877 110.294 78.2946 110.96 79.6008 111.627C80.4659 112.07 81.7337 112.469 82.3683 113.283C82.4088 113.103 82.456 112.923 82.5111 112.744C82.4481 112.472 82.4725 112.177 82.6255 111.896C84.7578 107.976 86.7306 103.963 88.6897 99.9547C89.6813 97.9263 90.6241 95.8738 91.6176 93.8466L92.5834 91.8721C92.7448 91.5432 92.9066 91.2146 93.0694 90.8864C93.313 90.3951 93.5668 89.9085 93.8132 89.4184C93.9173 89.2113 94.0479 89.0056 94.1493 88.7966L94.1973 88.6918C94.1996 88.6863 94.4336 87.9502 94.2529 88.0204L94.2373 88.0279C94.145 88.0801 94.0712 87.964 94.1309 87.89C94.3865 87.5738 94.7425 87.8539 94.8884 88.1465C95.2902 88.9519 94.5539 90.2161 94.2707 90.9873L94.2551 91.0304C93.3762 93.5192 92.381 95.9613 91.3613 98.395C89.4061 103.061 87.3058 107.655 85.2101 112.257L85.1853 112.336C85.6321 111.994 86.1093 111.683 86.5179 111.38C87.5487 110.616 88.6095 109.89 89.6687 109.166C91.6111 107.838 93.6062 106.598 95.6342 105.407L96.0403 105.17C97.0534 104.579 98.0569 104.1 99.2594 104.278C100.376 104.442 101.415 105.043 102.424 105.53L102.529 105.58L105.647 107.064C105.314 105.734 104.953 104.41 104.576 103.092C103.842 100.52 103.034 97.9695 102.157 95.4421C101.339 93.0807 100.454 90.7451 99.5178 88.4279L99.2359 87.7325C98.8543 86.7785 98.4749 85.7381 97.3842 85.4444C96.2942 85.1508 95.0439 85.5862 94.0477 84.9647C93.9572 84.9082 93.9684 84.7589 94.0782 84.7313L94.6929 84.5763C95.8471 84.2891 97.2001 84.0001 98.2916 84.2794C99.4792 84.5838 100.462 85.581 101.038 86.6176C101.679 87.7707 102.13 89.0612 102.617 90.2908L102.694 90.4845C103.252 91.876 103.788 93.2759 104.302 94.6847C105.329 97.5005 106.264 100.35 107.11 103.226C107.517 104.611 107.904 106.004 108.276 107.4C108.383 107.801 108.559 108.288 108.704 108.795C108.87 108.957 109.027 109.138 109.174 109.343C109.418 109.685 109.243 110.085 108.939 110.29C108.927 110.639 108.85 110.968 108.664 111.249C107.94 112.349 106.026 112.066 106.104 110.587C106.115 110.361 106.204 110.145 106.337 109.963L106.333 109.933L106.318 109.879C105.986 109.72 105.652 109.542 105.3 109.368L102.027 107.75C101.08 107.282 100.029 106.558 98.9748 106.379C97.9921 106.213 96.9553 106.945 96.1109 107.387L96.0561 107.415C94.0149 108.462 91.9887 109.543 89.9706 110.634C88.9855 111.166 88.0131 111.72 87.0317 112.259C86.2111 112.709 85.3255 113.356 84.4031 113.61C84.0092 113.917 83.5412 113.876 83.1651 113.644C83.337 114.709 83.3264 115.802 83.3792 116.89C83.4501 118.346 83.461 119.805 83.4844 121.263L83.4939 121.809C83.5558 125.031 83.589 128.254 83.6013 131.477C83.6448 142.952 83.518 154.432 83.4884 165.907C83.4735 171.673 83.3593 177.444 83.2095 183.207C83.146 185.65 83.0133 188.089 82.8699 190.528L82.791 191.858C82.6241 194.664 82.5256 197.502 82.0062 200.27C81.9385 200.631 81.3275 200.64 81.2676 200.27C80.7896 197.303 80.7631 194.272 80.6712 191.27L80.6518 190.67C80.5413 187.448 80.4889 184.227 80.5001 181.003C80.541 169.522 80.8393 158.049 81.0833 146.572C81.206 140.806 81.2886 135.037 81.4792 129.272C81.5745 126.387 81.6824 123.505 81.8103 120.622C81.8675 119.334 81.9225 118.048 82.0079 116.763L82.0465 116.212C82.0731 115.853 82.0945 115.498 82.1206 115.146C80.9594 115.57 79.8975 114.785 78.853 114.247C77.6492 113.628 76.4459 113.007 75.2415 112.389L74.0362 111.772L71.6241 110.54C70.538 109.986 69.7013 109.434 68.5429 110.085C64.3696 112.427 60.5347 115.543 57.0594 118.813C56.393 119.441 54.9847 119.272 54.8159 118.221C54.0948 113.731 54.5334 109.175 54.9016 104.672L55.0373 102.999C55.2017 101.002 55.3808 99.0052 55.6195 97.0162C55.7262 96.1264 55.8325 95.2372 55.9502 94.3491L56.0407 93.6833C56.1877 92.6307 56.2837 91.5844 56.5972 90.5749C56.4983 90.5429 56.4032 90.4904 56.3181 90.4097C55.3756 89.5153 55.83 87.9632 56.2601 86.8991C56.6846 85.8489 57.3322 84.9323 58.1431 84.1434C58.3199 83.9711 58.5692 83.8603 58.8197 83.8545C60.7857 82.5515 62.9425 81.9012 65.1873 82.6124C65.2504 82.3108 65.3147 82.0097 65.3824 81.7094L65.4513 81.4093C65.6259 80.6642 65.6907 79.4333 66.3333 78.9348ZM86.4832 196.61C87.0933 196.442 87.7612 196.619 88.2082 197.066C88.6551 197.513 88.8321 198.181 88.664 198.792C88.5799 199.092 88.4279 199.353 88.2082 199.575C88.0028 199.779 87.7632 199.924 87.4895 200.012L87.4258 200.031L87.3261 200.072C87.0203 200.154 86.7143 200.154 86.4086 200.072C86.1163 199.99 85.8626 199.842 85.6471 199.628C85.4332 199.413 85.2853 199.159 85.2033 198.866C85.1211 198.56 85.1211 198.255 85.2033 197.949L85.245 197.849C85.3291 197.548 85.481 197.287 85.7007 197.066C85.9219 196.846 86.1828 196.694 86.4832 196.61ZM122.708 135.793C122.809 135.677 122.971 135.825 122.909 135.947C121.959 137.811 120.899 139.661 119.858 141.478C119.942 141.981 120.025 142.48 120.12 142.967C120.525 145.042 121.022 147.079 121.346 149.173C122.51 156.701 123.114 164.311 123.633 171.906C124.153 179.529 124.219 187.155 124.297 194.793C124.304 195.455 123.795 196.224 123.113 196.349C122.801 196.406 122.567 196.395 122.256 196.349C121.546 196.245 121.102 195.431 121.071 194.793C120.868 190.524 120.594 186.261 120.277 181.999C119.714 174.443 119.371 166.867 118.917 159.303L118.757 156.66C118.585 153.795 118.428 150.929 118.377 148.06C118.343 146.159 118.444 144.259 118.382 142.361C118.324 140.608 118.147 138.703 118.533 136.981C118.547 136.916 118.649 136.9 118.679 136.962C119.08 137.807 119.335 138.727 119.531 139.665C120.566 138.356 121.62 137.043 122.708 135.793ZM54.9106 89.4958C55.056 89.485 55.0502 89.7034 54.9106 89.7196C52.8794 89.9553 50.9172 90.7822 48.9993 91.485L48.835 91.5449C46.8974 92.2482 45.0082 93.066 43.1903 94.0408C39.6358 95.9469 36.3718 98.4045 33.4859 101.218C21.9642 112.449 16.7134 128.645 12.8659 143.865C10.7281 152.321 9.20792 160.92 8.2226 169.585C7.73538 173.871 7.39094 178.173 7.19014 182.481C7.08735 184.689 7.02251 186.899 6.99545 189.109C6.9815 190.241 6.97742 191.374 6.97878 192.506C6.97946 193.025 7.07203 193.678 6.93334 194.182C6.80469 194.648 6.44187 195.059 6.1735 195.448C5.85544 195.91 5.28382 195.885 4.96134 195.448L4.84242 195.289C4.49849 194.833 4.16197 194.396 4.11284 193.8C4.06025 193.161 4.09735 192.501 4.09497 191.859C4.08952 190.565 4.10552 189.271 4.13139 187.977C4.18125 185.497 4.27893 183.019 4.42409 180.543C4.71884 175.518 5.20401 170.503 5.89867 165.518C7.13347 156.657 8.9843 147.881 11.4086 139.269C13.6958 131.145 16.4054 123.045 20.2653 115.52C23.8492 108.533 28.5508 102.034 34.7548 97.1508C37.6398 94.8801 40.7804 92.9877 44.1664 91.5626C45.8741 90.8439 47.6674 90.257 49.4912 89.9225C51.2947 89.5917 53.0904 89.6379 54.9106 89.4958ZM86.8325 182.251C87.1546 182.248 87.5139 182.319 87.7902 182.497L88.1595 182.783C88.2596 182.911 88.3591 183.04 88.4583 183.17C88.6893 183.471 88.7199 183.958 88.6717 184.316C88.6608 184.556 88.5897 184.779 88.4583 184.985L88.1772 185.349C87.907 185.57 87.6816 185.727 87.3544 185.833C87.1833 185.888 87.0186 185.9 86.8544 185.892L86.7996 185.888L86.8325 185.893L86.7749 185.886C86.7215 185.882 86.6679 185.876 86.6141 185.868C86.5775 185.864 86.5408 185.861 86.5042 185.856C86.469 185.853 86.4349 185.852 86.3994 185.855C85.9835 185.894 85.5653 185.658 85.2701 185.387C85.0041 185.143 84.7653 184.625 84.8024 184.258L84.8183 184.104C84.8463 183.845 84.8693 183.743 84.9789 183.483C85.0854 183.23 85.2343 183.007 85.437 182.819C85.825 182.457 86.3 182.254 86.8325 182.251ZM85.5451 163.305C86.0972 162.704 87.0452 162.659 87.7298 163.023C87.8966 163.112 88.0498 163.255 88.1968 163.373C88.5673 163.673 88.7128 164.214 88.7332 164.669C88.7534 165.119 88.516 165.654 88.1968 165.965L88.1194 166.04C87.9286 166.226 87.6553 166.387 87.3885 166.436C86.9581 166.515 86.5966 166.513 86.1959 166.344C85.8515 166.198 85.5548 165.965 85.3529 165.648L85.3201 165.594C85.3063 165.572 85.2932 165.549 85.2809 165.526L85.2631 165.491C84.8795 164.753 84.9827 163.918 85.5451 163.305ZM85.8309 144.26C86.0799 144.182 86.3287 144.171 86.5777 144.227C86.7467 144.227 86.9042 144.27 87.0503 144.355C87.2089 144.399 87.3467 144.48 87.4634 144.596C87.604 144.679 87.7162 144.791 87.7994 144.932C87.965 145.113 88.0766 145.325 88.1346 145.569L88.2013 146.067L88.1346 146.565L87.9457 147.012C87.8938 147.08 87.8416 147.148 87.7888 147.215C87.7054 147.356 87.5931 147.469 87.452 147.552C87.3603 147.644 87.2551 147.712 87.1376 147.759C86.7206 148.058 86.1652 148.156 85.6711 148.02C85.3778 147.937 85.123 147.789 84.907 147.574C84.6925 147.358 84.5439 147.103 84.4619 146.81L84.428 146.576C84.3844 146.261 84.3775 146.087 84.4665 145.688C84.5054 145.512 84.6186 145.264 84.6778 145.16C84.931 144.715 85.3447 144.409 85.8309 144.26ZM107.449 130.559C108.164 130.554 108.879 130.555 109.594 130.563L110.13 130.57C111.027 130.584 111.796 130.492 112.502 131.115C113.014 131.567 112.788 132.326 112.302 132.666C111.566 133.182 110.642 132.923 109.795 132.866C108.902 132.806 108.008 132.756 107.114 132.716C105.383 132.639 103.651 132.589 101.918 132.582C100.189 132.574 98.4569 132.591 96.7279 132.619C94.9686 132.647 93.1368 132.811 91.3874 132.629C91.1471 132.604 91.093 132.288 91.3302 132.206C92.9787 131.635 94.8331 131.45 96.5608 131.232C98.3427 131.007 100.125 130.847 101.918 130.744C103.76 130.638 105.604 130.572 107.449 130.559ZM85.828 124.955L85.887 124.957C86.2017 124.957 86.4961 125.031 86.7707 125.179L86.8293 125.212L87.2071 125.503C87.4383 125.737 87.5985 126.011 87.687 126.327L87.7537 126.824C87.7635 127.081 87.7098 127.321 87.593 127.543C87.5176 127.775 87.389 127.975 87.2071 128.144C87.0379 128.326 86.8376 128.455 86.6064 128.53C86.4009 128.638 86.1809 128.692 85.9461 128.692L85.887 128.691C85.5502 128.69 85.2361 128.605 84.9451 128.436L84.5671 128.144C84.3359 127.911 84.1757 127.637 84.0872 127.32L84.0204 126.824C84.0108 126.567 84.0643 126.327 84.1814 126.104C84.2566 125.873 84.3852 125.673 84.5671 125.503C84.7363 125.321 84.9364 125.193 85.168 125.117C85.3733 125.009 85.5933 124.955 85.828 124.955ZM91.3618 81.089C91.7639 80.5062 92.4928 81.0244 92.3885 81.4929C92.4161 82.8087 92.4833 84.0857 92.7826 85.3746C92.9196 85.9647 93.0992 86.5555 93.376 87.096L93.4923 87.3236C93.8507 88.0319 94.1289 88.6999 93.6463 89.477C93.4187 89.8434 93.0076 90.1185 92.5619 90.0992C90.5853 90.0139 90.3137 87.2616 90.1936 85.7252C90.0697 84.1428 90.455 82.4037 91.3618 81.089Z" fill="black"/>
<path fill-rule="evenodd" clip-rule="evenodd" d="M77.4625 84.3489C80.5153 85.8523 83.7328 86.5389 87.2481 86.5486C99.9731 86.1598 107.26 80.4512 107.056 67.5893C107.098 66.2228 107.396 63.8231 107.704 61.35C108.019 58.8206 108.343 56.2145 108.411 54.5584C110.155 52.2802 111.076 48.8193 111.631 45.0406L111.586 44.9443C112.701 34.65 111.374 21.8462 101.834 15.447C95.8642 10.8101 87.9265 10.6785 80.6994 11.8237C79.4181 11.8466 78.2221 11.5067 77.0339 11.169C76.494 11.0156 75.9557 10.8626 75.4118 10.7443C72.2938 10.0875 69.078 10.0292 65.9465 10.5814C50.0729 13.3748 37.7227 30.1178 37.1771 46.2225C36.6587 55.823 39.3832 64.6953 46.9263 69.8316C46.5885 69.9393 46.2813 70.0691 46.003 70.2179L62.1544 78.9666C62.332 78.5867 62.4822 78.1766 62.6018 77.7353C62.8147 77.8925 63.0363 78.0685 63.2651 78.2502C64.3351 79.0999 65.5598 80.0725 66.7599 79.8174C69.0972 81.9026 72.0655 82.7597 75.0102 83.6099C75.8343 83.8478 76.6565 84.0852 77.4625 84.3489Z" fill="#E1BAA9"/>
<path fill-rule="evenodd" clip-rule="evenodd" d="M77.8657 12.8693C72.5211 11.7745 68.5602 10.963 62.5567 12.9991C47.7498 17.9571 38.2042 33.7507 38.6169 49.101C38.6266 57.8212 42.9387 68.9409 52.6516 70.1786C54.1201 70.2956 54.1431 72.5802 52.6961 72.5117L52.5205 72.5C50.9686 72.3857 49.4509 71.9698 48.0401 71.3212L61.0984 78.3944C61.2544 78.2065 61.4059 78.0098 61.5529 77.8043C59.0012 74.9623 57.1203 70.7147 56.6853 66.9469C49.519 69.7338 44.1142 59.4606 48.7767 54.0125C50.4175 51.6674 53.6026 50.2016 56.2283 51.8663C67.1858 47.6401 74.9351 38.8007 82.2819 29.9956L82.9624 29.1788L83.3656 28.7193L83.5322 28.5309C83.9497 28.0595 84.4945 27.4483 85.0617 26.8121C86.3098 25.412 87.666 23.8906 88.0116 23.47L88.0851 23.3787C88.4702 22.9278 89.2088 23.3639 89.2182 23.8826C89.225 24.258 89.2041 24.6386 89.162 25.0184C90.4438 25.8472 91.504 27.0676 92.476 28.2424L92.7558 28.5818C100.584 34.741 106.95 41.1917 108.93 50.9631C110.11 49.583 110.671 47.7888 111.07 46.0526L111.12 45.8313C111.964 33.9307 109.697 19.6798 97.4492 14.5174C92.6805 12.1458 88.3285 12.576 83.6062 13.0428C82.4995 13.1522 81.3725 13.2637 80.215 13.3415L79.6257 13.2259L79.2512 13.1512C78.7781 13.0563 78.317 12.9618 77.8657 12.8693ZM46.0063 70.2195L46.3921 70.4285C46.274 70.3543 46.1571 70.2784 46.0413 70.201C46.0295 70.2071 46.0179 70.2133 46.0063 70.2195Z" fill="#181818"/>
<path fill-rule="evenodd" clip-rule="evenodd" d="M90.2933 72.681C89.1493 72.2142 88.1286 71.4354 87.3824 70.4406C87.1229 70.0948 87.0557 69.7295 87.1101 69.3955C87.1713 69.0199 87.3934 68.6795 87.6963 68.4512C88.0002 68.2222 88.3803 68.1092 88.7477 68.1668C89.067 68.2168 89.3849 68.3917 89.6364 68.7544L89.689 68.827C90.1326 69.4274 90.7108 69.9201 91.3695 70.2376C92.0044 70.5437 92.7145 70.6865 93.4493 70.6035C94.8488 70.4453 95.8134 69.6881 96.8387 68.6599C96.9657 68.5301 97.0929 68.3962 97.2207 68.2602C97.3014 68.1369 97.4134 68.0576 97.5377 68.016C97.6758 67.9699 97.8319 67.9725 97.975 68.0224C98.1129 68.0706 98.2363 68.1618 98.319 68.2833C98.3976 68.3988 98.4421 68.5414 98.4277 68.7055C98.3338 69.771 97.777 70.722 96.9859 71.4687C96.1074 72.2981 94.9429 72.8718 93.8465 73.073C92.6386 73.2947 91.4078 73.1359 90.2933 72.681ZM94.4165 56.2425C95.7016 57.0239 97.6596 58.8461 96.2772 60.7833C94.6499 62.4914 92.3071 60.5329 91.1525 59.6472C90.082 58.9607 88.8792 60.7262 89.8724 61.5278C98.2151 67.7068 101.601 56.4468 95.0665 55.3237C94.347 55.2 94.0798 56.0008 94.4165 56.2425ZM79.4661 49.0547C79.6081 47.2916 82.2922 46.8913 82.5593 48.6359C82.7984 50.1987 82.5169 51.6344 81.8132 53.0415C81.1408 54.3857 79.4509 53.7585 79.3231 52.5345C79.1518 50.8937 79.3778 50.1514 79.4661 49.0547ZM99.8985 48.2742C100.273 47.7839 100.813 47.4492 101.46 47.6383C103.483 48.2296 102.887 51.1021 102.176 52.5003C101.791 53.2596 100.543 53.4521 99.9792 52.7836C99.0602 51.6933 98.6201 49.5161 99.7884 48.4422C99.8201 48.3867 99.8553 48.3307 99.8985 48.2742ZM81.7848 41.34L82.1043 41.2841C83.0926 41.1131 84.3215 40.9488 85.0207 41.7437C85.3915 42.1652 85.5192 42.9487 85.0207 43.3521C84.144 44.062 83.1746 43.7869 82.124 43.847C81.2581 43.8967 80.4259 44.0401 79.5919 44.2786C77.7622 44.8017 76.2713 45.7568 74.7085 46.8055C74.5035 46.9431 74.2942 46.6807 74.392 46.4889C75.2941 44.7212 77.0423 43.2692 78.7934 42.3841C79.7281 41.9117 80.7508 41.5198 81.7848 41.34ZM98.0547 40.5482L98.2992 40.5983C100.96 41.1547 104.418 42.2663 105.678 44.8811C105.726 45.2509 105.675 45.3301 105.634 45.3819L105.62 45.3991C105.586 45.4433 105.559 45.5043 105.399 45.5546C105.354 45.544 105.309 45.5328 105.264 45.5209C104.686 45.3694 104.229 45.1608 103.787 44.9444L103.307 44.7079C102.751 44.4349 102.189 44.1718 101.594 43.9776C100.324 43.5633 99.0181 43.2714 97.6917 43.1155C97.4042 43.0818 97.1274 42.9847 96.909 42.8183C96.7017 42.6604 96.5433 42.4418 96.4711 42.1512C96.3775 41.7751 96.4044 41.4904 96.6061 41.1511C96.7578 40.8964 96.9748 40.7198 97.224 40.6183C97.478 40.515 97.7672 40.4906 98.0547 40.5482Z" fill="black"/>
<path fill-rule="evenodd" clip-rule="evenodd" d="M75.587 9.91099C45.8577 3.86788 22.417 49.415 45.2661 69.6541C45.2318 69.6837 45.198 69.7133 45.1645 69.743L45.4655 70.044L45.8865 70.2737C45.9116 70.2314 45.9371 70.1891 45.9632 70.1468C47.9388 71.4861 50.2565 72.3566 52.6507 72.5064L52.695 72.5092C54.1421 72.5777 54.1191 70.2931 52.6506 70.1761C42.9377 68.9384 38.6255 57.8187 38.6159 49.0985C38.2032 33.7482 47.7488 17.9546 62.5557 12.9966C68.5591 10.9605 72.5201 11.7719 77.8647 12.8668C78.4342 12.9835 79.0195 13.1034 79.6247 13.2234L80.214 13.339C81.3714 13.2611 82.4985 13.1497 83.6052 13.0403C88.3275 12.5735 92.6795 12.1433 97.4482 14.5148C109.696 19.6773 111.963 33.9282 111.119 45.8288C110.717 47.6329 110.159 49.5217 108.929 50.9606C106.949 41.1892 100.583 34.7385 92.7548 28.5793C91.7062 27.305 90.5669 25.9249 89.1609 25.0159C89.2031 24.6361 89.2239 24.2555 89.2172 23.8801C89.2076 23.3522 88.4426 22.9097 88.0638 23.4012C87.837 23.6952 86.3877 25.3209 85.0607 26.8095C84.4146 27.5343 83.7975 28.2265 83.3646 28.7167L82.9614 29.1763C75.4103 38.2471 67.5237 47.5069 56.2273 51.8638C53.6015 50.1991 50.4165 51.6649 48.7757 54.01C44.1132 59.4581 49.518 69.7313 56.6842 66.9444C57.1193 70.7122 59.0002 74.9598 61.5519 77.8018C61.3727 78.0524 61.1866 78.2899 60.9942 78.5142L62.8814 79.5436C62.948 79.4257 63.0128 79.3049 63.0758 79.1814C64.1895 80.0402 65.7472 81.1801 67.1973 80.5024C67.4987 80.3592 67.5806 79.92 67.4201 79.6508C66.9926 78.9329 66.1931 78.5177 65.4102 78.1112C64.9752 77.8853 64.5454 77.6621 64.1875 77.3912C60.774 74.6343 58.756 70.4888 57.445 66.3673C58.1029 65.0928 56.8422 64.9471 55.2751 64.766C53.981 64.6164 52.478 64.4427 51.674 63.5892C46.8821 59.9479 51.5269 51.1523 57.1828 53.5325C57.2615 53.6216 57.3399 53.7149 57.4192 53.8093C57.8107 54.2755 58.2252 54.769 58.8172 54.9206C59.1989 55.0185 59.4891 54.5393 59.2045 54.2538C58.811 53.9331 58.455 53.5725 58.0989 53.2117C57.8444 52.954 57.5899 52.6962 57.3216 52.4528C66.1434 51.8569 72.4458 45.0971 78.2744 38.8453C79.3649 37.6757 80.4387 36.5239 81.5093 35.4336C82.9085 33.9636 84.288 32.4803 85.6646 30.9909L87.041 29.4998C87.6496 28.9079 88.3058 28.2172 88.5725 27.4057C89.5468 27.5718 90.2868 28.331 90.9875 29.1099L91.1916 29.3379C92.1228 30.3205 93.0956 31.307 94.0805 32.3057C100.309 38.6217 107.02 45.4283 106.752 54.8224C106.417 56.927 106.335 59.4213 106.249 62.0495C105.985 70.1205 105.679 79.4538 97.8492 82.6403L97.6739 82.7144C91.8781 85.1441 84.9337 86.0153 79.0623 83.414C78.7511 83.2693 78.4519 83.1042 78.1539 82.9397C77.5898 82.6283 77.0296 82.3191 76.3987 82.1542C75.6496 81.9586 74.7489 82.8769 75.293 83.5962C76.3225 84.9575 78.1606 85.6776 79.7819 86.218L80.1449 86.3374C88.8735 88.8381 101.047 86.9959 105.772 78.4118C107.309 75.2162 107.699 71.6419 107.88 68.1375L107.915 67.4254C108.009 65.6741 108.354 62.9107 108.67 60.3748C108.97 57.9729 109.244 55.7752 109.255 54.8354C111.24 51.9588 112.13 48.258 112.456 44.7977C112.741 42.165 112.762 39.5195 112.652 36.8763C113.316 21.4225 100.47 8.06504 84.7673 10.5232C81.6513 11.2716 78.5958 10.921 75.587 9.91099ZM55.6169 57.8795C55.2988 57.5219 51.9295 57.5771 52.4394 58.0335C53.9059 58.1392 54.91 59.2596 55.7383 60.184C56.5801 61.1233 57.2404 61.8601 58.0199 61.1236C59.1047 59.7003 56.8958 58.3295 55.6894 57.9043L55.6169 57.8795Z" fill="black"/>
</svg>
