<svg width="129" height="188" viewBox="0 0 129 188" fill="none" xmlns="http://www.w3.org/2000/svg">
<path fill-rule="evenodd" clip-rule="evenodd" d="M123.859 184.047C126.886 183.901 125.669 178.604 125.452 176.658C123.055 169.553 123.618 161.801 122.676 154.353C122.088 147.401 121.334 140.47 120.699 133.523C119.453 119.422 110.502 90.7142 100.286 86.0973C98.9997 80.449 93.6849 75.1764 86.9606 75.1764C82.3743 69.7455 76.854 65.9233 69.7736 66.695C66.8476 66.8282 64.0101 69.9327 61.2064 70.5322C59.6366 70.7488 45.7054 70.1914 42.9148 71.8494C40.971 72.8479 39.2162 74.693 39.7877 77.042C40.6997 79.888 37.8657 76.8086 31.9538 79.8461C19.8986 87.0892 27.1022 96.7787 27.4215 97.079C19.8986 107.55 13.3232 116.045 10.2809 128.843C8.30914 138.345 8.53109 148.154 6.87906 157.705C6.29575 161.017 5.40089 164.215 4.43256 167.431C3.38311 171.64 2.87281 182.13 2.29436 182.223C1.24067 182.485 2.90333 184.649 4.01983 184.651C34.9748 189.788 66.4175 184.864 97.5388 184.059C106.309 183.754 115.089 183.684 123.859 184.047Z" fill="#D7A088"/>
<path fill-rule="evenodd" clip-rule="evenodd" d="M61.2453 79.7525C61.2453 83.0482 72.6845 95.2943 76.6322 94.4864C79.264 93.9478 83.2405 90.4353 88.5616 83.9488V79.7525L87.4124 75.1844C93.9221 75.414 99.0287 80.5761 100.286 86.0973C110.399 90.668 119.274 118.85 120.66 133.096L120.699 133.523C121.334 140.47 122.088 147.401 122.676 154.353C123.618 161.801 123.055 169.553 125.452 176.658L125.466 176.779C125.716 178.814 126.826 183.904 123.859 184.047C115.089 183.684 106.309 183.754 97.5388 184.059C66.4175 184.864 34.9748 189.788 4.01983 184.651C2.90333 184.649 1.24067 182.485 2.29436 182.223C2.87281 182.13 3.38311 171.64 4.43256 167.431L4.63178 166.766C5.52283 163.773 6.33597 160.788 6.87906 157.705C8.53109 148.154 8.30914 138.345 10.2809 128.843C13.3232 116.045 19.8986 107.55 27.4215 97.079C27.1022 96.7787 19.8986 87.0892 31.9538 79.8461C37.8657 76.8086 40.6997 79.888 39.7877 77.042C39.2162 74.693 40.971 72.8479 42.9148 71.8494C45.7054 70.1914 59.6366 70.7488 61.2064 70.5322C61.9357 70.3763 62.6672 70.0509 63.402 69.6523L63.2746 70.0769C61.9217 74.6127 61.2453 77.8379 61.2453 79.7525Z" fill="#96A3AB"/>
<path fill-rule="evenodd" clip-rule="evenodd" d="M76.9425 98.0032C76.9569 97.8614 77.148 97.8617 77.1627 98.0032L77.3812 100.114C77.6471 102.691 77.9031 105.264 78.0887 107.854C78.3201 111.083 78.4748 114.312 78.5494 117.548C78.8094 128.821 78.8611 140.099 78.883 151.374C80.4072 151.268 81.9316 151.167 83.4568 151.068C84.4915 151.001 85.5263 150.937 86.5612 150.874L89.2001 150.714L90.2866 150.647C91.0207 150.602 91.8548 150.417 92.3681 151.068C92.5736 151.328 92.6767 151.667 92.4851 151.976C92.0432 152.689 91.3645 152.664 90.5969 152.695C89.8726 152.724 89.1483 152.753 88.424 152.781C86.8719 152.841 85.32 152.898 83.7674 152.941C82.1381 152.987 80.5095 153.024 78.8808 153.052C78.8643 157.812 78.6675 162.566 78.4546 167.321L78.3583 169.46C78.0978 175.246 77.8176 181.038 77.4196 186.816C77.3868 187.289 76.7178 187.288 76.6854 186.816C76.2371 180.309 75.9414 173.787 75.6482 167.271C75.4355 162.547 75.3117 157.821 75.2528 153.094C75.0375 153.096 74.8222 153.099 74.607 153.099C68.494 153.126 62.3826 153.153 56.2695 153.095C56.2797 153.107 56.2897 153.119 56.2965 153.135C56.7388 154.18 56.7809 155.513 56.7701 156.634C56.7578 157.92 56.5847 159.191 56.2886 160.441C55.228 164.921 52.4923 168.933 49.3764 172.25L49.2747 172.358C48.5397 173.135 47.6965 173.915 47.2453 174.905C46.7843 175.915 46.6243 177.097 46.3969 178.183L46.3703 178.308L45.4809 182.417C45.1984 183.723 45.1182 185.626 44.0853 186.568C43.1217 187.447 41.8451 186.988 41.3917 185.856C41.0375 184.973 41.3902 184.004 41.6 183.121L43.2433 176.211C43.5133 175.084 43.8083 173.95 44.3911 172.937C44.988 171.9 45.8631 171.149 46.7561 170.38C48.447 168.923 49.9993 167.256 51.312 165.451C52.6243 163.646 53.7458 161.657 54.5323 159.566C54.9261 158.519 55.2487 157.431 55.4713 156.334C55.6829 155.294 55.6811 154.216 55.9074 153.186C55.9229 153.115 55.9829 153.066 56.0517 153.045C56.0354 152.999 56.0603 152.937 56.1245 152.933L61.1239 152.611C65.5679 152.325 70.0118 152.031 74.4518 151.694L75.2364 151.638C75.1755 145.331 75.2271 139.024 75.341 132.715C75.4453 126.93 75.4475 121.144 75.6195 115.359C75.705 112.488 75.8894 109.624 76.0946 106.759C76.3045 103.83 76.6405 100.924 76.9425 98.0032ZM30.0003 131.547C29.9471 131.225 30.351 131.026 30.5373 131.32C32.6661 134.677 33.6925 138.323 34.1252 142.251C34.5073 145.718 34.3947 149.235 34.2044 152.711C34.0014 156.419 33.7646 160.125 33.5251 163.831L33.1571 169.513L32.2338 183.758C32.1677 184.777 31.9365 185.704 31.0595 186.177C30.9484 186.27 30.8327 186.353 30.6978 186.425C30.224 186.679 29.5956 186.551 29.3216 186.064L29.4315 186.137C29.5271 186.197 29.4197 186.113 29.1091 185.884L28.8454 185.543C28.6539 185.255 28.5315 184.972 28.4824 184.63C28.4059 184.098 28.5049 183.514 28.5397 182.979L29.1449 173.638C29.6156 166.377 30.1653 159.117 30.5796 151.851C30.7725 148.465 30.9077 145.076 30.8162 141.683C30.7251 138.31 30.5532 134.879 30.0003 131.547ZM48.4165 69.0159L48.5346 68.996C52.7629 68.2934 57.3608 68.4249 61.2252 70.464C61.2571 70.4807 61.2426 70.5338 61.2067 70.5323L59.9629 70.4826C56.0252 70.3283 52.0998 70.237 48.228 71.1625L47.8317 71.258C46.4374 71.5983 44.9813 72.0148 43.8613 72.936C42.7909 73.8166 42.2579 75.1751 41.7453 76.4256L41.6768 76.5907C41.1568 77.8258 40.4986 78.9972 39.3588 79.7696C37.8826 80.7698 36.1071 80.6472 34.4143 80.7831C31.4339 81.0227 28.9971 83.1835 27.7847 85.8278C27.0506 87.4289 26.7375 89.224 26.6754 90.975C26.6436 91.8664 26.6391 92.7926 26.7578 93.6781C26.7957 93.9613 27.1456 94.9928 27.3241 94.9681C27.7205 94.9131 28.083 95.1199 28.2065 95.4369C29.1858 94.4905 30.1933 93.5713 31.2332 92.6851C33.8254 90.4768 36.6174 88.4753 39.5578 86.7554C41.8019 85.4426 44.169 84.142 46.6202 83.1588C46.4259 83.1547 46.2344 83.1932 46.0491 83.2896C45.9679 83.3321 45.8873 83.2302 45.9513 83.1628C46.7234 82.3502 47.6482 82.2346 48.5805 82.4513C48.7794 82.388 48.9785 82.3267 49.1783 82.2686C49.2778 82.2396 49.3273 82.3767 49.2462 82.4296L49.0172 82.576C50.0342 82.9168 51.0327 83.5867 51.8233 84.1154C54.0942 85.6336 56.093 87.4897 58.1193 89.311L58.4877 89.6412C60.2712 91.2343 62.1002 92.7824 64.1265 94.0605C65.1873 94.7294 66.3014 95.3482 67.4701 95.8084C68.4724 96.2035 70.1044 96.4521 70.5738 97.5119C70.9911 98.019 70.8168 98.6661 70.3281 99.0074C69.5038 99.9148 67.8551 99.3286 66.873 98.9507C65.689 98.495 64.5419 97.9473 63.448 97.305C61.3242 96.0577 59.3659 94.5069 57.5417 92.8572C55.6366 91.1342 53.8395 89.3038 51.9865 87.5267C51.1836 86.7567 50.3993 85.9686 49.5952 85.1997L49.1913 84.8171C48.7809 84.4321 48.1962 83.8319 47.5711 83.4687C46.3934 84.1715 45.1974 84.8453 44.0303 85.5662C42.4012 86.5726 40.8199 87.6514 39.2631 88.7658C36.2661 90.9112 33.426 93.314 30.7893 95.8894C25.9537 100.613 21.8338 106.006 18.2348 111.717L17.9615 112.152C15.9163 115.421 13.9823 118.795 12.611 122.407C11.1021 126.382 10.3682 130.561 9.96961 134.781C9.57395 138.969 9.44049 143.179 8.99831 147.364C8.54485 151.656 7.6514 155.854 6.63515 160.043L6.39278 161.036C5.47323 164.788 4.52413 168.54 4.05144 172.381C3.7991 174.432 3.64732 176.512 3.68163 178.58C3.71609 180.66 4.04283 182.694 4.30645 184.752C4.40748 185.541 3.63182 186.199 2.93776 186.304C2.13955 186.423 1.4538 185.914 1.20569 185.172C0.43222 182.86 0.291718 180.304 0.315997 177.877C0.340432 175.413 0.6548 172.965 1.09714 170.543C1.96709 165.78 3.30962 161.115 4.43269 156.409C5.42248 152.261 6.08677 148.105 6.44484 143.856C6.81653 139.447 7.03911 135.024 7.71719 130.647C8.38649 126.325 9.64584 122.198 11.545 118.258C13.2743 114.671 15.4299 111.294 17.6899 108.021C20.4343 104.047 23.4484 100.265 26.8177 96.819C26.515 96.8058 26.2043 96.708 25.9189 96.53C25.0458 95.9852 24.6392 94.9195 24.5142 93.9464C24.2216 91.6701 24.2922 89.2936 24.8774 87.068C25.8214 83.4778 28.2715 80.2878 31.8225 78.9936C32.7364 78.6605 33.7081 78.5389 34.6767 78.5149C35.5958 78.492 36.5997 78.6119 37.4866 78.3204C38.8982 77.8562 39.5033 76.193 40.0333 74.9322L40.0578 74.8743C40.7374 73.2677 41.5532 71.8907 43.0252 70.8875C44.5957 69.817 46.5635 69.3302 48.4165 69.0159ZM88.5928 75.3696C89.8634 74.9287 91.452 75.3289 92.6946 75.714C94.0789 76.1434 95.3582 76.9341 96.4549 77.8732C97.612 78.8635 98.5683 80.0863 99.2438 81.4524L99.3084 81.584C99.9255 82.8512 100.628 84.5909 100.317 85.983C100.308 86.0225 100.298 86.0606 100.286 86.0974C102.807 87.3389 105.136 88.894 107.163 90.8649C109.524 93.1597 111.523 95.7711 113.215 98.5922C119.933 109.797 121.116 123.254 121.909 136.033L122.107 139.273C122.538 146.269 123.042 153.249 124.352 160.149L124.448 160.647C125.848 167.871 127.852 175.15 127.649 182.561C127.588 184.781 124.308 184.766 124.213 182.561C123.855 174.26 121.918 166.246 120.607 158.075C118.3 143.699 119.456 128.879 116.187 114.648C114.904 109.063 112.917 103.645 110.079 98.6598C108.678 96.197 107.074 93.8172 105.195 91.6926C103.579 89.8644 101.899 88.105 100.01 86.5681C99.4063 87.173 98.2003 86.8647 97.8852 85.983C97.6687 85.3771 97.7318 84.6686 97.5929 84.0339C97.464 83.4448 97.2862 82.8608 97.0494 82.3061C96.5773 81.2006 95.8843 80.139 95.0844 79.2443C94.2202 78.2771 93.227 77.4736 92.1157 76.8101C90.9967 76.1421 89.7729 75.9427 88.5928 75.4545C88.553 75.4381 88.5492 75.3848 88.5928 75.3696ZM93.5296 152.197C93.5315 152.139 93.6003 152.111 93.6426 152.15C94.0881 152.561 94.3573 153.149 94.6852 153.654C95.0633 154.235 95.4603 154.805 95.8767 155.36C96.7109 156.472 97.6396 157.52 98.5757 158.547C99.4463 159.502 100.374 160.416 101.337 161.278C102.38 162.213 103.548 163.046 104.496 164.081C106.473 166.239 106.792 169.202 107.209 171.984L107.255 172.285C107.509 173.936 107.737 175.591 107.943 177.249C108.043 178.055 108.142 178.862 108.224 179.671L108.249 179.927C108.321 180.718 108.341 181.521 107.887 182.213C107.4 182.953 106.295 183.212 105.637 182.503C104.508 181.284 104.719 179.119 104.572 177.552C104.451 176.255 104.313 174.96 104.159 173.668L104.081 173.021C103.899 171.551 103.752 170.05 103.415 168.605C103.119 167.333 102.554 166.372 101.627 165.45C100.693 164.521 99.7226 163.654 98.8606 162.654C97.9463 161.593 97.1216 160.456 96.3785 159.269C95.743 158.253 95.2335 157.148 94.7668 156.045L94.6894 155.861C94.2383 154.784 93.4944 153.383 93.5296 152.197ZM109.837 105.965C109.847 105.815 110.069 105.812 110.072 105.965C110.1 107.256 110.127 108.547 110.154 109.838C110.37 120.243 110.237 130.673 111.28 141.042C111.772 145.931 112.679 150.749 113.727 155.546C114.264 158 114.827 160.449 115.362 162.904C115.883 165.297 116.442 167.701 116.856 170.116C117.262 172.489 117.626 174.881 117.789 177.285L117.809 177.598C117.88 178.763 118.215 180.475 117.574 181.508C116.88 182.626 115.55 182.646 114.806 181.578C114.107 180.576 114.281 178.794 114.158 177.598C114.032 176.38 113.899 175.161 113.749 173.946C113.455 171.576 113.067 169.211 112.665 166.857C111.825 161.954 110.608 157.113 109.71 152.218C108.789 147.202 108.135 142.151 108.107 137.044C108.08 131.894 108.625 126.754 108.9 121.615C109.179 116.396 109.497 111.18 109.837 105.965ZM60.7042 73.6015C60.9835 72.6608 61.969 72.0727 62.9305 72.3369C63.8116 72.5792 64.539 73.6489 64.1945 74.5642C63.8186 75.563 63.1617 76.4146 62.6078 77.3224C62.0962 78.1612 61.35 78.8217 60.8289 79.6456L61.4032 80.2649C61.6905 80.5739 61.9786 80.881 62.2699 81.1828L63.2715 82.2207C64.0516 83.0273 64.8366 83.8296 65.6437 84.6083C68.0171 86.8984 70.428 89.1134 73.0859 91.0746C73.691 91.5208 74.3008 91.9646 74.9277 92.3802L75.1614 92.5351C75.5915 92.8168 76.0713 93.0937 76.5908 93.046C77.8532 92.93 78.9939 91.5888 79.8614 90.754L79.9068 90.7106C82.0566 88.6643 84.0473 86.4269 85.7877 84.0213C86.1741 83.4868 86.5483 82.9433 86.9126 82.3933C86.0712 81.41 86.2721 79.4906 86.2258 78.2981C86.193 77.4597 86.1905 76.621 86.186 75.7819L86.1837 75.6127C86.1735 75.0696 86.149 74.5487 86.5013 74.1018C86.5218 74.0759 86.5643 74.0767 86.5904 74.0904C87.073 74.3433 87.2217 74.7669 87.4276 75.242L87.4491 75.2913C87.6997 75.8615 87.9397 76.437 88.1825 77.0106C88.4367 77.611 88.6698 78.2203 88.906 78.8279C89.0159 79.1106 89.1209 79.3944 89.2235 79.6797C89.286 79.862 89.3507 80.0433 89.4171 80.2243L89.4327 80.2382C89.5205 80.3126 89.5949 80.3913 89.6589 80.4725C89.9282 80.6072 90.1421 80.8528 90.2425 81.2135C90.4611 81.9987 90.0089 82.639 89.6055 83.2621C87.9671 85.7944 86.0994 88.2073 84.0233 90.3962C82.992 91.4837 81.9073 92.5223 80.778 93.5074L80.5806 93.6785C79.5661 94.5507 78.4646 95.3768 77.1098 95.5809C75.5242 95.8195 74.2338 95.0307 73.0201 94.122L72.8989 94.0308C71.7483 93.1594 70.6208 92.2575 69.5284 91.314C67.3012 89.3904 65.1824 87.325 63.302 85.059C61.4728 82.8549 59.6648 80.3904 58.5373 77.7383C58.4686 77.5767 58.6493 77.4076 58.7909 77.5425C59.3416 78.067 59.8715 78.62 60.3952 79.18C60.4097 78.3556 60.2576 77.5242 60.3422 76.6947C60.4455 75.6863 60.4157 74.5724 60.7042 73.6015Z" fill="black"/>
<path fill-rule="evenodd" clip-rule="evenodd" d="M73.5066 9.1991C80.5046 9.1991 88.9009 12.6001 89.6148 12.6682L89.6341 12.6692C90.0097 12.6692 91.4773 13.7901 94.0369 16.0319L91.2645 21.4526L91.4889 21.6674C92.5625 22.6993 93.479 23.6398 94.2025 24.3813C100.109 30.4352 101.171 54.2044 99.7791 62.4936C98.387 70.7827 95.8086 78.8938 83.8046 78.8938C71.8006 78.8938 58.4459 71.6579 56.3887 69.4046C55.0172 67.9024 53.4767 67.1827 51.7671 67.2455C51.6968 67.1566 51.6271 67.068 51.558 66.9797L51.3065 66.9439C48.9405 66.6004 47.2452 66.138 46.2206 65.557C44.2194 64.4219 42.0199 58.455 42.0199 57.1406C42.0199 55.8393 38.7355 46.3729 38.6698 45.3711L38.6688 45.3434C38.6688 44.5059 34.378 40.6563 34.378 39.4337C34.378 38.2111 33.5132 38.2853 34.378 33.9771L34.6293 32.7115C35.5497 28.1246 37.3511 20.5293 44.2194 17.2289C51.7671 13.6021 66.4379 9.1991 73.5066 9.1991Z" fill="#D7A088"/>
<path fill-rule="evenodd" clip-rule="evenodd" d="M53.6354 46.7447C53.6354 46.7447 50.483 48.2414 47.3307 50.6845C44.1783 53.1277 45.7348 53.2083 45.7348 53.2083C45.7348 53.2083 45.5992 58.4441 46.5706 60.5209C47.542 62.5978 53.2955 62.9654 53.2955 62.9654L54.2699 66.2367L54.1352 67.7528C53.3853 67.4148 52.5956 67.2611 51.7661 67.2915C51.6959 67.2027 51.6262 67.114 51.557 67.0257L51.3055 66.99C48.9395 66.6464 47.2442 66.184 46.2197 65.603C44.2185 64.468 42.0189 58.501 42.0189 57.1866C42.0189 56.4556 40.9825 53.1482 40.0625 50.212C39.3446 47.9211 38.6976 45.8562 38.6688 45.4171L38.6678 45.3894C38.6678 45.0102 37.7879 44.0132 36.825 42.9223C35.6616 41.6041 34.3771 40.1487 34.3771 39.4797C34.3771 39.123 34.3034 38.8766 34.2206 38.5996C34.0196 37.9273 33.7646 37.0742 34.3771 34.0231L34.6283 32.7575C35.5487 28.1706 37.3501 20.5753 44.2185 17.2749C51.7661 13.6481 66.4369 9.24512 73.5056 9.24512C79.018 9.24512 85.3982 11.3555 88.2075 12.2847C88.9646 12.5351 89.4623 12.6997 89.6138 12.7142L89.6331 12.7152C90.0087 12.7152 91.4763 13.8361 94.0359 16.0779L93.3856 17.3494C84.9323 17.597 71.0313 18.353 64.9633 20.6617C55.9407 24.0944 53.6354 46.7447 53.6354 46.7447Z" fill="#51637B"/>
<path fill-rule="evenodd" clip-rule="evenodd" d="M43.0545 17.0585C46.8188 13.053 68.1891 6.85754 79.0009 8.17084L79.3253 8.21294C80.1881 8.32263 81.0384 8.48873 81.8776 8.71437C84.5901 9.34946 87.392 10.3111 89.6333 11.9174C91.5044 13.2315 97.4069 15.3774 95.6673 18.8151C96.3123 20.0403 96.553 21.554 96.1171 22.7607C96.0622 23.1775 95.9341 23.5614 95.7701 23.9594C97.1483 25.9982 98.2394 28.3038 99.1227 30.4968C100.666 36.0158 101.627 41.7594 101.767 47.3903C102.235 58.0883 101.065 70.8671 91.771 77.785C86.1564 82.1685 77.3614 82.3158 71.0519 76.8806C70.6938 76.4558 69.0099 75.3094 69.5718 75.1084C69.7391 75.2855 69.911 75.4578 70.0861 75.6271C70.0781 75.6083 70.0765 75.5895 70.0798 75.5691L69.9151 75.4196C69.6051 75.132 69.2034 74.715 69.6609 74.7966C69.6811 74.8201 69.7031 74.8405 69.7248 74.864C69.8217 74.9222 69.8949 74.9727 69.9519 75.0173L69.9812 75.0408L69.9721 75.0314C69.7086 74.7496 69.5506 74.4623 69.9446 74.6458L69.9968 74.6712C70.172 74.8561 70.3501 75.0332 70.5314 75.2056C70.5284 75.1852 70.5314 75.1648 70.5425 75.1429L70.3734 74.9792C70.2084 74.817 70.2336 74.8164 70.3143 74.6853C69.9635 74.1925 70.6183 74.4852 70.6642 74.6775C71.0739 74.5803 71.4336 75.3513 71.6974 75.4453C83.2638 84.3598 100.049 76.4499 99.7772 51.6095L99.773 51.1235C99.6935 43.1806 99.0267 35.0168 95.7496 27.8267C95.4309 27.1341 95.0744 26.4603 94.6822 25.8084C94.4118 25.3195 94.1227 24.8432 93.8116 24.3794C92.9408 24.3088 92.0812 24.149 91.2341 23.9014C90.9433 23.8278 90.6557 23.7463 90.3682 23.6507C86.1667 23.8804 82.0589 24.1304 77.8457 24.3673L76.5297 24.4495C72.9606 24.6795 69.2695 25.0479 66.3893 27.261C63.5633 29.2758 63.5505 33.2489 61.1313 35.461C57.6817 37.8081 57.6565 39.9246 56.9922 43.3836C57.0415 45.991 58.8449 49.7795 55.5355 50.8768C56.0938 51.6749 55.3155 51.2914 55.2543 51.0116C55.248 51.0131 55.2418 51.0147 55.2371 51.0147C55.7346 51.9419 55.0032 51.358 54.9385 51.0601C54.8995 51.0492 54.8604 51.021 54.8213 50.9818C55.3226 51.7941 54.5123 51.2253 54.5603 51.0774C53.5916 49.5848 51.5981 49.3531 50.1929 49.7486C50.1758 49.8019 50.1134 49.8066 50.0743 49.7784C44.0992 51.0764 45.6409 63.4768 51.764 62.2781C52.0261 62.2245 52.0198 62.3506 52.0719 62.3627C51.9304 61.9904 52.3292 62.1419 52.325 62.2201L52.3492 62.2189C52.3685 62.2172 52.3606 62.2151 52.375 62.2201C52.2382 61.4587 53.0078 62.5618 52.947 62.6071C52.9706 62.593 52.9972 62.5852 53.0207 62.5821L52.9942 62.5098C52.8664 62.1686 52.8774 62.3104 52.8783 62.1151C52.7823 61.8736 52.7753 61.9792 52.7978 61.8219C53.1351 61.5599 53.2346 62.3547 53.3472 62.4128C53.1543 62.1433 53.3076 61.9231 53.4896 62.0695C54.8687 64.9775 56.6501 67.7098 58.9523 69.8622C59.2041 70.0612 59.4589 70.2571 59.7229 70.442C60.7021 71.2971 62.2042 71.8469 63.1209 72.6044C63.1209 72.6169 63.1149 72.6326 63.1055 72.6483L63.1265 72.6673L63.1477 72.6874L63.4665 72.841C63.5603 72.9209 63.6447 73.0102 63.7196 73.109C63.7995 73.2014 63.8696 73.3033 63.9292 73.4114C63.9589 73.543 63.8932 73.5978 63.7682 73.5414C63.7133 73.5226 63.6588 73.5007 63.6041 73.4803C63.6072 73.485 63.6086 73.4882 63.6119 73.4913C63.6298 73.5185 63.7513 73.8007 63.6113 73.7548L63.5947 73.7483C63.518 73.7201 63.4415 73.6887 63.3665 73.659C63.4556 73.7702 63.5367 73.8909 63.6086 73.9927C63.6854 74.0726 63.7321 74.1667 63.751 74.2732C63.7477 74.3328 63.7151 74.3578 63.6557 74.35C63.565 74.3202 63.4759 74.2889 63.3867 74.256L63.412 74.3045C63.4751 74.4289 63.5647 74.6374 63.4056 74.5678C63.2694 74.5255 63.1383 74.4769 63.007 74.4236C62.9959 74.4456 62.9742 74.4534 62.9304 74.433C62.5131 74.2842 62.1098 74.1024 61.7237 73.8877C61.3846 73.6402 61.0421 73.3973 60.7015 73.1513C60.3809 72.9585 60.0714 72.7439 59.7762 72.5025C57.7995 71.2226 56.0691 69.5968 54.6963 67.786C52.4003 69.7793 47.8098 67.875 44.9702 66.3146C42.4585 64.92 41.4713 62.3414 41.216 59.5613C40.6854 55.8184 37.6343 54.5372 37.8466 46.3248C37.8419 46.3263 37.837 46.3263 37.8308 46.3263C37.7198 46.2934 37.6121 46.2495 37.5105 46.1931C37.4058 46.143 37.3073 46.0834 37.2149 46.0114L37.1008 45.8531C37.0416 45.8202 36.9885 45.7857 36.9478 45.7512L36.9267 45.7785C36.86 45.8592 36.9049 45.7378 36.9087 45.7136L36.7105 45.4434C36.2405 44.8001 35.7249 44.0783 35.3049 43.5011L35.2917 43.5245C35.2822 43.5422 35.2771 43.555 35.2816 43.5606C34.282 42.1209 33.342 40.3819 33.0808 38.6983C32.7724 37.4015 32.8929 36.0652 33.1619 34.8639C34.3153 30.6574 38.0935 21.1384 43.0545 17.0585ZM70.1809 75.2328L70.1182 75.1768L70.1733 75.246C70.2022 75.2818 70.2317 75.3139 70.2799 75.3467C70.2767 75.3357 70.2767 75.3247 70.2781 75.3122C70.2462 75.2878 70.2136 75.2611 70.1809 75.2328ZM78.9525 10.2844C71.6206 9.65246 64.4091 11.2718 57.4126 13.2319L56.9299 13.371C52.9516 14.509 48.745 15.533 45.383 17.9688C40.6859 21.5755 38.2604 27.3131 36.1437 32.6106C34.2954 36.5465 35.2402 40.9846 38.0256 43.7329C38.3154 41.0019 38.8095 38.3507 39.5816 35.7209C39.7428 35.31 39.6208 35.1754 39.9681 35.1218C40.4927 42.2089 37.9091 47.4451 43.0219 55.8443C45.2403 59.8075 42.6722 62.7074 48.9369 64.7928L49.1065 64.8578C50.4116 65.3515 51.837 65.7412 53.1153 65.4652L53.0008 65.2785C52.884 65.0861 52.8485 64.9928 53.0184 64.9105C53.0138 64.9011 53.0076 64.8917 53.0012 64.8807C52.8638 64.6206 52.7309 64.3574 52.6042 64.091C52.5527 64.1082 52.5012 64.1208 52.4479 64.1349C52.4824 64.1991 52.4869 64.2634 52.3902 64.2853C52.0458 64.4038 51.6921 64.4512 51.33 64.429L51.2523 64.4232C50.8432 64.3981 50.5855 64.3234 50.3549 64.254C50.2785 64.2414 50.2019 64.2289 50.1267 64.2132C49.3851 64.0484 48.5999 63.6291 48.0918 63.2135C42.2994 59.9153 42.8981 48.6882 50.0378 47.6269C50.1843 40.5579 53.5381 28.6321 59.1041 21.8961C64.1353 15.7002 77.8704 13.0147 87.4263 13.9616C87.5656 14.0079 87.7048 14.0545 87.8441 14.1017C89.3184 14.233 90.7234 14.8915 92.1988 15.1973C91.1395 14.4015 89.9378 13.8714 88.7 13.4209C86.2338 11.9086 83.4066 11.0903 80.6752 10.5132C80.1093 10.3737 79.5357 10.297 78.9525 10.2844ZM49.712 53.3056C50.0958 53.0966 50.0519 53.2984 50.1402 53.2398C52.9015 53.014 55.879 55.4376 57.4225 57.458C57.3006 57.585 56.9708 57.2089 56.9129 57.1494C56.9051 57.1572 56.8957 57.1635 56.8864 57.1666L56.9293 57.2274C57.5549 58.1274 56.3148 57.0683 56.1986 56.8501C56.1783 56.861 56.158 56.8673 56.1345 56.8626C56.2328 56.9593 56.5331 57.2114 56.5847 57.3907L56.6643 57.4571C57.4149 58.1015 57.3526 58.5862 56.5004 57.6712C56.5206 57.7135 56.5284 57.7526 56.5143 57.784L56.5437 57.8036C56.9628 58.0972 57.3074 58.9155 56.4315 58.0754C56.5226 58.6891 55.5635 57.503 55.5328 57.5113C53.8731 56.2053 51.4296 54.9351 49.3478 54.7644L49.2761 54.7562C48.8941 54.707 48.7135 54.5933 48.8476 54.3429C48.3771 54.2307 48.4873 53.9985 48.71 54.006C48.3782 53.7873 48.6769 53.5781 48.8695 53.6597C48.7371 53.2923 49.268 53.537 49.3165 53.4858C49.5921 53.0597 49.6663 53.4151 49.712 53.3056ZM43.924 30.5297C45.2502 30.0427 49.1677 31.5006 48.8543 33.4314C48.6677 33.8747 48.0528 34.1287 47.6206 33.8785L47.0565 33.4987C46.0749 32.8396 45.1896 32.2617 44.1356 31.6869C43.562 31.4016 43.315 30.7958 43.924 30.5297ZM51.4691 27.6603L50.9569 27.3262C48.1928 25.5126 44.2853 22.7647 51.2151 25.6078C52.0049 25.9473 53.0543 26.1482 53.4853 26.9022C54.1622 28.292 52.3807 28.3854 51.4691 27.6603ZM51.7803 19.5233C51.5585 18.6795 54.3184 19.6696 55.1218 19.9307L55.2442 19.977C56.0257 20.269 56.9215 20.5398 57.389 21.2159C57.9367 22.1501 56.8282 22.3437 56.1415 21.9217C54.7337 20.9994 53.1902 20.3035 51.7803 19.5233ZM58.798 15.5925C57.2445 13.8918 61.402 15.521 62.0248 15.9733L62.0426 15.9866C62.5073 16.3146 62.413 17.021 61.9764 17.2284C60.7343 17.2521 59.8202 16.2141 58.798 15.5925ZM65.8672 13.7293C63.3976 11.95 66.6507 12.7963 67.7807 13.4936C68.5508 14.1745 67.7575 15.3238 65.8672 13.7293Z" fill="black"/>
<path fill-rule="evenodd" clip-rule="evenodd" d="M86.9398 66.7776C85.7859 67.112 84.5474 67.1418 83.3712 66.7966C82.3044 66.4834 81.209 65.7941 80.4238 64.8821C79.7263 64.0719 79.2746 63.0873 79.2924 62.0363C79.2944 61.9163 79.3373 61.8161 79.4033 61.7383C79.4743 61.6546 79.5736 61.5971 79.6799 61.5722C79.7892 61.5465 79.9048 61.5556 80.0032 61.6003C80.0923 61.6408 80.1686 61.7096 80.2163 61.8101C80.337 61.9686 80.4572 62.1249 80.5779 62.2767C81.548 63.4752 82.4876 64.3708 83.9465 64.6921C84.738 64.8664 85.5286 64.7891 86.254 64.5231C87.0304 64.2384 87.7323 63.7378 88.2824 63.0972C88.5309 62.8077 88.8244 62.6895 89.1113 62.6876C89.4365 62.6853 89.7579 62.8365 90.0001 63.0781C90.2381 63.3155 90.3975 63.6383 90.4119 63.9759C90.4246 64.2721 90.328 64.5816 90.0709 64.8578C89.2243 65.7673 88.127 66.4336 86.9398 66.7776ZM86.9044 51.7673C88.0872 52.4866 89.8894 54.1637 88.617 55.9468C87.1192 57.519 84.9627 55.7164 83.9001 54.9011C82.9147 54.2693 81.8076 55.8943 82.7218 56.6321C90.4007 62.3194 93.5169 51.9554 87.5026 50.9217C86.8404 50.8078 86.5945 51.5448 86.9044 51.7673ZM75.8398 48.6025C75.4596 48.3593 75.0124 48.2758 74.5168 48.5014C74.1295 48.6776 73.4502 49.265 72.9775 50.0372C72.654 50.5654 72.4247 51.1851 72.4724 51.8306C72.4835 51.9806 72.4282 52.0911 72.3408 52.1728C72.2718 52.2374 72.1722 52.2848 72.0552 52.2996C71.9558 52.3122 71.8446 52.3009 71.7542 52.2726C71.5822 52.2189 71.4911 52.1073 71.4568 52.0162C71.1258 51.1368 71.2684 50.1554 71.6394 49.2701C72.14 48.0752 73.0492 47.0744 73.6449 46.7517C74.6642 46.1993 75.8667 46.1739 76.8875 46.7366C77.7565 47.2156 78.2998 47.9888 78.8402 48.777C78.955 48.9445 79.0691 49.1109 79.1869 49.2743C79.423 49.6017 79.4465 49.9264 79.3551 50.2048C79.2538 50.5133 78.9955 50.7736 78.6724 50.9099C78.3739 51.0358 78.0273 51.0535 77.7207 50.9242C77.4617 50.8149 77.2239 50.6018 77.0735 50.2403C76.8202 49.6315 76.3981 48.9597 75.8398 48.6025ZM95.1471 49.9571C94.8867 50.0928 94.683 50.1337 94.3942 50.0472C94.2345 49.9992 94.0766 49.9072 93.9531 49.7836C93.8306 49.661 93.7422 49.5087 93.7079 49.3396C93.6234 48.9224 93.3952 48.5319 93.0701 48.2774C92.7922 48.0598 92.4414 47.9445 92.0523 48.0095C91.6324 48.0796 91.2324 48.349 90.9569 48.6666C90.8648 48.7729 90.7927 48.8936 90.7201 49.0134C90.5844 49.2376 90.4524 49.446 90.2652 49.6106C90.1943 49.6733 90.0873 49.7167 89.9838 49.7167C89.9417 49.7167 89.8989 49.7098 89.8582 49.6971C89.4403 49.2775 89.36 48.9592 89.3735 48.6435C89.3876 48.3125 89.5181 47.9773 89.7289 47.6645C90.2235 46.9308 91.1626 46.3293 91.7963 46.1931C92.6641 46.0065 93.526 46.2305 94.217 46.7154C94.928 47.2143 95.4548 47.9889 95.6191 48.8619C95.6586 49.0722 95.6418 49.2991 95.5618 49.4959C95.4836 49.6881 95.3473 49.8528 95.1471 49.9571ZM77.7535 40.7806C77.2327 41.2882 76.6163 41.3668 75.9927 41.4368C75.6462 41.476 75.3696 41.5076 75.0974 41.5691C74.3493 41.738 73.6098 41.9924 72.9351 42.3589C72.2298 42.742 71.4612 43.204 70.9083 43.7959C70.7768 43.9367 70.6528 44.0845 70.5287 44.2326C70.4155 44.3676 70.3065 44.4977 70.1916 44.623C70.0596 44.767 69.9343 44.9179 69.8097 45.0685C69.7326 45.1955 69.7174 45.2267 69.7019 45.2592C69.6785 45.3081 69.6514 45.3628 69.6203 45.4215C69.5778 45.5018 69.5281 45.5897 69.4759 45.6695C69.3892 45.8152 69.3426 45.8554 69.3024 45.8734C69.2357 45.9031 69.1724 45.9177 69.111 45.9098C69.0534 45.9024 68.9992 45.8747 68.9456 45.8294C68.6783 45.6034 68.5994 45.2325 68.6075 44.8388C68.6198 44.2414 68.84 43.5799 69.0431 43.1733C69.5152 42.2284 70.1701 41.2462 70.9574 40.541C71.8559 39.7361 72.8389 39.1267 73.9679 38.7068C74.6695 38.4457 75.4819 38.2061 76.2463 38.2364C76.7965 38.2582 77.3217 38.4218 77.7555 38.8304C78.0219 39.0812 78.1497 39.438 78.1497 39.7945C78.1497 40.1581 78.0169 40.5239 77.7535 40.7806ZM96.2065 45.429C96.1734 45.4833 96.1276 45.5208 96.0766 45.5432C96.0231 45.5668 95.9634 45.5736 95.9061 45.5639C95.8491 45.5543 95.7949 45.5284 95.7519 45.4889C95.7106 45.451 95.6792 45.4008 95.6652 45.3392C95.3194 43.82 94.648 42.6896 93.215 41.9607C92.5101 41.6021 91.6995 41.3743 90.9321 41.1927C90.7091 41.1399 90.4735 41.1057 90.2362 41.071C89.4925 40.9624 88.7434 40.838 88.2586 40.2366C87.9665 39.8744 87.8439 39.4111 87.9132 38.9874C87.9785 38.5885 88.2115 38.2227 88.6351 38.0035C89.6896 37.4581 91.0001 37.9933 92.065 38.4492C92.144 38.4831 92.2216 38.5163 92.2974 38.5483C93.3389 38.9881 94.2887 39.5685 95.0694 40.3987C95.689 41.0572 96.2629 42.0308 96.4941 43.0324C96.6864 43.8656 96.6412 44.7163 96.2065 45.429Z" fill="black"/>
<path fill-rule="evenodd" clip-rule="evenodd" d="M100.922 52.7219C99.0207 54.6877 95.846 55.2518 93.3159 54.1975C86.8192 51.4821 89.9991 43.0127 95.0094 40.7382C95.6353 40.5821 96.4713 40.2119 97.2336 40.1279C97.3026 40.094 97.4526 40.192 97.6345 40.0994C103.159 40.7164 104.417 49.2959 100.922 52.7219ZM79.968 53.2249C77.835 56.055 73.8697 56.9281 70.6298 55.6125C64.2294 53.0909 66.4995 45.5806 70.8785 42.6363C80.129 39.159 83.9488 48.0067 79.968 53.2249ZM66.0928 46.9544C66.0869 46.9516 66.0809 46.9501 66.0748 46.9473C66.1086 46.9324 66.1425 46.9176 66.1761 46.9024C66.1652 46.931 66.1533 46.9594 66.1426 46.9881C66.126 46.9766 66.1114 46.9633 66.0928 46.9544ZM105.326 43.8951C104.803 43.8962 104.049 43.9821 103.617 44.3445C102.551 40.7478 98.6156 37.4191 95.1934 39.8464C92.4985 40.7134 90.4987 42.6362 89.3622 45.1926C87.3129 43.9731 84.0906 44.4938 82.3136 46.1064C81.1498 42.2593 78.2855 40.9122 74.8764 40.7134C71.1553 40.1037 67.4465 43.7188 66.2893 46.619C65.3271 46.5094 63.8893 46.2031 62.9841 46.7971C57.1092 45.2559 46.8378 44.4061 45.6434 45.2624C44.7923 45.5892 44.3252 47.5989 45.5141 47.7074C46.55 47.5602 45.3931 46.2347 46.4374 46.0901C52.0016 45.7451 57.4032 46.8661 62.9084 47.3365C63.4 47.9979 64.9881 48.2192 65.8353 47.9534C64.501 52.8731 67.3815 56.2201 71.6976 57.2226C78.3808 58.7584 84.1952 52.7776 82.4476 46.5568C84.4722 45.5492 86.8009 45.5924 89.0063 46.1232C85.321 59.6916 107.165 59.0828 103.753 44.8094C106.024 45.9392 106.517 44.1231 105.326 43.8951Z" fill="black"/>
</svg>
