<svg width="141" height="209" viewBox="0 0 141 209" fill="none" xmlns="http://www.w3.org/2000/svg">
<path fill-rule="evenodd" clip-rule="evenodd" d="M72.4395 206.288C58.2999 206.288 44.2363 205.593 30.6243 204.221L30.6182 204.194L29.8954 204.107C27.8385 203.851 25.7357 203.648 23.7022 203.453C18.3378 202.937 12.7903 202.404 7.61617 200.82L6.70208 200.54L6.61255 200.769C6.47799 200.699 6.33672 200.627 6.18652 200.557C7.00059 187.257 8.35858 174.203 9.58493 163.151L9.63528 162.698L9.33505 162.356C7.60122 160.381 6.96244 158.726 7.38451 157.299C10.842 150.08 11.575 140.869 12.2839 131.961C13.7534 113.497 15.1413 96.058 39.1116 95.3031L39.1499 95.3013L39.4027 95.2838C44.4014 94.9412 49.5703 94.5867 54.1876 92.2876L54.7257 92.0199L54.7577 91.4195C54.7965 90.6951 55.6881 89.8334 56.4044 89.1412C56.651 88.903 56.8836 88.6779 57.093 88.4525L57.1368 88.4053L57.1744 88.3532C58.255 86.8509 59.5242 85.9544 60.5694 85.9544C62.0917 85.9544 62.8293 87.8656 63.1334 89.0049L63.6131 90.801L64.8826 89.4431C67.8656 86.2535 69.2927 82.7458 69.1325 79.0051L69.2408 78.9714L69.1019 78.0778C68.8398 76.5269 69.0141 75.3764 69.6204 74.6588C70.3302 73.8186 71.722 73.4102 73.8755 73.4102C75.2984 73.4102 76.8468 73.5896 78.2131 73.748C78.6597 73.7997 79.0902 73.8496 79.4968 73.8914C82.2317 74.1795 85.0276 74.698 87.7312 75.1993L88.1106 75.2697L87.8539 75.9692L88.5107 76.4234C89.386 77.0287 90.0378 78.243 90.2992 79.7547L90.3109 79.823L90.3318 79.8893C90.7206 81.122 90.868 82.4986 91.0242 83.9559C91.2868 86.4081 91.5582 88.9434 93.0255 91.1261L93.9071 92.4373L94.7523 91.1022C95.1645 90.4508 95.7174 90.1339 96.4423 90.1339C98.3976 90.1339 100.786 92.297 101.21 93.9736L101.346 94.5121L101.871 94.6945C105.471 95.9486 108.438 96.8639 111.055 97.6714C117.627 99.6989 120.926 100.717 123.043 103.7C125.22 106.768 126.322 112.124 128.155 122.78C130.161 134.328 131.502 146.197 132.798 157.676C134.425 172.093 136.108 186.996 139.128 201.452C138.918 201.669 138.759 201.884 138.65 202.098C137.317 202.216 135.961 202.322 134.642 202.426C132.447 202.599 130.177 202.778 127.959 203.011L127.466 203.062L127.357 203.232C127.155 203.249 126.955 203.269 126.759 203.289C126.447 203.32 126.145 203.35 125.85 203.368L125.761 203.189L125.045 203.269C107.231 205.273 89.5322 206.288 72.4395 206.288Z" fill="#FAE3DD"/>
<path fill-rule="evenodd" clip-rule="evenodd" d="M60.5694 85.9543C62.0917 85.9543 62.8293 87.8656 63.1334 89.0049L63.6131 90.801L64.354 90.0084L63.0057 92.3684L73.502 102.006L73.9039 102.289C78.1935 105.295 81.1138 106.798 82.6649 106.798C84.2641 106.798 89.0236 102.879 96.9435 95.041L92.667 92.3684L93.0525 91.1665L93.9071 92.4373L94.7523 91.1022C95.1645 90.4508 95.7174 90.1339 96.4423 90.1339C98.3976 90.1339 100.786 92.297 101.21 93.9736L101.346 94.512L102.3 94.8433C105.14 95.8253 107.582 96.5963 109.771 97.2746L112.571 98.1402C118.148 99.8743 121.095 100.955 123.043 103.7C125.177 106.707 126.278 111.911 128.046 122.147L128.155 122.78C130.07 133.803 131.378 145.119 132.62 156.108L133.104 160.385C134.641 173.954 136.297 187.899 139.128 201.452C138.918 201.669 138.759 201.884 138.65 202.098C137.761 202.176 136.862 202.25 135.971 202.321L133.438 202.521C131.623 202.666 129.773 202.82 127.959 203.011L127.466 203.062L127.357 203.232C127.222 203.243 127.089 203.256 126.956 203.269L126.759 203.289C126.447 203.32 126.145 203.35 125.85 203.368L125.761 203.189L125.045 203.269C107.231 205.272 89.5322 206.288 72.4395 206.288C58.2999 206.288 44.2363 205.593 30.6243 204.221L30.6182 204.194L29.8954 204.107C28.2499 203.902 26.575 203.731 24.9297 203.571L22.5501 203.342C17.5472 202.856 12.4208 202.291 7.61617 200.82L6.70208 200.54L6.61255 200.769C6.47799 200.699 6.33672 200.627 6.18652 200.557L6.24222 199.661C7.06156 186.671 8.38614 173.954 9.58493 163.151L9.63528 162.698L9.33505 162.356C7.60122 160.381 6.96244 158.726 7.38451 157.299C10.842 150.08 11.575 140.869 12.2839 131.961L12.3721 130.855C13.8032 112.991 15.5839 96.3851 38.3992 95.3307L39.1499 95.3013L40.2865 95.2228C45.0076 94.8927 49.8419 94.4514 54.1876 92.2876L54.7257 92.0199L54.7577 91.4195C54.7923 90.7738 55.5043 90.0191 56.1659 89.3726L56.6121 88.9399C56.782 88.7743 56.9435 88.6135 57.093 88.4525L57.1368 88.4052L57.1744 88.3532C58.255 86.8509 59.5242 85.9543 60.5694 85.9543Z" fill="#4E4E56"/>
<path fill-rule="evenodd" clip-rule="evenodd" d="M42.0255 134.911C42.066 134.84 42.2018 134.865 42.1908 134.956C41.6001 138.879 40.1674 142.68 39.2954 146.553L39.3219 146.626C39.7669 147.9 40.7898 152.495 38.2882 151.217L38.0882 152.265C34.8341 169.377 32.2076 186.671 32.5739 204.14C32.6276 205.53 31.9002 209.649 29.9349 207.631C28.4913 205.209 29.127 202.238 29.0132 199.549C29.2614 184.784 30.7646 169.906 34.6246 155.622L34.7841 155.128C37.3376 147.275 37.3279 149.791 36.1281 141.022C36.0991 140.213 35.5144 138.454 36.2842 137.969C36.9777 138.406 37.2076 139.692 37.459 140.454L37.4762 140.505C37.8494 141.595 38.1823 142.693 38.5121 143.797C39.6082 140.835 40.4891 137.679 42.0255 134.911ZM82.823 202.614C84.2404 202.195 85.5166 203.809 85.0215 205.13C84.701 206.508 82.0235 207.363 81.9216 205.442C81.1893 204.659 81.427 203.218 82.4272 202.783C82.4171 202.781 82.7305 202.655 82.823 202.614ZM117.163 124.456C117.216 124.274 117.367 124.44 117.327 124.555C117.643 126.158 117.386 127.921 117.458 129.586C117.661 129.109 117.923 128.654 118.264 128.226C118.559 127.857 119.095 128.385 118.788 128.751C118.025 129.659 117.691 130.754 117.546 131.892C118.665 155.653 121.962 179.373 127.618 202.482C128.844 205.669 123.9 206.96 124.442 203.49C120.701 187.281 117.717 170.731 117.05 154.069C116.15 146.757 116.505 139.139 116.628 131.732C116.633 129.319 116.866 126.846 117.163 124.456ZM66.8172 75.989C68.2064 76.0992 69.0117 78.4064 69.2888 79.6721C70.3044 84.633 67.5738 89.7961 63.98 93.0496C69.2864 97.8321 75.0486 102.094 81.2673 105.624C82.1132 104.665 83.6074 104.803 84.6485 105.381C88.0156 102.194 91.4268 99.0757 94.7049 95.8003C89.6086 92.5755 89.1829 85.9359 90.2031 80.5337L90.2344 80.3704C90.3116 79.9067 90.9574 80.0751 90.994 80.4734L91.0169 80.7299C91.3228 84.2432 91.3501 88.0363 93.3032 91.1062C95.5253 87.5954 100.851 91.1882 101.632 94.2762C123.965 102.055 124.174 97.4702 128.594 123.161C133.063 149.426 134.327 176.141 139.561 202.286C139.626 203.027 138.953 203.634 138.283 203.734C135.722 204.075 135.643 197.154 135.052 195.221C133.793 188.005 132.841 180.739 132.021 173.461C129.503 151.902 128.642 130.016 123.767 108.809C123.276 107.025 122.578 105.26 121.344 103.853C116.2 98.2529 107.278 99.4772 101.702 94.4867C102.242 96.1498 102.286 97.9882 102.179 99.7254C101.569 108.984 101.201 118.26 100.546 127.515C100.47 128.554 99.2124 128.896 98.6236 128.036C93.9582 121.224 89.1698 114.515 84.622 107.62C83.8893 107.968 83.1075 108.126 82.2683 107.96C80.9377 109.64 81.5125 114.037 81.0781 116.342L80.9169 118.106C78.4323 145.443 76.6087 172.849 76.7439 200.314L76.7489 201.2C76.7477 202.043 76.8123 202.916 76.7494 203.756C76.1813 206.486 73.495 205.509 73.6458 203.075C73.5262 172.302 74.7972 141.33 79.8729 110.941C75.2907 116.719 70.7139 122.501 66.1297 128.277C65.7868 128.713 65.1349 128.521 64.8627 128.118L64.8455 128.091L64.9582 128.394C64.6826 128.305 64.4418 128.138 64.1919 127.993C61.8872 122.331 60.3957 116.393 58.585 110.569C57.0738 104.857 54.808 99.2549 53.9732 93.4022L53.9354 93.3864C51.6676 94.5269 49.1551 95.2589 46.616 95.3024C43.7445 96.0424 40.7243 96.3914 37.8599 96.7675C17.0369 97.6588 12.9201 118.342 13.1105 135.486L13.0744 136.304C12.8568 141.403 12.7541 146.59 11.4906 151.549C11.0242 152.485 9.54853 158.503 8.06423 156.365C6.8128 158.039 7.20462 159.013 8.87246 160.047C11.7855 162.549 14.628 166.532 15.1886 170.637C15.2929 171.395 14.2058 172.06 13.8193 171.215L13.6263 170.794C12.4976 168.343 11.3042 165.945 9.6922 163.815C9.62088 163.935 9.52378 164.035 9.40761 164.102C9.02025 174.26 8.23591 184.4 7.53458 194.54C7.1511 195.993 7.87388 205.217 4.93475 202.938L4.84456 202.866C4.17325 201.444 4.57717 199.725 4.71438 198.207L5.12743 193.346C6.01952 183.423 6.7499 173.481 7.98243 163.593L7.88566 163.481C6.46817 161.838 5.14381 159.669 5.84182 157.477C6.19962 156.158 7.38593 155.502 8.18848 154.495C12.5427 131.519 5.02019 95.9451 38.5014 94.8279L39.903 94.7309C44.4163 94.4106 49.0644 93.9543 53.1503 91.92C53.2272 90.4855 54.8651 89.2701 55.7596 88.3063C58.5151 84.4762 62.2141 84.2842 63.5516 89.2945C67.1085 85.4684 68.5452 81.0258 66.8172 75.989ZM81.8072 187.305C83.541 185.633 85.864 188.679 82.7201 190.83C82.1497 191.876 80.5907 191.138 80.8558 190.044L80.8525 189.86C80.8294 188.907 80.7355 187.731 81.8072 187.305ZM81.9918 164.992C85.1573 163.972 84.3685 169.74 82.2802 170.526C81.0182 171.153 80.5857 169.584 80.8161 168.627C79.9964 167.381 80.7472 165.741 81.9918 164.992ZM81.9406 148.419C81.3567 145.948 84.902 145.536 84.9224 148.118C85.0369 149.203 84.0474 149.909 83.7973 150.853C83.7446 151.467 82.9913 151.9 82.5093 151.387C81.705 150.531 81.5321 149.369 81.9406 148.419ZM81.4957 126.461C81.8569 123.568 85.1297 124.788 83.974 125.27C83.9506 125.295 83.9264 125.319 83.9008 125.344C85.2225 125.473 85.1299 127.025 84.9828 128.019C84.4641 130.243 81.1042 128.219 81.4957 126.461ZM61.3688 117.26C61.6377 118.233 61.9086 119.205 62.1858 120.176C62.8998 122.677 63.7482 125.111 64.6429 127.542C63.5482 124.115 62.4573 120.688 61.3688 117.26ZM63.1777 89.7154C60.0443 84.4517 58.3534 90.3859 56.081 92.7183C57.6865 104.201 62.5449 114.927 65.8518 125.995C70.459 120.104 75.0712 114.217 79.6796 108.327C79.9553 107.974 80.2208 107.603 80.4959 107.241C74.7108 103.897 69.2562 99.9428 64.6646 95.0372C63.7814 95.2261 63.1042 94.045 62.4702 93.5535L62.4037 93.4988C61.8173 93.0045 61.2738 92.2246 61.6429 91.4557C61.5939 91.3516 61.6683 91.2556 61.7695 91.224C62.2281 90.7204 62.7144 90.2349 63.1777 89.7154ZM99.7231 100.745C100.029 96.9882 99.4096 91.6023 94.3597 92.4593C95.259 93.6917 96.9499 93.8907 97.8404 95.0739C98.1664 95.6156 97.7663 96.2866 97.1738 96.3894C93.2541 99.9406 89.5486 103.578 85.5466 107.075C89.9937 112.834 94.2631 118.703 98.5878 124.552C98.8865 116.613 99.4117 108.682 99.7231 100.745Z" fill="black"/>
<path fill-rule="evenodd" clip-rule="evenodd" d="M112.688 73.0395C112.008 72.0317 110.371 64.7182 109.325 63.5933C109.404 59.2729 110.596 44.3146 107.193 37.5905C107.909 36.8648 109.811 30.6147 109.325 28.2519C110.929 23.3037 100.63 15.4446 96.7106 13.3209C78.4946 3.52852 52.0984 14.3376 43.8142 32.4779C38.836 43.4026 38.7442 55.6341 38.1814 67.3892C38.1149 69.9054 37.8842 72.4412 37.8868 74.9543C38.2467 77.1627 39.9934 79.4116 38.6693 81.2479C37.2066 82.2621 34.2505 84.7328 35.5667 86.1339C36.3381 86.7778 37.5702 86.4043 38.4073 87.0233C38.8334 87.2624 39.0992 87.7861 39.5976 87.8658C44.15 87.6925 47.3624 87.6777 51.9289 87.4927C53.928 87.4271 56.972 88.2747 59.2666 86.5872C67.2817 91.0564 63.9291 84.5724 65.5498 79.956C70.4853 81.629 80.3169 86.9638 85.5777 87.1361C89.8528 87.6658 93.8504 85.1699 98.0533 85.7381C103.275 87.6827 109.394 88.1151 114.177 84.8249C115.37 83.9631 116.698 84.9614 118.202 84.0308C121.126 82.629 114.163 74.5945 112.688 73.0395Z" fill="#FAE3DD"/>
<path fill-rule="evenodd" clip-rule="evenodd" d="M43.8142 32.4779C52.0984 14.3376 78.4946 3.52852 96.7106 13.3209C100.63 15.4446 110.929 23.3037 109.325 28.2519C109.692 30.0381 108.695 34.0459 107.877 36.209C104.079 39.0231 92.9882 38.439 74.6059 34.4569L73.9002 34.3032L67.623 38.032L65.0446 47.7453C63.3134 49.4624 61.9145 51.5589 60.8479 54.0346C60.8479 54.0346 58.2527 51.177 54.4054 51.5417C51.9037 52.6092 50.0616 53.7723 48.8791 55.0311C47.7202 56.2647 47.697 59.0304 48.8096 63.3283L48.8791 63.5933L54.4054 65.3183H56.9698L64.0156 73.9506L65.0445 82.8306C64.8129 86.718 65.6879 90.1677 59.2666 86.5872C56.972 88.2747 53.928 87.4271 51.9289 87.4927C47.3624 87.6777 44.15 87.6925 39.5976 87.8658C39.0992 87.7861 38.8334 87.2624 38.4073 87.0233C37.5702 86.4043 36.3381 86.7778 35.5667 86.1339C34.2505 84.7328 37.2066 82.2621 38.6693 81.2479C39.9934 79.4116 38.2467 77.1627 37.8868 74.9543C37.8842 72.4412 38.1149 69.9054 38.1814 67.3892L38.2309 66.33C38.7541 54.9014 38.9853 43.0748 43.8142 32.4779ZM107.79 67.65L109.394 61.557L109.359 62.4735C109.343 62.8995 109.331 63.2752 109.326 63.5934C110.371 64.7182 112.008 72.0317 112.688 73.0395L112.835 73.1966C114.572 75.0706 121.039 82.6711 118.202 84.0308C116.698 84.9614 115.37 83.9631 114.177 84.8249C109.394 88.1151 103.275 87.6827 98.0534 85.7381C97.4413 85.6553 96.8335 85.6376 96.2286 85.666L95.9793 84.8835L101.693 79.956L107.79 67.65Z" fill="#F2DEC5"/>
<path fill-rule="evenodd" clip-rule="evenodd" d="M106.719 37.0167C106.654 36.6435 107.167 36.3651 107.365 36.7433C108.807 39.4908 109.384 42.6727 109.895 45.7075C110.41 48.7742 110.751 51.8536 110.77 54.9668C110.784 57.3615 110.568 59.7838 110.16 62.1802L110.21 62.3508C110.301 62.664 110.394 62.977 110.487 63.2898L110.628 63.7588C110.9 64.6593 111.157 65.564 111.437 66.4622C112.02 68.337 112.634 70.2172 113.386 72.0314C114.12 73.8019 115.013 75.5092 116.074 77.105C117.096 78.6433 118.719 79.9441 119.439 81.6526C119.691 82.248 119.319 83.035 118.626 82.94C118.581 82.9945 118.512 83.034 118.419 83.0423C117.88 83.0894 117.375 83.0445 116.838 82.994C116.538 82.9658 116.539 82.5547 116.838 82.5265C117.066 82.505 117.289 82.4861 117.511 82.4732C115.974 81.5605 114.878 79.7782 114.001 78.3191C112.875 76.4445 112.024 74.3962 111.331 72.3249C110.619 70.1982 110.114 68.0272 109.709 65.8229C109.663 65.5691 109.618 65.3152 109.576 65.0609C109.064 67.2431 108.404 69.3854 107.623 71.4443L107.513 71.7309C105.712 76.4129 103.272 81.1399 99.2135 84.2345C99.0293 84.3748 98.8412 84.5081 98.6515 84.6384L98.8824 84.7711C99.1122 84.9026 99.3385 85.0288 99.5599 85.1323C100.38 85.5159 101.27 85.8083 102.151 86.0155C103.97 86.4437 105.88 86.321 107.735 86.3806C108.344 86.4002 108.69 87.315 108.068 87.6121C106.018 88.5905 103.805 88.3828 101.689 87.6944C100.643 87.3535 99.6602 86.8764 98.7515 86.2536C98.3758 85.9962 97.9395 85.6785 97.5711 85.3113C93.5124 87.5879 88.4679 87.8426 83.9505 87.0284C81.6029 86.6052 79.3281 85.8324 77.3266 84.5105C75.4015 83.2393 74.0292 81.6298 73.0495 79.5445C72.9625 79.3597 73.2041 79.1295 73.3525 79.3102C76.4299 83.0572 81.7259 84.6207 86.3849 84.9181C88.8709 85.077 91.4139 84.9449 93.804 84.1993C96.0713 83.4917 98.0167 82.1947 99.641 80.4698C102.933 76.9735 104.906 72.2171 106.323 67.6906C107.865 62.7663 108.599 57.5853 108.75 52.4318C108.827 49.8208 108.73 47.1879 108.321 44.6058C107.915 42.045 107.162 39.5666 106.719 37.0167ZM60.5791 14.8337C60.797 14.7226 60.9505 15.0116 60.7657 15.1538C56.9282 18.1041 53.4915 21.8451 50.7099 25.8046C45.5801 33.1073 42.2903 41.5579 40.7753 50.3389C39.8808 55.5246 39.6472 60.7888 39.7366 66.0435C39.772 68.1309 39.8909 70.2119 40.0232 72.2936L40.1725 74.6011C40.2419 75.6762 40.2998 76.7421 40.255 77.8224L40.2428 78.072C40.1718 79.329 40.2951 80.5963 39.9806 81.8226C39.8192 82.4515 38.9345 82.5505 38.6142 82.0016C38.5514 81.8941 38.4928 81.7832 38.4358 81.6713C37.685 82.8988 36.7127 83.9962 35.6338 84.9765C36.1495 84.8664 36.6702 84.7963 37.2047 84.8604C38.052 84.9622 38.8121 85.2902 39.3499 85.8651C39.8837 85.6239 40.4327 85.4579 41.0639 85.4544C41.5288 85.452 41.8775 86.003 41.6122 86.4124C41.083 87.2293 40.3445 87.6873 39.5054 88.14C38.9107 88.4609 38.201 88.1865 37.9814 87.552L37.9689 87.5135C37.7217 86.711 36.4074 86.8406 35.7873 86.9647L35.6048 87.0021C34.4505 87.2429 33.3234 87.5511 32.1474 87.2333C31.3889 87.0282 31.1907 85.8835 31.9219 85.5036C34.2319 84.3036 36.1711 82.6917 38.164 81.0732C37.724 79.9916 37.4741 78.7832 37.186 77.6834C36.7804 76.1355 36.6619 74.4699 36.5155 72.8798C36.2371 69.8566 36.131 66.8005 36.1608 63.7654C36.2618 53.5141 38.0107 43.231 42.4779 33.9482C44.4349 29.8817 47.0059 26.1189 50.0449 22.7883C53.0659 19.4772 56.5943 16.8627 60.5791 14.8337ZM57.0026 65.0369C56.8841 64.8722 57.1154 64.6544 57.2777 64.7611C60.79 67.074 63.2274 70.586 64.8001 74.4441C66.3569 78.2636 67.3128 82.9421 65.7774 86.9252C65.5331 87.5595 64.3626 87.7951 64.2428 86.9252C63.7075 83.0404 63.6244 79.1502 62.4474 75.3735C61.2806 71.6295 59.2841 68.2011 57.0026 65.0369ZM54.2787 77.6484C54.2979 77.5798 54.4097 77.5917 54.4049 77.6656C54.3169 79.0355 54.2572 80.422 54.0854 81.7843C54.0019 82.4464 53.8914 83.1042 53.7974 83.7647C53.7011 84.4421 53.7156 85.126 53.3228 85.7045C52.8021 86.4714 51.4189 86.2557 51.4653 85.2002C51.4974 84.4721 51.8311 84.0049 52.1438 83.3658C52.3443 82.9561 52.5191 82.5326 52.6875 82.1072L52.9379 81.469C53.4356 80.2035 53.9118 78.9593 54.2787 77.6484ZM47.9898 74.0197C48.0111 73.9119 48.1845 73.9378 48.1793 74.0453C48.0855 75.9842 47.8674 77.9013 47.5258 79.8118C47.37 80.6827 47.1884 81.5487 46.9963 82.4122L46.9134 82.7821C46.708 83.6916 46.5754 84.7608 46.1151 85.5732C45.6552 86.3852 44.5631 85.7955 44.7046 84.977C44.8699 84.0215 45.4549 83.0603 45.7949 82.1426C46.1088 81.2953 46.3831 80.4332 46.6395 79.5669C47.1792 77.7433 47.6218 75.8855 47.9898 74.0197ZM59.7023 79.4025L59.7432 79.3604C59.903 79.1863 60.1414 79.3023 60.2177 79.4861C60.5302 80.2393 60.3738 81.1274 60.3515 81.927L60.3474 82.1014C60.3307 82.9114 60.3423 83.6701 59.9759 84.4178C59.5311 85.3257 58.3589 84.7618 58.2682 83.9541C58.1691 83.0727 58.585 82.2098 58.8535 81.3843C59.0242 80.8596 59.1485 80.3139 59.408 79.8377C59.186 79.876 58.9645 79.9529 58.7616 80.0084C58.6707 80.033 58.6364 79.8992 58.7232 79.8683C59.0586 79.7492 59.4373 79.6598 59.7023 79.4025ZM106.46 82.0753C106.353 81.9552 106.486 81.7951 106.626 81.8601C108.296 82.6422 109.858 83.1509 111.701 83.3175C112.5 83.3897 112.505 84.6475 111.701 84.5746C109.778 84.4009 107.762 83.5363 106.46 82.0753ZM47.6951 55.6523C49.1656 52.3361 53.8178 49.3943 56.9374 52.4783C56.9959 52.5359 56.9364 52.6615 56.8515 52.6263C54.9111 51.8201 52.5356 52.8455 51.1926 54.312C50.1272 55.4752 49.487 56.9688 49.3599 58.5431C49.2328 60.1188 49.6086 61.7634 50.6524 62.9821C51.2 63.6215 51.9395 64.2267 52.8096 64.3035C53.6882 64.381 54.4204 63.7607 55.251 63.5923C55.8771 63.4654 56.3497 63.8593 56.4111 64.478C56.5464 65.8436 55.1903 66.7601 54.0147 66.9827C52.7501 67.222 51.4595 66.9605 50.3698 66.2735C46.8505 64.0547 46.0913 59.2693 47.6951 55.6523ZM80.715 23.1485C81.3544 22.5358 82.4422 23.1449 82.2062 24.019C81.7045 25.8792 80.638 27.4514 79.4564 28.9436C78.3196 30.3793 77.1016 31.759 75.7962 33.0431C74.4994 34.3187 73.0905 35.4991 71.6096 36.5535L71.1637 36.8702C70.1142 37.6119 69.0025 38.362 67.8277 38.8961C67.5441 41.346 66.9892 43.7632 66.1495 46.0774C65.341 48.3059 64.312 50.4595 63.0653 52.4749L62.8863 52.7636C61.7406 54.6043 60.363 56.6614 58.4189 57.6704C58.3606 57.7008 58.3021 57.7194 58.2445 57.7302C58.6794 58.0209 59.0469 58.3866 59.2654 58.912C59.5048 59.4873 59.0044 60.03 58.5247 60.22C57.5103 60.6218 56.5208 59.9416 55.609 59.2161C55.5704 59.3031 55.5341 59.391 55.5029 59.4795C55.299 60.0589 55.2389 60.651 54.7132 61.0354C54.4633 61.2182 54.1555 61.0547 53.9982 60.8477C53.4827 60.1686 54.0164 59.2435 54.4696 58.6885C54.5324 58.6118 54.5972 58.5389 54.6639 58.469C54.4724 58.3278 54.2855 58.2027 54.1044 58.1066C53.0396 57.5413 51.4612 57.4411 50.8481 58.6925C50.8011 58.7886 50.6534 58.7389 50.6534 58.6395C50.655 57.1024 52.2257 56.2675 53.5887 56.1541C54.5845 56.0712 55.5477 56.4213 56.4441 56.829L56.6114 56.906C56.9449 57.0613 57.2886 57.2078 57.6175 57.3716C57.564 57.2301 57.5649 57.0637 57.6491 56.8986C58.6799 54.8805 60.45 53.2393 61.7266 51.3702C62.9926 49.5159 64.0795 47.5314 64.947 45.4592C65.7891 43.4479 66.4488 41.3735 66.9101 39.2577C66.7582 39.2891 66.5868 39.1535 66.5976 38.9945C66.6234 38.6097 66.8111 38.2631 67.1409 38.1154C67.5041 36.1253 67.6895 34.1014 67.6787 32.0613C67.6779 31.9031 67.9065 31.9088 67.9198 32.0613C68.0804 33.8752 68.0934 35.7068 67.9584 37.5278C68.8162 36.7366 69.7208 35.9845 70.5467 35.1723C71.7895 33.9503 72.9919 32.6956 74.1516 31.3944C75.3349 30.0668 76.4534 28.6904 77.4762 27.2341L78.0114 26.4703C78.8344 25.2995 79.6797 24.1409 80.715 23.1485ZM79.1004 10.0781C86.1583 9.63642 93.696 10.506 100.036 13.8273C103.517 15.6512 106.209 18.408 108.132 21.8387C109.28 23.8873 110.151 26.1558 110.481 28.4881C110.82 30.8845 110.422 33.0213 108.895 34.9261C108.289 35.6826 107.268 34.8376 107.418 34.0636C108.331 29.3282 106.849 24.6496 104.221 20.7293C100.407 15.0404 93.7457 12.5133 87.2605 11.3861C84.0742 10.8325 80.8424 10.6011 77.6098 10.7137C75.1453 10.7996 72.6172 11.0298 70.2784 11.8611C70.1798 11.8961 70.1405 11.7421 70.2355 11.7058C73.0253 10.6377 76.1396 10.2634 79.1004 10.0781ZM89.5686 20.7858C89.932 20.5549 90.3765 20.7918 90.5013 21.1664C90.9417 22.4871 90.0187 24.232 89.4014 25.3749C88.7027 26.6683 87.8043 27.8775 86.8765 29.0134C85.0205 31.2852 82.581 33.1808 79.904 34.3722C79.7401 34.4453 79.549 34.2469 79.6994 34.1066C81.7707 32.173 83.6487 30.1 85.2744 27.7744C86.0732 26.6316 86.7395 25.4261 87.3757 24.1878C87.9451 23.0796 88.4805 21.4773 89.5686 20.7858ZM101.438 22.3416C101.671 21.5288 102.993 21.6672 102.938 22.5452C102.797 24.8133 101.73 27.0901 100.57 29.0123C99.3756 30.9917 97.8632 32.7556 96.1296 34.2789C96.0442 34.3541 95.9272 34.2384 96.0046 34.1536C97.5003 32.5121 98.7085 30.6423 99.6032 28.6075C100.497 26.5755 100.834 24.4554 101.438 22.3416ZM94.865 21.9744C95.118 21.2676 96.3287 21.3201 96.2545 22.163C96.0504 24.4801 94.6939 26.9085 93.4375 28.8223C92.1044 30.8529 90.4027 32.6417 88.5008 34.1441C88.4296 34.2004 88.329 34.1072 88.3984 34.0415C90.1067 32.428 91.492 30.5642 92.5887 28.4854C93.1484 27.4246 93.6179 26.32 93.9887 25.179C94.3317 24.1234 94.4927 23.0148 94.865 21.9744Z" fill="black"/>
<path fill-rule="evenodd" clip-rule="evenodd" d="M91.1832 73.3974C90.0279 72.926 88.9972 72.1395 88.2436 71.1349C87.9816 70.7857 87.9136 70.4169 87.9686 70.0796C88.0304 69.7003 88.2547 69.3565 88.5606 69.1259C88.8675 68.8946 89.2513 68.7806 89.6224 68.8387C89.9448 68.8892 90.2658 69.0659 90.5198 69.4322L90.5729 69.5054C91.0209 70.1118 91.6047 70.6093 92.27 70.9299C92.9111 71.239 93.6282 71.3833 94.3703 71.2994C95.7835 71.1397 96.7577 70.3751 97.793 69.3367C97.9214 69.2056 98.0498 69.0704 98.1788 68.933C98.2603 68.8085 98.3734 68.7285 98.499 68.6865C98.6384 68.6398 98.7961 68.6425 98.9406 68.6929C99.0799 68.7415 99.2044 68.8337 99.2879 68.9564C99.3673 69.073 99.4123 69.217 99.3977 69.3827C99.3029 70.4588 98.7406 71.4191 97.9418 72.1732C97.0546 73.0107 95.8786 73.5901 94.7714 73.7933C93.5516 74.0171 92.3086 73.8568 91.1832 73.3974ZM95.347 56.7969C96.6448 57.586 98.6221 59.4261 97.226 61.3824C95.5827 63.1074 93.2168 61.1296 92.0509 60.2351C90.9698 59.5419 89.7551 61.3248 90.7581 62.1343C99.183 68.3742 102.602 57.0032 96.0034 55.8691C95.2769 55.7441 95.007 56.5528 95.347 56.7969ZM80.2493 49.5383C80.3927 47.7578 83.1033 47.3535 83.3729 49.1153C83.6144 50.6936 83.3301 52.1434 82.6195 53.5643C81.9405 54.9218 80.2339 54.2885 80.1049 53.0523C79.9319 51.3954 80.1601 50.6458 80.2493 49.5383ZM100.883 48.75C101.261 48.2549 101.807 47.9169 102.46 48.1079C104.503 48.705 103.901 51.6058 103.183 53.0178C102.794 53.7846 101.534 53.979 100.965 53.3039C100.036 52.2029 99.5921 50.0042 100.772 48.9197C100.804 48.8637 100.839 48.8071 100.883 48.75ZM82.5908 41.7475L82.9135 41.6911C83.9115 41.5184 85.1526 41.3524 85.8586 42.1552C86.2331 42.5808 86.362 43.372 85.8586 43.7795C84.9732 44.4964 83.9943 44.2186 82.9333 44.2792C82.0589 44.3294 81.2186 44.4742 80.3763 44.7151C78.5285 45.2434 77.0229 46.2079 75.4448 47.2669C75.2377 47.4058 75.0263 47.1409 75.1252 46.9471C76.0362 45.1621 77.8016 43.6957 79.57 42.8019C80.5138 42.3249 81.5466 41.9291 82.5908 41.7475ZM99.0211 40.9479L99.268 40.9985C101.955 41.5604 105.447 42.6829 106.719 45.3235C106.768 45.6969 106.717 45.777 106.675 45.8292L106.661 45.8466C106.627 45.8913 106.599 45.9528 106.438 46.0037C106.393 45.993 106.347 45.9816 106.302 45.9696C105.718 45.8167 105.257 45.606 104.81 45.3874L104.325 45.1486C103.763 44.8729 103.196 44.6073 102.595 44.4112C101.313 43.9927 99.994 43.6979 98.6545 43.5405C98.3642 43.5065 98.0846 43.4084 97.864 43.2404C97.6547 43.081 97.4948 42.8602 97.4218 42.5667C97.3273 42.187 97.3545 41.8994 97.5582 41.5568C97.7113 41.2995 97.9305 41.1212 98.1821 41.0187C98.4387 40.9143 98.7307 40.8897 99.0211 40.9479Z" fill="black"/>
</svg>
