<svg width="19" height="14" viewBox="0 0 19 14" fill="none" xmlns="http://www.w3.org/2000/svg">
<path d="M17 1.00494C17.0295 1.00494 17.0589 1.00364 17.0883 1.00104L17.0901 1.00093C17.0968 1.00058 17.1122 0.999928 17.1346 1.00001C17.1806 1.00018 17.2484 1.00341 17.3251 1.01573C17.4917 1.04251 17.6179 1.09806 17.6941 1.17021C17.7825 1.25399 17.8725 1.41951 17.9367 1.64334C17.9655 1.744 17.983 1.83474 17.9929 1.89854C17.9961 1.9192 17.9984 1.93638 18 1.94939V4.59332V12.0007C18 12.2476 17.8969 12.4962 17.6941 12.6883C17.4893 12.8822 17.2006 13 16.8889 13H2.11111C1.79942 13 1.51071 12.8822 1.30598 12.6883C1.10307 12.4962 1 12.2476 1 12.0007V1.50441C1 1.39009 1.04747 1.26862 1.15139 1.1702C1.25714 1.07005 1.41161 1.00494 1.58333 1.00494H17Z" stroke="white" stroke-width="2" stroke-linecap="round" stroke-linejoin="round"/>
<mask id="path-2-inside-1" fill="white">
<path d="M18.3455 0.664551L9.49999 7.46715L0.691406 0.664551"/>
</mask>
<path d="M19.5648 2.24994C20.4404 1.57658 20.6043 0.320907 19.9309 -0.554681C19.2576 -1.43027 18.0019 -1.59421 17.1263 -0.920843L19.5648 2.24994ZM9.49999 7.46715L8.27755 9.05007C8.99645 9.60525 9.9992 9.60627 10.7192 9.05254L9.49999 7.46715ZM1.91385 -0.91837C1.03962 -1.59351 -0.216379 -1.43211 -0.891514 -0.55789C-1.56665 0.316333 -1.40526 1.57234 -0.531035 2.24747L1.91385 -0.91837ZM17.1263 -0.920843L8.28076 5.88175L10.7192 9.05254L19.5648 2.24994L17.1263 -0.920843ZM10.7224 5.88423L1.91385 -0.91837L-0.531035 2.24747L8.27755 9.05007L10.7224 5.88423Z" fill="white" mask="url(#path-2-inside-1)"/>
</svg>
