<svg width="96" height="140" viewBox="0 0 96 140" fill="none" xmlns="http://www.w3.org/2000/svg">
<path fill-rule="evenodd" clip-rule="evenodd" d="M92.2331 137.053C94.4873 136.944 93.5807 132.999 93.4189 131.551C91.6342 126.26 92.0537 120.487 91.3518 114.941C90.9145 109.764 90.3526 104.603 89.88 99.4298C88.9518 88.9287 82.2861 67.5514 74.6794 64.1134C73.7212 59.9074 69.7635 55.9811 64.7561 55.9811C61.3409 51.9369 57.2302 49.0907 51.9577 49.6653C49.7788 49.7645 47.6658 52.0763 45.5781 52.5227C44.4091 52.684 34.0351 52.2689 31.957 53.5036C30.5095 54.2471 29.2028 55.6211 29.6284 57.3703C30.3075 59.4896 28.1971 57.1965 23.7948 59.4584C14.8178 64.852 20.182 72.0675 20.4198 72.291C14.8178 80.0883 9.92134 86.4142 7.65583 95.9447C6.18757 103.02 6.35285 110.325 5.12264 117.437C4.68827 119.903 4.02191 122.285 3.30084 124.679C2.51935 127.813 2.13935 135.625 1.7086 135.695C0.923959 135.89 2.16208 137.501 2.99349 137.503C26.0444 141.328 49.4585 137.661 72.6333 137.062C79.1644 136.835 85.7024 136.782 92.2331 137.053Z" fill="#EDBFA7"/>
<path fill-rule="evenodd" clip-rule="evenodd" d="M45.607 59.3886C45.607 61.8428 54.1253 70.962 57.065 70.3604C59.0248 69.9593 61.986 67.3437 65.9483 62.5134V59.3886L65.0926 55.9869C69.9401 56.1579 73.7428 60.0019 74.6794 64.1133C82.2101 67.517 88.8184 88.5029 89.8504 99.1114L89.88 99.4297C90.3526 104.603 90.9145 109.764 91.3518 114.941C92.0537 120.487 91.6342 126.26 93.4189 131.551L93.4294 131.64C93.6157 133.155 94.4422 136.946 92.2331 137.053C85.7024 136.782 79.1644 136.835 72.6333 137.062C49.4585 137.661 26.0444 141.328 2.99349 137.502C2.16208 137.501 0.923959 135.889 1.7086 135.694C2.13935 135.625 2.51935 127.813 3.30084 124.679L3.44918 124.184C4.11272 121.956 4.71823 119.733 5.12264 117.437C6.35285 110.325 6.18757 103.02 7.65583 95.9446C9.92134 86.4141 14.8178 80.0883 20.4198 72.2909C20.182 72.0674 14.8178 64.8519 23.7948 59.4583C28.1971 57.1964 30.3075 59.4895 29.6284 57.3702C29.2028 55.621 30.5095 54.247 31.957 53.5035C34.0351 52.2689 44.4091 52.6839 45.5781 52.5226C46.1211 52.4065 46.6659 52.1642 47.213 51.8674L47.1181 52.1836C46.1107 55.5612 45.607 57.9629 45.607 59.3886Z" fill="#423E3F"/>
<path fill-rule="evenodd" clip-rule="evenodd" d="M57.296 72.9792C57.3068 72.8736 57.4491 72.8739 57.46 72.9792L57.6228 74.5509C57.8208 76.4704 58.0114 78.3861 58.1496 80.3146C58.3219 82.7194 58.4371 85.1236 58.4926 87.5337C58.6863 95.9277 58.7248 104.326 58.7411 112.722C59.8761 112.644 61.0113 112.568 62.147 112.495C62.9175 112.445 63.6881 112.397 64.4588 112.35L66.4238 112.231L67.2328 112.181C67.7795 112.147 68.4007 112.01 68.7829 112.494C68.9359 112.688 69.0127 112.94 68.87 113.17C68.541 113.701 68.0356 113.683 67.4639 113.706C66.9246 113.728 66.3852 113.749 65.8459 113.77C64.6901 113.815 63.5344 113.857 62.3783 113.89C61.165 113.924 59.9523 113.951 58.7395 113.972C58.7272 117.516 58.5806 121.057 58.4221 124.597L58.3503 126.19C58.1564 130.499 57.9477 134.812 57.6513 139.115C57.6269 139.467 57.1288 139.466 57.1046 139.115C56.7708 134.269 56.5506 129.413 56.3322 124.56C56.1738 121.042 56.0817 117.523 56.0378 114.003C55.8775 114.004 55.7172 114.007 55.5569 114.007C51.0048 114.027 46.4538 114.047 41.9017 114.004C41.9093 114.013 41.9168 114.022 41.9218 114.034C42.2512 114.812 42.2826 115.805 42.2745 116.64C42.2653 117.597 42.1364 118.543 41.916 119.474C41.1261 122.81 39.0889 125.798 36.7687 128.268L36.6929 128.348C36.1456 128.927 35.5178 129.508 35.1817 130.245C34.8385 130.997 34.7193 131.877 34.55 132.686L34.5302 132.779L33.8679 135.839C33.6575 136.811 33.5978 138.229 32.8286 138.93C32.1111 139.584 31.1604 139.242 30.8228 138.4C30.559 137.742 30.8217 137.02 30.9779 136.363L32.2016 131.217C32.4027 130.378 32.6224 129.533 33.0563 128.78C33.5008 128.007 34.1525 127.448 34.8175 126.875C36.0766 125.791 37.2325 124.549 38.2101 123.205C39.1873 121.861 40.0224 120.38 40.6081 118.822C40.9013 118.043 41.1416 117.233 41.3073 116.416C41.4649 115.641 41.4635 114.839 41.6321 114.072C41.6436 114.019 41.6883 113.983 41.7395 113.967C41.7273 113.932 41.7459 113.886 41.7937 113.883L45.5166 113.644C48.8259 113.43 52.135 113.211 55.4413 112.961L56.0256 112.919C55.9802 108.223 56.0187 103.526 56.1035 98.828C56.1812 94.52 56.1828 90.2109 56.3109 85.9036C56.3746 83.7658 56.5119 81.633 56.6647 79.4996C56.821 77.3179 57.0711 75.1545 57.296 72.9792ZM22.3401 97.9576C22.3004 97.7184 22.6012 97.5702 22.7399 97.789C24.3252 100.289 25.0895 103.004 25.4117 105.929C25.6963 108.511 25.6124 111.13 25.4707 113.718C25.3195 116.479 25.1432 119.239 24.9648 121.998L24.6908 126.23L24.0033 136.837C23.954 137.596 23.7819 138.286 23.1288 138.639C23.0461 138.708 22.9599 138.77 22.8595 138.824C22.5067 139.012 22.0387 138.917 21.8347 138.555L21.9165 138.609C21.9877 138.653 21.9077 138.591 21.6764 138.421L21.4801 138.167C21.3375 137.952 21.2464 137.741 21.2097 137.486C21.1528 137.09 21.2265 136.656 21.2524 136.258L21.7031 129.302C22.0536 123.894 22.4629 118.488 22.7714 113.078C22.9151 110.556 23.0158 108.032 22.9477 105.506C22.8798 102.994 22.7518 100.439 22.3401 97.9576ZM36.0538 51.3935L36.1417 51.3787C39.2904 50.8555 42.7143 50.9534 45.5919 52.4718C45.6157 52.4843 45.6048 52.5239 45.5781 52.5227L44.6519 52.4857C41.7197 52.3708 38.7966 52.3028 35.9134 52.992L35.6183 53.0631C34.58 53.3165 33.4957 53.6267 32.6617 54.3127C31.8646 54.9684 31.4677 55.98 31.086 56.9113L31.035 57.0342C30.6478 57.9539 30.1577 58.8262 29.3089 59.4013C28.2096 60.1461 26.8875 60.0549 25.6269 60.1561C23.4075 60.3345 21.5929 61.9436 20.6901 63.9127C20.1434 65.1049 19.9103 66.4417 19.8641 67.7456C19.8404 68.4094 19.837 69.0991 19.9254 69.7585C19.9537 69.9694 20.2142 70.7375 20.3471 70.7191C20.6423 70.6781 20.9122 70.8321 21.0042 71.0682C21.7335 70.3634 22.4837 69.6789 23.2581 69.0191C25.1884 67.3746 27.2675 65.8842 29.4571 64.6034C31.1282 63.6258 32.8908 62.6573 34.7161 61.9251C34.5715 61.9221 34.4288 61.9508 34.2909 62.0226C34.2304 62.0542 34.1704 61.9783 34.2181 61.9282C34.793 61.323 35.4816 61.2369 36.1759 61.3983C36.324 61.3512 36.4723 61.3055 36.6211 61.2622C36.6952 61.2407 36.732 61.3428 36.6716 61.3822L36.5011 61.4912C37.2584 61.745 38.002 62.2438 38.5907 62.6375C40.2817 63.7681 41.7702 65.1502 43.279 66.5065L43.5534 66.7523C44.8815 67.9387 46.2435 69.0915 47.7524 70.0432C48.5423 70.5413 49.372 71.0021 50.2422 71.3448C50.9886 71.639 52.2039 71.8242 52.5535 72.6133C52.8642 72.9909 52.7344 73.4728 52.3705 73.727C51.7567 74.4027 50.5289 73.9662 49.7976 73.6847C48.9159 73.3454 48.0618 72.9376 47.2471 72.4593C45.6656 71.5305 44.2074 70.3757 42.849 69.1472C41.4303 67.8641 40.0921 66.5011 38.7122 65.1778C38.1144 64.6044 37.5303 64.0175 36.9315 63.445L36.6308 63.16C36.3252 62.8733 35.8898 62.4264 35.4243 62.1559C34.5472 62.6793 33.6567 63.181 32.7876 63.7179C31.5744 64.4673 30.3969 65.2706 29.2377 66.1005C27.0059 67.6981 24.8909 69.4873 22.9275 71.4052C19.3266 74.9223 16.2587 78.9386 13.5787 83.1914L13.3752 83.5155C11.8522 85.9496 10.412 88.4623 9.39084 91.1519C8.26724 94.1117 7.72078 97.224 7.42393 100.366C7.1293 103.485 7.02992 106.62 6.70065 109.736C6.36297 112.933 5.69766 116.058 4.94089 119.178L4.76041 119.917C4.07566 122.711 3.3689 125.505 3.01691 128.365C2.82901 129.893 2.71598 131.441 2.74153 132.981C2.76719 134.531 3.0105 136.045 3.2068 137.578C3.28204 138.165 2.70443 138.655 2.1876 138.733C1.5932 138.822 1.08255 138.443 0.897792 137.89C0.321822 136.169 0.217196 134.265 0.235275 132.458C0.253471 130.623 0.487568 128.8 0.81696 126.997C1.46478 123.45 2.4645 119.976 3.30082 116.471C4.03787 113.383 4.53254 110.288 4.79918 107.124C5.07596 103.841 5.24171 100.547 5.74665 97.2874C6.24505 94.0697 7.18284 90.9962 8.5971 88.0621C9.88481 85.3907 11.49 82.8762 13.1729 80.439C15.2166 77.4795 17.4611 74.6633 19.97 72.0974C19.7446 72.0875 19.5132 72.0147 19.3007 71.8822C18.6506 71.4765 18.3478 70.6829 18.2547 69.9583C18.0368 68.2632 18.0894 66.4935 18.5252 64.8362C19.2282 62.1627 21.0527 59.7872 23.6969 58.8235C24.3775 58.5754 25.101 58.4849 25.8223 58.467C26.5068 58.45 27.2543 58.5393 27.9147 58.3222C28.9659 57.9766 29.4165 56.738 29.8112 55.7992L29.8294 55.7561C30.3355 54.5597 30.9429 53.5343 32.0391 52.7872C33.2086 51.9901 34.6739 51.6276 36.0538 51.3935ZM65.9715 56.1249C66.9177 55.7965 68.1006 56.0945 69.0259 56.3814C70.0568 56.7011 71.0094 57.2899 71.8261 57.9892C72.6877 58.7266 73.3998 59.6372 73.9029 60.6545L73.951 60.7525C74.4105 61.6961 74.9338 62.9916 74.7021 64.0283C74.6955 64.0577 74.6879 64.086 74.6793 64.1134C76.5566 65.0379 78.2903 66.1959 79.8001 67.6636C81.5581 69.3725 83.0467 71.317 84.3064 73.4178C89.3095 81.7618 90.1901 91.7827 90.781 101.298L90.9284 103.711C91.2492 108.921 91.6247 114.119 92.6001 119.257L92.6713 119.627C93.7139 125.007 95.2063 130.428 95.0551 135.946C95.0098 137.6 92.5671 137.588 92.4963 135.946C92.2296 129.765 90.7877 123.797 89.8113 117.712C88.0933 107.007 88.9542 95.9712 86.5199 85.3736C85.5646 81.2147 84.0848 77.1805 81.9716 73.4681C80.9278 71.6342 79.7335 69.8621 78.3345 68.2799C77.1309 66.9186 75.8799 65.6084 74.4734 64.464C74.0238 64.9144 73.1258 64.6848 72.8912 64.0283C72.73 63.577 72.777 63.0495 72.6735 62.5768C72.5775 62.1382 72.4451 61.7033 72.2688 61.2902C71.9172 60.467 71.4012 59.6765 70.8055 59.0102C70.162 58.29 69.4224 57.6916 68.5948 57.1976C67.7616 56.7001 66.8502 56.5516 65.9715 56.1881C65.9418 56.1759 65.939 56.1362 65.9715 56.1249ZM69.6476 113.335C69.649 113.292 69.7002 113.271 69.7317 113.301C70.0635 113.606 70.264 114.044 70.5081 114.42C70.7897 114.853 71.0854 115.277 71.3954 115.69C72.0166 116.519 72.7082 117.299 73.4052 118.064C74.0535 118.775 74.7445 119.456 75.4612 120.098C76.2378 120.794 77.1081 121.414 77.8136 122.185C79.2858 123.792 79.5237 125.998 79.8343 128.07L79.8684 128.294C80.0578 129.523 80.2275 130.756 80.3805 131.99C80.4549 132.591 80.5291 133.192 80.5898 133.794L80.6083 133.985C80.6624 134.574 80.677 135.172 80.3387 135.687C79.9765 136.238 79.1531 136.431 78.6636 135.902C77.8225 134.995 77.9802 133.383 77.8708 132.216C77.7804 131.25 77.6779 130.286 77.5631 129.323L77.5047 128.842C77.3693 127.747 77.2595 126.63 77.009 125.554C76.7882 124.606 76.3675 123.891 75.6772 123.204C74.9818 122.513 74.2593 121.867 73.6174 121.122C72.9365 120.332 72.3224 119.485 71.7691 118.601C71.2958 117.845 70.9164 117.022 70.5689 116.2L70.5112 116.063C70.1753 115.262 69.6214 114.218 69.6476 113.335ZM81.7914 78.9078C81.7988 78.796 81.9639 78.7943 81.9664 78.9078C81.9873 79.8693 82.0073 80.8308 82.0273 81.7924C82.1878 89.5406 82.0889 97.3071 82.8659 105.029C83.2324 108.669 83.9073 112.257 84.6882 115.829C85.0878 117.657 85.507 119.48 85.9053 121.308C86.2935 123.09 86.7098 124.88 87.0178 126.679C87.3203 128.446 87.5913 130.227 87.713 132.017L87.728 132.251C87.7803 133.118 88.0303 134.393 87.553 135.162C87.0358 135.994 86.0457 136.009 85.4915 135.214C84.9712 134.468 85.1005 133.141 85.0086 132.251C84.9152 131.344 84.8164 130.436 84.7042 129.531C84.4853 127.766 84.1968 126.005 83.8968 124.252C83.2719 120.601 82.3657 116.996 81.6967 113.351C81.0111 109.616 80.5238 105.854 80.5033 102.051C80.4828 98.2162 80.8886 94.3885 81.0935 90.5618C81.3015 86.6752 81.5381 82.7916 81.7914 78.9078ZM45.2039 54.8082C45.4119 54.1077 46.1458 53.6698 46.8617 53.8665C47.5178 54.0469 48.0595 54.8435 47.803 55.5251C47.5231 56.2689 47.0339 56.9031 46.6214 57.579C46.2405 58.2036 45.6848 58.6955 45.2968 59.309L45.7244 59.7702C45.9383 60.0003 46.1529 60.229 46.3699 60.4537L47.1157 61.2266C47.6966 61.8273 48.2812 62.4247 48.8822 63.0046C50.6495 64.7099 52.4448 66.3593 54.4241 67.8197C54.8747 68.152 55.3288 68.4825 55.7955 68.7919L55.9696 68.9073C56.2899 69.1171 56.6472 69.3233 57.034 69.2877C57.9741 69.2014 58.8235 68.2027 59.4695 67.581L59.5033 67.5487C61.1042 66.0249 62.5866 64.3588 63.8826 62.5675C64.1703 62.1694 64.449 61.7647 64.7203 61.3551C64.0937 60.6229 64.2433 59.1936 64.2088 58.3056C64.1844 57.6812 64.1826 57.0567 64.1792 56.4319L64.1775 56.3059C64.1698 55.9014 64.1516 55.5136 64.414 55.1808C64.4293 55.1615 64.4609 55.1621 64.4803 55.1723C64.8397 55.3606 64.9504 55.676 65.1037 56.0298L65.1198 56.0665C65.3064 56.4912 65.4851 56.9197 65.6659 57.3468C65.8552 57.794 66.0287 58.2476 66.2046 58.7001C66.2865 58.9106 66.3647 59.122 66.4411 59.3344C66.4876 59.4701 66.5358 59.6052 66.5852 59.7399L66.5969 59.7503C66.6622 59.8057 66.7176 59.8643 66.7653 59.9248C66.9658 60.0251 67.1252 60.2079 67.1999 60.4766C67.3626 61.0613 67.0259 61.5381 66.7256 62.0021C65.5055 63.8878 64.1147 65.6846 62.5687 67.3146C61.8008 68.1244 60.993 68.8978 60.1521 69.6314L60.005 69.7588C59.2496 70.4082 58.4294 71.0234 57.4205 71.1754C56.2398 71.3531 55.2788 70.7657 54.375 70.0891L54.2848 70.0211C53.428 69.3722 52.5884 68.7006 51.775 67.998C50.1165 66.5656 48.5387 65.0275 47.1384 63.3401C45.7763 61.6988 44.4299 59.8636 43.5903 57.8887C43.5391 57.7684 43.6737 57.6425 43.7792 57.743C44.1893 58.1335 44.5839 58.5453 44.9738 58.9623C44.9846 58.3484 44.8714 57.7293 44.9344 57.1116C45.0112 56.3607 44.9891 55.5312 45.2039 54.8082Z" fill="black"/>
<path fill-rule="evenodd" clip-rule="evenodd" d="M54.7377 6.85022C59.9488 6.85022 66.2012 9.38284 66.7328 9.43349L66.7472 9.43426C67.0269 9.43426 68.1197 10.2689 70.0257 11.9383L67.9613 15.9749L68.1284 16.1349C68.9278 16.9033 69.6103 17.6037 70.1491 18.1558C74.5478 22.6639 75.3384 40.3639 74.3018 46.5365C73.2651 52.7091 71.3451 58.7491 62.4062 58.7491C53.4673 58.7491 43.5226 53.3608 41.9906 51.6828C40.9694 50.5642 39.8222 50.0283 38.5491 50.0751C38.4968 50.0089 38.4449 49.9429 38.3934 49.8771L38.2061 49.8505C36.4443 49.5947 35.1818 49.2504 34.4189 48.8177C32.9287 47.9725 31.2908 43.5291 31.2908 42.5503C31.2908 41.5813 28.845 34.5321 28.7961 33.7861L28.7953 33.7654C28.7953 33.1418 25.6002 30.2751 25.6002 29.3647C25.6002 28.4543 24.9562 28.5095 25.6002 25.3014L25.7873 24.359C26.4727 20.9433 27.8141 15.2874 32.9287 12.8297C38.5491 10.129 49.4739 6.85022 54.7377 6.85022Z" fill="#EDBFA7"/>
<path fill-rule="evenodd" clip-rule="evenodd" d="M39.9401 34.809C39.9401 34.809 37.5926 35.9235 35.2452 37.7428C32.8978 39.5621 34.0568 39.6221 34.0568 39.6221C34.0568 39.6221 33.9558 43.521 34.6792 45.0676C35.4026 46.6141 39.687 46.8878 39.687 46.8878L40.4126 49.3239L40.3123 50.4528C39.7539 50.2011 39.1658 50.0867 38.5482 50.1094C38.4958 50.0432 38.4439 49.9772 38.3925 49.9114L38.2052 49.8848C36.4433 49.629 35.1809 49.2847 34.4179 48.852C32.9277 48.0068 31.2898 43.5634 31.2898 42.5846C31.2898 42.0403 30.5181 39.5774 29.8329 37.3909C29.2984 35.685 28.8166 34.1473 28.7951 33.8204L28.7944 33.7997C28.7944 33.5173 28.1391 32.7749 27.4221 31.9625C26.5558 30.9809 25.5992 29.8971 25.5992 29.399C25.5992 29.1334 25.5444 28.9499 25.4827 28.7436C25.333 28.243 25.1431 27.6077 25.5992 25.3357L25.7863 24.3933C26.4717 20.9776 27.8131 15.3217 32.9277 12.864C38.5482 10.1633 49.4729 6.88452 54.7367 6.88452C58.8416 6.88452 63.5926 8.45601 65.6846 9.14796C66.2484 9.33444 66.619 9.45704 66.7319 9.46779L66.7462 9.46856C67.0259 9.46856 68.1187 10.3032 70.0248 11.9726L69.5405 12.9195C63.2457 13.1038 52.8941 13.6668 48.3755 15.386C41.6568 17.9422 39.9401 34.809 39.9401 34.809Z" fill="#7F7D80"/>
<path fill-rule="evenodd" clip-rule="evenodd" d="M32.0609 12.7028C34.8639 9.72008 50.7776 5.10655 58.8287 6.08451L59.0702 6.11586C59.7127 6.19754 60.3459 6.32123 60.9708 6.48925C62.9907 6.96218 65.0772 7.67828 66.7462 8.87443C68.1396 9.85296 72.535 11.451 71.2395 14.0108C71.7198 14.9232 71.8991 16.0504 71.5745 16.949C71.5336 17.2594 71.4382 17.5452 71.3161 17.8416C72.3423 19.3598 73.1549 21.0767 73.8126 22.7098C74.962 26.8196 75.6772 31.0966 75.782 35.2897C76.1305 43.256 75.2592 52.7719 68.3381 57.9233C64.1571 61.1876 57.6079 61.2973 52.9094 57.25C52.6427 56.9336 51.3888 56.0799 51.8072 55.9302C51.9318 56.0621 52.0598 56.1904 52.1902 56.3165C52.1842 56.3025 52.1831 56.2885 52.1855 56.2733L52.0629 56.162C51.832 55.9478 51.5329 55.6373 51.8736 55.698C51.8886 55.7155 51.905 55.7307 51.9212 55.7482C51.9934 55.7916 52.0479 55.8292 52.0903 55.8624L52.1121 55.8799L52.1054 55.8729C51.9091 55.6631 51.7914 55.4491 52.0849 55.5857L52.1237 55.6047C52.2542 55.7424 52.3868 55.8742 52.5218 56.0026C52.5196 55.9874 52.5218 55.9722 52.5301 55.9559L52.4042 55.834C52.2813 55.7133 52.3 55.7128 52.3601 55.6152C52.0989 55.2482 52.5865 55.4662 52.6207 55.6093C52.9258 55.537 53.1936 56.1111 53.3901 56.1811C62.0031 62.8194 74.5024 56.9292 74.2999 38.4316L74.2969 38.0696C74.2377 32.1549 73.7412 26.0756 71.3008 20.7214C71.0635 20.2057 70.798 19.7039 70.506 19.2185C70.3046 18.8545 70.0893 18.4997 69.8577 18.1543C69.2092 18.1018 68.569 17.9828 67.9383 17.7985C67.7217 17.7436 67.5075 17.6829 67.2935 17.6118C64.1648 17.7828 61.1059 17.9689 57.9685 18.1454L56.9885 18.2065C54.3307 18.3778 51.5821 18.6522 49.4373 20.3002C47.3329 21.8005 47.3234 24.7591 45.522 26.4064C42.9531 28.1542 42.9344 29.7303 42.4397 32.306C42.4764 34.2477 43.8193 37.0688 41.3549 37.8859C41.7707 38.4802 41.1912 38.1947 41.1455 37.9863C41.1409 37.9874 41.1362 37.9886 41.1327 37.9886C41.5032 38.679 40.9586 38.2443 40.9104 38.0224C40.8813 38.0143 40.8522 37.9933 40.8231 37.9641C41.1964 38.569 40.593 38.1454 40.6287 38.0353C39.9075 36.9239 38.423 36.7513 37.3766 37.0458C37.3638 37.0855 37.3173 37.089 37.2882 37.068C32.8388 38.0346 33.9868 47.2686 38.5465 46.376C38.7416 46.3361 38.737 46.43 38.7758 46.439C38.6704 46.1618 38.9673 46.2746 38.9642 46.3328L38.9823 46.3319C38.9966 46.3307 38.9908 46.3291 39.0014 46.3328C38.8996 45.7658 39.4727 46.5873 39.4274 46.621C39.445 46.6105 39.4648 46.6047 39.4823 46.6024L39.4625 46.5485C39.3674 46.2945 39.3756 46.4001 39.3762 46.2546C39.3048 46.0748 39.2995 46.1535 39.3163 46.0363C39.5675 45.8412 39.6416 46.4331 39.7254 46.4763C39.5818 46.2756 39.696 46.1117 39.8314 46.2207C40.8584 48.3861 42.1849 50.4208 43.8993 52.0236C44.0868 52.1718 44.2765 52.3176 44.4731 52.4553C45.2023 53.0921 46.3209 53.5015 47.0035 54.0656C47.0035 54.0749 46.999 54.0866 46.992 54.0983L47.0076 54.1124L47.0234 54.1274L47.2609 54.2418C47.3307 54.3013 47.3936 54.3678 47.4493 54.4413C47.5088 54.5102 47.5611 54.586 47.6054 54.6665C47.6275 54.7645 47.5786 54.8054 47.4855 54.7634C47.4447 54.7494 47.4041 54.733 47.3633 54.7179C47.3656 54.7214 47.3667 54.7237 47.3691 54.726C47.3825 54.7463 47.4729 54.9564 47.3687 54.9222L47.3563 54.9174C47.2992 54.8964 47.2423 54.8731 47.1864 54.8509C47.2527 54.9337 47.3131 55.0236 47.3667 55.0994C47.4238 55.1589 47.4586 55.229 47.4727 55.3083C47.4703 55.3526 47.446 55.3713 47.4017 55.3655C47.3342 55.3433 47.2679 55.32 47.2014 55.2955L47.2203 55.3316C47.2673 55.4242 47.334 55.5795 47.2155 55.5277C47.1141 55.4962 47.0165 55.46 46.9187 55.4203C46.9104 55.4367 46.8942 55.4425 46.8617 55.4273C46.5509 55.3165 46.2506 55.1811 45.9631 55.0213C45.7105 54.8369 45.4555 54.656 45.2019 54.4728C44.9632 54.3293 44.7327 54.1694 44.5128 53.9897C43.0409 53.0367 41.7523 51.8259 40.73 50.4775C39.0203 51.9619 35.6019 50.5438 33.4874 49.3818C31.617 48.3433 30.8819 46.4231 30.6918 44.3529C30.2967 41.5657 28.0247 40.6117 28.1827 34.4962C28.1792 34.4974 28.1756 34.4974 28.171 34.4974C28.0883 34.4729 28.0081 34.4402 27.9325 34.3982C27.8545 34.3608 27.7812 34.3165 27.7124 34.2628L27.6274 34.145C27.5833 34.1205 27.5437 34.0948 27.5135 34.0691L27.4978 34.0894C27.4481 34.1495 27.4815 34.0591 27.4844 34.0411L27.3368 33.8399C26.9868 33.3609 26.6028 32.8234 26.29 32.3935L26.2802 32.411C26.2731 32.4242 26.2694 32.4337 26.2727 32.4379C25.5284 31.3658 24.8284 30.0708 24.6339 28.8171C24.4042 27.8514 24.494 26.8563 24.6943 25.9618C25.5531 22.8294 28.3666 15.7409 32.0609 12.7028ZM52.2608 56.0228L52.2141 55.9812L52.2551 56.0327C52.2766 56.0593 52.2986 56.0832 52.3345 56.1076C52.3321 56.0995 52.3321 56.0913 52.3332 56.082C52.3094 56.0638 52.2851 56.0439 52.2608 56.0228ZM58.7927 7.65842C53.3329 7.18782 47.9628 8.39366 42.7528 9.85328L42.3934 9.95684C39.4309 10.8043 36.2984 11.5668 33.7948 13.3807C30.2971 16.0665 28.4909 20.339 26.9147 24.2838C25.5383 27.2147 26.2419 30.5196 28.3161 32.5662C28.5318 30.5325 28.8998 28.5583 29.4748 26.5999C29.5948 26.294 29.504 26.1937 29.7626 26.1538C30.1532 31.4313 28.2293 35.3305 32.0366 41.5851C33.6886 44.5363 31.7762 46.6957 36.4413 48.2487L36.5675 48.297C37.5394 48.6647 38.6008 48.9549 39.5527 48.7494L39.4675 48.6103C39.3805 48.4671 39.3541 48.3976 39.4806 48.3363C39.4772 48.3293 39.4725 48.3223 39.4678 48.3141C39.3655 48.1204 39.2665 47.9244 39.1721 47.726C39.1338 47.7389 39.0954 47.7482 39.0557 47.7587C39.0815 47.8065 39.0848 47.8544 39.0128 47.8707C38.7563 47.9589 38.4929 47.9943 38.2233 47.9777L38.1654 47.9734C37.8608 47.9547 37.6689 47.8991 37.4972 47.8474C37.4403 47.838 37.3833 47.8287 37.3273 47.817C36.775 47.6943 36.1903 47.382 35.812 47.0726C31.4986 44.6166 31.9444 36.2562 37.2611 35.4658C37.3701 30.2019 39.8676 21.3212 44.0124 16.3052C47.7589 11.6913 57.9869 9.69155 65.1028 10.3967C65.2065 10.4311 65.3102 10.4659 65.4139 10.501C66.5117 10.5988 67.558 11.0891 68.6566 11.3169C67.8678 10.7242 66.973 10.3295 66.0513 9.994C64.2148 8.86787 62.1095 8.25853 60.0755 7.82878C59.6541 7.72493 59.227 7.66775 58.7927 7.65842ZM37.0184 39.6945C37.3043 39.5389 37.2716 39.6891 37.3373 39.6455C39.3936 39.4774 41.6108 41.2821 42.7601 42.7867C42.6694 42.8812 42.4238 42.6012 42.3807 42.5568C42.3749 42.5627 42.3679 42.5673 42.3609 42.5697L42.3929 42.6149C42.8588 43.2851 41.9353 42.4965 41.8488 42.3339C41.8337 42.3421 41.8185 42.3468 41.8011 42.3433C41.8743 42.4153 42.0979 42.603 42.1363 42.7365L42.1956 42.786C42.7545 43.2658 42.7081 43.6268 42.0735 42.9454C42.0886 42.9769 42.0944 43.0061 42.0839 43.0294L42.1057 43.044C42.4178 43.2626 42.6744 43.872 42.0222 43.2464C42.0901 43.7034 41.3759 42.8202 41.3529 42.8264C40.1171 41.8538 38.2975 40.9079 36.7472 40.7809L36.6939 40.7747C36.4094 40.7381 36.2749 40.6535 36.3748 40.467C36.0244 40.3834 36.1065 40.2105 36.2723 40.2161C36.0252 40.0532 36.2477 39.8974 36.3911 39.9582C36.2925 39.6846 36.6879 39.8669 36.7239 39.8287C36.9291 39.5114 36.9844 39.7761 37.0184 39.6945ZM32.7083 22.7343C33.6959 22.3716 36.6131 23.4573 36.3798 24.8951C36.2408 25.2252 35.7829 25.4143 35.4611 25.228L35.041 24.9451C34.31 24.4544 33.6508 24.024 32.8659 23.596C32.4388 23.3835 32.2549 22.9324 32.7083 22.7343ZM38.3269 20.5976L37.9455 20.3488C35.8872 18.9983 32.9774 16.952 38.1378 19.0691C38.7259 19.322 39.5074 19.4716 39.8283 20.0331C40.3324 21.068 39.0057 21.1375 38.3269 20.5976ZM38.5586 14.5382C38.3934 13.9098 40.4486 14.6472 41.0468 14.8416L41.138 14.8761C41.7199 15.0935 42.3871 15.2951 42.7351 15.7986C43.143 16.4943 42.3175 16.6384 41.8062 16.3242C40.7578 15.6374 39.6084 15.1192 38.5586 14.5382ZM43.7844 11.6111C42.6276 10.3447 45.7235 11.5579 46.1873 11.8947L46.2005 11.9046C46.5466 12.1488 46.4764 12.6748 46.1513 12.8293C45.2263 12.8469 44.5456 12.074 43.7844 11.6111ZM49.0485 10.2236C47.2095 8.89868 49.632 9.52889 50.4734 10.0481C51.0469 10.5551 50.4562 11.411 49.0485 10.2236Z" fill="black"/>
<path fill-rule="evenodd" clip-rule="evenodd" d="M65.4978 45.6635C65.8979 44.9571 67.0921 45.0719 67.2747 45.8958C67.645 47.566 65.654 49.1084 64.1419 49.1469C62.6392 49.185 60.9532 47.9056 61.1707 46.2895C61.2245 45.8897 61.7583 45.9383 61.9402 46.1889L62.0109 46.2851C62.5051 46.9493 63.1572 47.6367 64.0744 47.4748C64.4545 47.4078 64.7998 47.1702 65.0296 46.8644C65.3067 46.4953 65.2763 46.0546 65.4978 45.6635ZM55.9428 33.4441C56.1464 33.3879 56.352 33.4096 56.5324 33.4864C56.9353 33.5603 57.2718 33.8963 57.3901 34.28C57.3994 34.3132 57.4098 34.346 57.4213 34.3785L57.4393 34.4269L57.391 34.3039C57.4133 34.425 57.5118 34.5523 57.5473 34.6739C57.5909 34.8234 57.6015 34.9932 57.5868 35.1577C57.7149 35.159 57.843 35.1633 57.9708 35.1744L58.0943 35.1855C58.7852 35.2497 59.5437 35.3675 59.9532 35.9647C60.1832 36.3003 59.9673 36.9045 59.5448 36.9691C58.8943 37.0687 58.3339 36.7086 57.6856 36.6365C57.0728 36.5682 56.4315 36.6073 55.8266 36.718C54.5778 36.9464 53.4302 37.4528 52.2132 37.7706L52.0475 37.8127L52.0477 37.8119C51.8392 37.8623 51.6024 37.5722 51.8087 37.4025C52.7837 36.6012 54.032 35.9519 55.2617 35.5564C55.0826 35.2714 55.0272 34.8959 55.1496 34.5898C55.1686 34.5264 55.1921 34.4647 55.217 34.4032L55.2687 34.2767C55.2737 34.2171 55.2852 34.1582 55.3017 34.1004L55.3044 34.0828L55.3059 34.0839C55.3975 33.7862 55.6366 33.5285 55.9428 33.4441ZM68.3817 33.4901C68.6484 33.2232 69.0231 33.2627 69.3013 33.4727L69.3383 33.5017C69.6006 33.6182 69.8177 33.873 69.9602 34.109C70.1082 34.3542 70.2065 34.6039 70.2104 34.8738C70.8559 34.8759 71.4742 35.0696 71.9481 35.5909C72.1011 35.7592 72.2056 36.0187 72.1214 36.2468L72.0713 36.3825C71.9121 36.8134 71.1967 37.0614 70.9535 36.5547L70.9423 36.53C70.6839 35.9284 69.6922 35.9915 69.1651 36.053C68.7976 36.0961 68.4348 36.1874 68.08 36.2898C67.9549 36.3258 67.831 36.365 67.7073 36.4049L67.5835 36.4451C67.5175 36.4664 67.1737 36.6532 67.3876 36.609C67.4451 36.5971 67.4884 36.6809 67.4297 36.709C67.1747 36.831 66.9027 36.5881 66.9197 36.3142C66.9492 35.8386 67.7042 35.5778 68.0674 35.4138L68.0892 35.4039C68.2284 35.3395 68.3744 35.2778 68.5249 35.2205C68.4403 35.0944 68.3703 34.9544 68.3121 34.8041C68.257 34.6622 68.2203 34.5243 68.2001 34.3734C68.1803 34.2997 68.1803 34.2259 68.2001 34.1521L68.2031 34.131C68.1929 34.0822 68.188 34.0318 68.1887 33.981L68.1866 33.9613H68.1887C68.1958 33.7836 68.2663 33.6055 68.3817 33.4901ZM64.1213 38.5549C65.1457 38.8716 66.8359 39.7342 66.302 41.0657C65.5565 42.2886 63.5796 41.3899 62.6216 40.9948C61.7609 40.7096 61.3128 41.9163 62.145 42.28C69.022 45.0017 68.9967 37.8186 64.3707 37.9241C63.8613 37.9356 63.8453 38.4496 64.1213 38.5549ZM55.0228 29.1888L55.1975 29.1378C56.1056 28.8747 57.0325 28.4203 57.8387 29.1293C58.1553 29.4077 58.2205 29.9862 57.994 30.3335C57.4779 31.1247 56.7127 31.0038 55.8793 31.0713C55.2447 31.1226 54.6197 31.3091 54.0274 31.5421C53.5433 31.7327 53.0944 32.0009 52.6705 32.3001C52.2541 32.5943 51.9696 33.0541 51.5425 33.3189C51.3859 33.416 51.2051 33.3161 51.1489 33.1587C50.9497 32.6003 51.2863 31.9048 51.5712 31.4291C51.9189 30.8487 52.447 30.374 53.0149 30.0148C53.6368 29.6215 54.3245 29.3943 55.0228 29.1888ZM68.254 28.588C69.7889 28.5875 71.2658 29.4416 72.1242 30.6935C72.416 31.1188 72.2022 31.7489 71.7834 31.9938C71.3137 32.2687 70.8114 32.0708 70.5018 31.6769L70.4835 31.653C69.9911 30.9971 69.3565 30.4805 68.6042 30.1443C68.2371 29.9801 67.8312 29.8469 67.4341 29.7794L67.3058 29.7574C67.126 29.7272 66.9174 29.6984 66.7547 29.7266C66.6676 29.7381 66.5876 29.7669 66.5138 29.8108C66.5493 29.8882 66.4577 29.9816 66.3732 29.9352C65.9918 29.7256 66.0385 29.3517 66.3536 29.0612C66.7993 28.6501 67.6784 28.5881 68.254 28.588Z" fill="black"/>
<path fill-rule="evenodd" clip-rule="evenodd" d="M64.8421 43.0954C63.5449 42.5109 61.2156 43.021 60.3699 43.2238C58.404 43.6954 56.4262 44.7147 55.815 46.3115C55.1263 48.1112 56.5005 48.6777 56.7027 48.5851C58.0636 48.6811 59.6843 47.8252 61.1105 47.6043C62.2683 47.4234 63.4896 47.2655 64.5744 46.6501C65.3663 47.086 67.1551 47.3216 68.5988 47.7027C69.8283 48.027 70.361 48.7305 71.5008 48.5809C72.8669 48.4017 72.3077 45.5274 70.7852 44.363C69.1189 43.0887 66.3006 42.5719 64.8421 43.0954ZM67.4105 55.3854C66.2757 55.6622 66.1994 53.1739 66.0723 52.2948C65.973 51.608 65.4128 49.8368 63.9926 49.9132C62.5724 49.9896 62.0386 51.4736 62.1106 52.3965C62.1573 52.995 62.7087 56.0268 60.9489 56.4103C59.8269 56.4063 58.5289 56.3306 57.3492 56.113C55.9608 55.7984 54.1553 54.697 53.6783 56.8661C53.5067 57.6467 59.623 59.9661 62.3371 60.1759C65.0897 60.7339 68.3101 59.8758 70.2698 57.7694C70.7157 57.2901 71.9713 55.301 72.0608 54.8137C72.2488 53.7898 71.8136 53.1309 70.5471 53.4917C69.6525 53.9697 68.1403 55.2074 67.4105 55.3854Z" fill="#564334"/>
<circle cx="37.5" cy="43.5" r="1.5" fill="#4C4032"/>
</svg>
