<svg width="93" height="135" viewBox="0 0 93 135" fill="none" xmlns="http://www.w3.org/2000/svg">
<path fill-rule="evenodd" clip-rule="evenodd" d="M8.78787 132.779C23.5705 135.025 38.6214 135.138 53.5269 134.322C59.4259 133.88 65.3431 133.801 71.2374 134.366C74.7203 134.625 89.9913 135.792 91.239 132.672C90.4537 116.054 88.8633 99.2948 83.9842 83.3127C81.9777 77.6378 80.2543 72.9278 76.3381 68.2317C75.1039 66.9495 72.4421 64.2604 70.9169 63.3834C69.5956 62.6237 69.0433 62.8948 68.2846 61.6116C67.5306 60.194 66.9745 57.8267 65.9039 56.8264C64.8139 55.808 63.1985 56.1724 61.1963 56.5004C61.5642 51.5276 59.2697 50.2612 56.1086 49.3155C50.5524 47.1941 45.0649 48.2598 43.6665 55.0264C41.0735 55.0264 39.617 56.1427 38.0424 57.2153C37.3987 57.6537 37.8464 58.7708 37.0776 59.1154C35.6551 59.6221 33.1414 59.498 31.7717 60.1215C25.5434 62.9571 19.9961 67.069 16.3531 73.0742C8.18577 85.8955 2.57546 112.904 3.5463 128.1C3.12094 128.767 3.70914 129.724 3.85865 130.441C4.04737 131.065 4.65851 131.481 5.29631 131.41C6.18635 132.367 7.56299 132.58 8.78787 132.779Z" fill="#E1BAA9"/>
<path fill-rule="evenodd" clip-rule="evenodd" d="M39.5425 56.0425C40.4533 55.0918 41.8815 54.5243 43.234 54.5562L43.2974 54.5581L43.7565 54.5787L43.4497 56.0845L43.4343 56.1559L43.3717 56.4173L43.2884 56.7596L43.2587 56.8854L43.2275 57.0247C43.2225 57.0473 43.2177 57.0697 43.213 57.0919L43.1993 57.1578L43.0685 57.7975L43.0929 57.8544L43.0859 57.9998C43.0656 58.5253 43.1788 58.8142 43.4281 58.9068L43.4481 58.9137L43.5903 58.9594L43.7064 59.2113C43.9735 59.7875 44.2226 60.2908 44.4785 60.7648C45.2245 62.1473 46.1146 63.5293 47.1409 64.9181C48.116 66.2378 49.1317 67.4974 50.1878 68.6935C50.6627 69.2313 51.1643 69.7713 51.6982 70.321L52.1578 70.7918L52.3039 70.9398L52.4022 71.0379L52.5248 71.1581L52.7015 71.3266L52.8296 71.4527L52.8711 71.4922C52.9234 71.5407 52.9638 71.5735 53.0002 71.5969L53.0137 71.6052L53.0541 71.6292L55.1847 73.8709L55.9372 74.2848L56.2946 74.4829L56.367 74.3388L56.3816 74.2926L57.1736 72.5528L57.6571 71.4873C58.6496 69.2952 59.4217 67.5513 60.1278 65.8908L60.2158 65.6837L60.4761 65.0659L60.6139 64.7363C61.2451 63.2232 61.7114 62.0554 62.1286 60.921L62.1879 60.7592L62.2757 60.5168L62.4063 60.1512L62.43 60.0888C62.5434 59.7985 62.2649 58.7436 61.9907 58.1657L61.9752 58.1335L61.9039 57.9903L61.8268 57.8392C61.6454 57.4853 61.5141 57.0923 61.4037 56.6167C61.3858 56.5397 61.3689 56.4622 61.3531 56.384L61.3302 56.2662L61.3156 56.1889L61.2952 56.0807L61.2661 55.9257L61.8798 55.8231L62.2165 55.7681L62.3632 55.7451C62.5535 55.7157 62.7228 55.6915 62.8822 55.6713L62.9415 55.6639L63.0482 55.6513L63.052 55.6724L63.2709 55.694L63.4335 55.7108C64.2342 55.7955 64.8519 55.8889 65.2905 55.9923L65.3337 56.0027L65.4121 56.0225L65.4478 56.0319C65.8467 56.1394 66.1542 56.3715 66.3974 56.7138C66.5643 56.9486 66.6726 57.1736 66.844 57.5998L66.9054 57.7536L67.1094 58.2581C67.1333 58.3195 67.1701 58.4176 67.2201 58.5526L67.3932 59.024L68.2607 61.4206L69.1485 61.8879C69.5612 62.1039 69.8631 62.2596 70.0122 62.3333L70.065 62.359L70.1028 62.3763L70.4088 62.4977L70.376 62.5932L70.4129 62.6143C74.068 64.7177 76.8866 67.9534 79.0811 72.249L79.1474 72.3795L79.2154 72.5147C80.9643 76.0137 82.2173 79.9185 83.4408 85.1316L83.5165 85.4557L83.5761 85.7135L83.895 87.1047C85.0935 92.3573 85.9171 96.2742 86.5987 100.117L86.6429 100.368L86.7565 101.021C87.6124 105.995 88.3291 110.925 88.9025 115.806L88.9977 116.627C89.237 118.725 89.4532 120.893 89.6877 123.496L89.7191 123.846L89.8224 125.015C89.9323 126.276 90.0327 127.533 90.1237 128.788L90.1684 129.415L90.2602 130.779L90.3141 131.556L90.3207 131.661L90.3425 132.066L90.3486 132.161C90.3568 132.283 90.3661 132.386 90.3778 132.481L90.3872 132.551L90.3975 132.619C90.4278 132.804 90.4876 132.971 90.5866 133.156L90.6121 133.203L90.782 133.507L90.4741 133.669C88.8686 134.515 85.7076 134.887 81.3713 134.907L81.2396 134.907H80.9685C78.8614 134.906 76.6282 134.825 74.2981 134.686L73.771 134.654L73.3312 134.626C73.1418 134.613 72.9574 134.601 72.7662 134.587L72.4728 134.567L71.2476 134.477C65.7362 133.949 59.9565 133.958 53.5881 134.435C36.9846 135.343 22.6537 134.96 9.18391 132.949L8.77599 132.887L8.47541 132.838L8.29613 132.808C6.86738 132.564 5.97025 132.252 5.27022 131.595L5.23356 131.56L5.203 131.531L5.18976 131.531C4.48491 131.528 3.83965 131.066 3.60023 130.386L3.58779 130.35L3.572 130.299L3.56109 130.248C3.54994 130.199 3.53601 130.147 3.51908 130.089L3.50581 130.045L3.39453 129.68L3.76941 129.611C3.80171 129.605 3.83529 129.583 3.86787 129.536L3.8991 129.491L3.95315 129.416L4.08374 129.237C4.22282 129.042 4.29125 128.919 4.32516 128.796C4.35516 128.687 4.3664 128.548 4.36314 128.354L4.36063 128.259L4.34586 127.915C4.34489 127.887 4.34423 127.863 4.34381 127.84L4.34334 127.805L4.3431 127.321L4.3443 126.788C4.34517 126.556 4.34647 126.33 4.34825 126.107L4.35128 125.776L4.3543 125.51C4.37235 124.035 4.41562 122.562 4.48409 121.091C4.61795 118.219 4.84756 115.351 5.17239 112.494C5.84307 106.596 6.87041 100.875 8.26792 95.3474L8.40829 94.7953C9.91937 88.8875 11.3763 84.3329 13.228 80.1211C15.5832 74.7643 18.4548 70.3555 22.0706 66.831C24.0585 64.893 26.26 63.2573 28.5996 62.0028C29.6756 61.4258 30.8191 60.9138 32.0455 60.4532L32.2212 60.3878L32.5049 60.2841L32.7225 60.2037L33.4238 59.9416C33.5712 59.8864 33.7316 59.8245 33.9213 59.7499L34.0387 59.7035L35.2945 59.2024L35.503 59.1203L35.7349 59.0301L35.9053 58.9647C36.184 58.8583 36.4363 58.7656 36.6706 58.6838L36.809 58.636L36.9347 58.5937L37.4706 58.4082L37.4602 58.8959C37.4532 59.2202 37.5367 59.4652 37.7222 59.6413L37.7284 59.6469L37.7348 59.652L37.7405 59.6558L37.773 59.6549L37.8996 59.6542C37.9127 59.6471 37.925 59.6386 37.9365 59.6289C38.1167 59.4757 38.2005 59.2704 38.2819 58.7995L38.3034 58.6685L38.341 58.423L38.356 58.3301C38.4101 58.0034 38.4574 57.8229 38.5492 57.6164C38.6819 57.318 38.8573 57.0274 39.0638 56.7603L39.112 56.6991L39.3048 56.4672L39.3344 56.4306C39.4019 56.344 39.4366 56.2828 39.4511 56.2268L39.4545 56.2116L39.4738 56.1141L39.5425 56.0425Z" fill="#1A181B"/>
<path fill-rule="evenodd" clip-rule="evenodd" d="M69.9757 63.0076C69.885 62.957 69.9649 62.8273 70.0561 62.8702C74.4401 64.9276 77.8033 68.5373 80.1698 72.708C82.6202 77.0266 84.0168 81.9298 85.2209 86.7222L85.2643 86.8953C86.5483 92.022 87.64 97.2016 88.6228 102.394C89.6182 107.652 90.4172 112.943 91.0599 118.255C91.3778 120.882 91.6613 123.513 91.8824 126.15C91.9928 127.467 92.0932 128.786 92.1833 130.105C92.2194 130.633 92.2533 131.16 92.2824 131.688L92.3033 132.085C92.3213 132.444 92.3639 132.804 92.2752 133.159C92.1986 133.464 92.0369 133.741 91.8947 134.021C91.6134 134.576 90.8423 134.484 90.5391 134.021L90.4511 133.886C90.2501 133.575 90.0831 133.287 90.02 132.9C89.959 132.525 89.9567 132.133 89.9294 131.755C89.879 131.058 89.8361 130.362 89.7872 129.666C89.6846 128.2 89.5693 126.735 89.4417 125.271C89.1892 122.382 88.9185 119.495 88.5859 116.614C87.995 111.493 87.2535 106.385 86.3794 101.305C85.5254 96.3423 84.4457 91.4299 83.3194 86.5237L83.2027 86.0161C81.2306 77.4501 78.1911 67.5854 69.9757 63.0076ZM23.2797 96.5501C23.3119 96.4644 23.4507 96.4447 23.4741 96.5501C23.7694 97.8802 23.7986 99.2502 23.8438 100.612C23.8882 101.956 23.8864 103.305 23.8668 104.649C23.7947 109.589 23.6591 114.525 23.5419 119.465C23.4833 121.936 23.4283 124.407 23.3861 126.878C23.3701 127.805 23.3567 128.731 23.3456 129.658L23.3319 130.881C23.3251 131.421 23.3109 131.955 23.2451 132.495C23.2016 132.85 23.1091 133.189 22.9131 133.493C22.774 133.709 22.5758 133.819 22.3826 133.965L22.3464 133.993C22.1 134.188 21.8404 134.19 21.5963 133.993L21.5255 133.937C21.2923 133.755 21.0908 133.612 20.942 133.324C20.7349 132.923 20.7018 132.487 20.6666 132.045C20.6132 131.375 20.6486 130.695 20.6555 130.023C20.6693 128.675 20.688 127.327 20.7116 125.979C20.7984 121.036 20.9699 116.091 21.2826 111.157C21.4299 108.833 21.6296 106.501 21.8974 104.186L21.9485 103.752C22.0297 103.071 22.1038 102.378 22.1873 101.682C20.9407 100.805 19.845 99.7407 18.9106 98.5334C18.8418 98.4445 18.955 98.3199 19.0381 98.4059C19.9929 99.3949 21.0876 100.183 22.2996 100.803C22.4982 99.3475 22.7712 97.8995 23.2797 96.5501ZM44.1056 52.4845C44.1227 52.4712 44.1494 52.4655 44.1657 52.4845C44.4337 52.797 44.3793 53.2748 44.388 53.6708L44.389 53.7077C44.4082 54.2867 44.4118 54.8639 44.4099 55.4432L44.4039 57.2873C44.4031 57.5408 44.3825 57.8048 44.3955 58.0598L44.4023 58.1585C44.5431 58.3028 44.6085 58.5111 44.5607 58.7204C44.5521 58.9889 44.4118 59.213 44.2071 59.3538L44.6458 59.9764L45.085 60.5987C45.9901 61.8829 46.9051 63.1557 47.8588 64.4046C48.8312 65.6779 49.8686 66.9033 50.9541 68.0814C51.4845 68.6571 52.0239 69.2248 52.5758 69.7798C52.8001 70.0054 53.03 70.2253 53.2574 70.4478L53.4835 70.6713C53.6172 70.805 53.7853 70.9372 53.874 71.1067C53.9262 71.2066 53.9381 71.4529 53.9567 71.4937C54.1242 71.8619 53.8385 72.4491 53.3637 72.2654L53.3853 72.251C53.4717 72.1909 53.4163 72.19 53.219 72.2485C53.0945 72.2481 52.9778 72.2194 52.8688 72.1627L52.8363 72.1448C52.6828 72.0667 52.5457 71.9157 52.421 71.7949L52.39 71.7654C52.1048 71.498 51.8329 71.2144 51.5595 70.935C50.9889 70.3519 50.4312 69.7564 49.8912 69.1449C48.814 67.9249 47.7928 66.6554 46.8257 65.3465C45.8406 64.0134 44.925 62.6118 44.1376 61.1527C43.8387 60.5989 43.5648 60.0345 43.3022 59.4636C42.7909 59.2994 42.6722 58.7555 42.7079 58.1428C42.5193 57.7034 42.3493 57.2549 42.2488 56.7967C42.2351 56.7339 42.3158 56.6747 42.3641 56.7296C42.5276 56.9154 42.679 57.1133 42.8245 57.3163C42.9123 56.8867 43.0235 56.4913 43.0757 56.2392L43.3024 55.1267C42.0252 55.0601 40.6258 55.585 39.7453 56.504C39.698 56.7433 39.5139 56.9145 39.3345 57.1382C39.1295 57.3939 38.9506 57.6809 38.8172 57.9809C38.5213 58.6461 38.6883 59.6262 38.114 60.1142C38.0542 60.1651 37.9873 60.2004 37.9183 60.2222C38.1908 61.5588 38.0671 63.0316 38.0612 64.3876L38.061 64.5069C38.0623 66.0245 38.0116 67.5434 37.953 69.0598L37.8934 70.5605C37.8161 72.562 37.7659 74.5645 37.9604 76.555C38.848 75.7685 39.7659 75.0179 40.7154 74.3029C41.3397 73.8326 41.9765 73.379 42.6249 72.9425L43.1517 72.5903C43.783 72.1668 44.4296 71.7311 45.1208 71.4278C46.0249 71.0313 46.8846 71.1676 47.7575 71.5743C48.6267 71.9794 49.47 72.45 50.3226 72.8891C51.1898 73.3355 52.0588 73.7782 52.9273 74.2221C53.5025 74.5161 54.3455 74.7816 54.7675 75.3229C54.7944 75.2031 54.8257 75.0837 54.8624 74.9647C54.8205 74.7833 54.8367 74.5872 54.9384 74.4003C56.3562 71.7942 57.668 69.1259 58.9706 66.4608C59.6299 65.1121 60.2568 63.7474 60.9174 62.3994L61.5595 61.0866C61.6668 60.8679 61.7745 60.6494 61.8827 60.4312C62.0447 60.1045 62.2134 59.781 62.3773 59.4551C62.4465 59.3174 62.5333 59.1806 62.6007 59.0417L62.6326 58.972C62.6342 58.9683 62.7898 58.4789 62.6696 58.5255L62.6592 58.5305C62.5979 58.5653 62.5488 58.4881 62.5885 58.4388C62.7585 58.2286 62.9952 58.4148 63.0921 58.6094C63.3594 59.1449 62.8698 59.9855 62.6814 60.4983L62.6711 60.5269C62.0867 62.1818 61.425 63.8055 60.747 65.4237C59.447 68.526 58.0504 71.5807 56.657 74.6408L56.6405 74.6934C56.9376 74.4655 57.2549 74.2587 57.5266 74.0575C58.2119 73.5496 58.9173 73.0667 59.6216 72.5854C60.9131 71.7026 62.2396 70.8781 63.5881 70.0862L63.8581 69.9282C64.5317 69.5356 65.1989 69.2173 65.9984 69.3352C66.7412 69.4447 67.4318 69.8438 68.1029 70.1681L68.1722 70.2013L70.2457 71.1875C70.024 70.3032 69.784 69.4232 69.5336 68.5465C69.0453 66.8365 68.5079 65.1408 67.9252 63.4603C67.3809 61.8902 66.7926 60.3372 66.1703 58.7965L65.9829 58.3341C65.7291 57.6998 65.4768 57.0081 64.7516 56.8128C64.0269 56.6175 63.1956 56.907 62.5332 56.4938C62.473 56.4562 62.4804 56.3569 62.5534 56.3386L62.9622 56.2355C63.7296 56.0445 64.6292 55.8524 65.355 56.0382C66.1446 56.2405 66.798 56.9035 67.1811 57.5928C67.6071 58.3595 67.9074 59.2176 68.2307 60.0352L68.282 60.1639C68.653 61.0892 69.0099 62.02 69.3514 62.9567C70.0341 64.829 70.6557 66.7237 71.2182 68.6356C71.4894 69.557 71.7466 70.4829 71.9938 71.411C72.0648 71.6779 72.1821 72.0015 72.2783 72.339C72.3885 72.4466 72.4928 72.5666 72.5907 72.7034C72.753 72.9305 72.6365 73.1967 72.4346 73.3327C72.4268 73.565 72.3752 73.7834 72.2519 73.9707C71.7704 74.7018 70.4976 74.5134 70.5493 73.5305C70.5571 73.3801 70.6157 73.2365 70.7044 73.1151L70.7019 73.0954L70.6919 73.0594C70.4709 72.9535 70.249 72.8354 70.0151 72.7198L67.839 71.6441C67.2087 71.3325 66.5101 70.8511 65.8093 70.7323C65.1559 70.6217 64.4665 71.1087 63.905 71.4025L63.8686 71.4214C62.5113 72.1173 61.1642 72.8363 59.8223 73.5612C59.1673 73.9152 58.5207 74.2839 57.8682 74.642C57.3225 74.9415 56.7337 75.3715 56.1204 75.5405C55.8585 75.7442 55.5473 75.7169 55.2972 75.5629C55.4115 76.2709 55.4045 76.9975 55.4396 77.7214C55.4868 78.6891 55.494 79.6596 55.5095 80.6286L55.5159 80.992C55.557 83.1343 55.5791 85.2772 55.5873 87.42C55.6162 95.0503 55.5319 102.683 55.5122 110.313C55.5023 114.147 55.4263 117.984 55.3268 121.816C55.2846 123.44 55.1963 125.062 55.101 126.683L55.0485 127.568C54.9375 129.434 54.872 131.32 54.5267 133.161C54.4816 133.401 54.0754 133.408 54.0356 133.161C53.7178 131.189 53.7001 129.173 53.639 127.177L53.6261 126.778C53.5527 124.636 53.5178 122.494 53.5253 120.35C53.5524 112.717 53.7508 105.088 53.9131 97.457C53.9946 93.6228 54.0495 89.7869 54.1763 85.954C54.2396 84.0361 54.3114 82.1195 54.3964 80.2024C54.4345 79.3465 54.471 78.4914 54.5278 77.6367L54.5535 77.2704C54.5712 77.0315 54.5854 76.7955 54.6027 76.5616C53.8307 76.8437 53.1246 76.3214 52.4301 75.964C51.6297 75.5521 50.8296 75.1395 50.0288 74.7284L49.2274 74.318L47.6235 73.4993C46.9014 73.1306 46.345 72.7638 45.5748 73.1962C42.8 74.7535 40.2501 76.8257 37.9393 79.0001C37.4962 79.4171 36.5599 79.305 36.4477 78.6061C35.9682 75.6205 36.2598 72.5917 36.5046 69.5971L36.5948 68.4853C36.7042 67.1573 36.8233 65.8294 36.982 64.5069C37.0529 63.9153 37.1236 63.3241 37.2018 62.7336L37.262 62.2909C37.3598 61.591 37.4236 60.8953 37.632 60.224C37.5663 60.2027 37.503 60.1679 37.4464 60.1142C36.8198 59.5195 37.1219 58.4875 37.4079 57.78C37.6902 57.0817 38.1207 56.4723 38.6599 55.9477C38.7774 55.8332 38.9432 55.7595 39.1098 55.7556C40.417 54.8892 41.8511 54.4568 43.3437 54.9297C43.3856 54.7292 43.4283 54.529 43.4734 54.3293L43.5192 54.1298C43.6353 53.6343 43.6784 52.8159 44.1056 52.4845ZM57.5035 130.728C57.9091 130.616 58.3532 130.734 58.6505 131.031C58.9476 131.328 59.0653 131.773 58.9535 132.178C58.8976 132.378 58.7966 132.552 58.6505 132.699C58.5139 132.835 58.3546 132.931 58.1726 132.989L58.1302 133.002L58.0639 133.03C57.8606 133.084 57.6571 133.084 57.4539 133.03C57.2595 132.975 57.0908 132.877 56.9476 132.735C56.8053 132.591 56.707 132.423 56.6525 132.228C56.5978 132.025 56.5978 131.821 56.6525 131.618L56.6802 131.551C56.7361 131.352 56.8371 131.178 56.9832 131.031C57.1303 130.885 57.3038 130.784 57.5035 130.728ZM81.5898 90.2896C81.6565 90.2131 81.7645 90.3111 81.7231 90.3925C81.0913 91.6317 80.387 92.862 79.6949 94.0697C79.7503 94.4044 79.8053 94.7364 79.8686 95.06C80.1382 96.4395 80.4685 97.794 80.6838 99.1865C81.4578 104.192 81.8596 109.252 82.2044 114.302C82.5502 119.37 82.5944 124.441 82.6463 129.52C82.6509 129.96 82.3124 130.471 81.8589 130.554C81.6513 130.592 81.4959 130.585 81.2887 130.554C80.8168 130.485 80.5216 129.944 80.5013 129.52C80.366 126.681 80.1839 123.847 79.973 121.013C79.5992 115.989 79.3707 110.951 79.0687 105.922L78.9624 104.164C78.8482 102.26 78.7438 100.354 78.7098 98.4464C78.6872 97.1827 78.7547 95.9193 78.7132 94.6571C78.6748 93.4917 78.5567 92.2246 78.8136 91.0796C78.8231 91.0367 78.8908 91.0259 78.9104 91.067C79.1775 91.6293 79.3466 92.2406 79.477 92.8645C80.1652 91.9938 80.866 91.1212 81.5898 90.2896ZM36.5106 59.5066C36.6072 59.4994 36.6033 59.6446 36.5106 59.6553C35.16 59.8121 33.8553 60.3619 32.5801 60.8292L32.4708 60.869C31.1825 61.3366 29.9264 61.8804 28.7176 62.5286C26.3542 63.7959 24.1839 65.43 22.2651 67.3007C14.6042 74.7685 11.1129 85.5373 8.55464 95.6572C7.13322 101.28 6.12244 106.997 5.46729 112.759C5.14334 115.608 4.91432 118.468 4.7808 121.333C4.71246 122.801 4.66935 124.271 4.65136 125.74C4.64208 126.493 4.63936 127.246 4.64027 127.999C4.64072 128.344 4.70227 128.778 4.61006 129.113C4.52451 129.423 4.28327 129.697 4.10483 129.955C3.89335 130.262 3.51328 130.246 3.29886 129.955L3.21978 129.849C2.9911 129.546 2.76735 129.256 2.73468 128.859C2.69972 128.434 2.72438 127.996 2.7228 127.569C2.71918 126.708 2.72982 125.848 2.74701 124.988C2.78017 123.339 2.84512 121.691 2.94164 120.044C3.13761 116.703 3.46021 113.369 3.92209 110.054C4.74312 104.163 5.97376 98.327 7.58572 92.6011C9.10648 87.1995 10.9081 81.8139 13.4746 76.8104C15.8576 72.1649 18.9837 67.8431 23.1088 64.5965C25.027 63.0867 27.1152 61.8284 29.3666 60.8808C30.5021 60.4029 31.6945 60.0127 32.9071 59.7903C34.1063 59.5703 35.3003 59.601 36.5106 59.5066ZM57.7356 121.18C57.9498 121.178 58.1886 121.226 58.3724 121.344L58.6179 121.534C58.6845 121.619 58.7507 121.705 58.8166 121.791C58.9702 121.991 58.9905 122.315 58.9585 122.554C58.9513 122.713 58.904 122.861 58.8166 122.998L58.6297 123.24C58.45 123.387 58.3002 123.492 58.0826 123.562C57.9689 123.599 57.8593 123.607 57.7501 123.601L57.7137 123.599L57.7356 123.602L57.6973 123.597C57.6618 123.594 57.6262 123.59 57.5904 123.586C57.5661 123.582 57.5416 123.581 57.5173 123.577C57.4939 123.575 57.4713 123.574 57.4476 123.577C57.1711 123.603 56.893 123.446 56.6967 123.266C56.5199 123.103 56.3611 122.759 56.3858 122.514L56.3963 122.412C56.415 122.24 56.4302 122.173 56.5031 122C56.574 121.831 56.673 121.683 56.8077 121.558C57.0657 121.318 57.3815 121.182 57.7356 121.18ZM56.8796 108.583C57.2467 108.183 57.8771 108.154 58.3323 108.396C58.4432 108.455 58.545 108.549 58.6428 108.628C58.8891 108.828 58.9858 109.187 58.9994 109.49C59.0129 109.789 58.855 110.145 58.6428 110.351L58.5913 110.401C58.4644 110.525 58.2827 110.632 58.1053 110.665C57.8191 110.717 57.5788 110.716 57.3123 110.603C57.0833 110.507 56.8861 110.351 56.7518 110.14L56.73 110.105C56.7208 110.09 56.7121 110.075 56.704 110.06L56.6921 110.036C56.4371 109.546 56.5057 108.99 56.8796 108.583ZM57.0696 95.92C57.2352 95.8681 57.4006 95.8607 57.5662 95.8978C57.6785 95.8981 57.7833 95.9265 57.8804 95.9827C57.9858 96.0123 58.0775 96.0657 58.1551 96.143C58.2486 96.1982 58.3232 96.2727 58.3785 96.3663C58.4886 96.4867 58.5628 96.6278 58.6014 96.7899L58.6457 97.121L58.6014 97.4522L58.4758 97.7498C58.4413 97.7949 58.4065 97.8399 58.3715 97.8847C58.316 97.9786 58.2413 98.0534 58.1475 98.1089C58.0865 98.1695 58.0166 98.2149 57.9384 98.2464C57.6612 98.4452 57.2919 98.51 56.9634 98.4195C56.7683 98.3649 56.5989 98.2661 56.4553 98.1234C56.3126 97.9796 56.2139 97.8101 56.1593 97.6151L56.1368 97.4593C56.1078 97.2504 56.1032 97.1347 56.1624 96.869C56.1883 96.7522 56.2635 96.5875 56.3029 96.5181C56.4713 96.222 56.7464 96.0191 57.0696 95.92ZM71.4437 86.8098C71.9191 86.8064 72.3944 86.8074 72.8697 86.8126L73.2261 86.8174C73.823 86.8268 74.3342 86.7652 74.8034 87.1795C75.144 87.4801 74.994 87.9845 74.6707 88.211C74.1809 88.554 73.5665 88.3815 73.0034 88.3437C72.4096 88.3039 71.8153 88.2708 71.2208 88.2441C70.0697 88.1926 68.9182 88.1598 67.766 88.1547C66.6162 88.1498 65.4648 88.1607 64.3152 88.1792C63.1454 88.1983 61.9274 88.3073 60.7642 88.1861C60.6045 88.1695 60.5685 87.9593 60.7262 87.9046C61.8223 87.5253 63.0553 87.4024 64.2041 87.2574C65.3889 87.1076 66.5737 87.0017 67.766 86.9329C68.9906 86.8627 70.217 86.8184 71.4437 86.8098ZM57.0679 83.084L57.1071 83.0848C57.3163 83.0853 57.5121 83.1345 57.6947 83.2325L57.7336 83.2542L57.9848 83.4482C58.1386 83.6033 58.245 83.7859 58.3039 83.9962L58.3482 84.3263C58.3548 84.4972 58.319 84.6566 58.2414 84.8047C58.1913 84.9586 58.1058 85.0917 57.9848 85.2042C57.8723 85.3253 57.7391 85.4108 57.5854 85.461C57.4488 85.5327 57.3025 85.5686 57.1463 85.5687L57.1071 85.5679C56.8832 85.5672 56.6743 85.5107 56.4808 85.3984L56.2295 85.2042C56.0757 85.0493 55.9692 84.8667 55.9104 84.6564L55.8659 84.3263C55.8596 84.1554 55.8951 83.9958 55.973 83.8479C56.023 83.694 56.1085 83.5607 56.2295 83.4482C56.3419 83.3272 56.475 83.2416 56.629 83.1916C56.7655 83.1198 56.9118 83.0839 57.0679 83.084ZM60.7473 53.9168C61.0146 53.5293 61.4993 53.8739 61.4299 54.1854C61.4482 55.0603 61.4929 55.9094 61.692 56.7664C61.7831 57.1587 61.9024 57.5515 62.0865 57.9109L62.1638 58.0622C62.4022 58.5332 62.5871 58.9774 62.2662 59.494C62.1149 59.7376 61.8416 59.9206 61.5452 59.9078C60.231 59.8511 60.0504 58.021 59.9705 56.9994C59.8881 55.9473 60.1443 54.791 60.7473 53.9168Z" fill="black"/>
<path fill-rule="evenodd" clip-rule="evenodd" d="M51.5056 56.0842C53.5355 57.0838 55.6748 57.5403 58.0121 57.5468C66.4731 57.2882 71.3182 53.4926 71.1828 44.9406C71.2105 44.032 71.4089 42.4365 71.6134 40.7921C71.8226 39.1103 72.0382 37.3774 72.0838 36.2763C73.2428 34.7615 73.8557 32.4603 74.2245 29.9478L74.1945 29.8837C74.9357 23.039 74.054 14.5257 67.7102 10.2707C63.7411 7.18762 58.4632 7.10012 53.6579 7.86159C52.8059 7.87684 52.0107 7.65084 51.2206 7.4263C50.8617 7.32429 50.5038 7.22257 50.1421 7.14392C48.0689 6.70721 45.9307 6.66839 43.8485 7.0356C33.294 8.89291 25.0823 20.0255 24.7195 30.7336C24.3748 37.1171 26.1864 43.0164 31.2019 46.4315C30.9773 46.5032 30.773 46.5894 30.5879 46.6884L41.3272 52.5055C41.4452 52.2528 41.5451 51.9802 41.6246 51.6867C41.7661 51.7913 41.9135 51.9083 42.0656 52.0291C42.7771 52.5941 43.5914 53.2408 44.3894 53.0711C45.9434 54.4577 47.9171 55.0275 49.875 55.5928C50.423 55.751 50.9697 55.9089 51.5056 56.0842Z" fill="#E1BAA9"/>
<path fill-rule="evenodd" clip-rule="evenodd" d="M51.7734 8.55695C48.2197 7.82896 45.5861 7.28942 41.5943 8.64326C31.7491 11.9399 25.4021 22.4412 25.6765 32.6477C25.683 38.4458 28.5502 45.8394 35.0083 46.6624C35.9848 46.7401 36.0001 48.2592 35.0379 48.2137L34.9212 48.2059C33.8893 48.1299 32.8802 47.8534 31.9421 47.4221L40.6247 52.1251C40.7284 52.0002 40.8292 51.8694 40.9269 51.7327C39.2302 49.8431 37.9796 47.0188 37.6903 44.5136C32.9254 46.3666 29.3317 39.5359 32.4319 35.9134C33.5228 34.3541 35.6406 33.3795 37.3865 34.4863C44.6722 31.6763 49.8248 25.799 54.7097 19.9443L55.1623 19.4013L55.4303 19.0957L55.5411 18.9704C55.8187 18.657 56.1809 18.2506 56.5581 17.8276C57.3879 16.8967 58.2897 15.8851 58.5195 15.6054L58.5683 15.5447C58.8244 15.2449 59.3155 15.5349 59.3217 15.8798C59.3263 16.1294 59.3124 16.3825 59.2844 16.635C60.1367 17.186 60.8416 17.9975 61.4879 18.7786L61.6739 19.0043C66.879 23.0996 71.1119 27.3887 72.4286 33.8858C73.2129 32.9682 73.5861 31.7752 73.8513 30.6208L73.8846 30.4737C74.4455 22.5608 72.9382 13.0853 64.7946 9.65274C61.6239 8.07587 58.7302 8.36193 55.5903 8.67232C54.8544 8.74506 54.1051 8.81914 53.3354 8.87089L52.9436 8.79406L52.6946 8.74437C52.3801 8.68124 52.0734 8.61842 51.7734 8.55695ZM30.5898 46.6895L30.8463 46.8285C30.7678 46.7792 30.69 46.7287 30.6131 46.6772C30.6053 46.6813 30.5975 46.6854 30.5898 46.6895Z" fill="#181818"/>
<path fill-rule="evenodd" clip-rule="evenodd" d="M60.0367 48.3262C59.2761 48.0158 58.5974 47.498 58.1012 46.8365C57.9287 46.6066 57.884 46.3637 57.9201 46.1416C57.9608 45.8919 58.1085 45.6656 58.3099 45.5138C58.512 45.3615 58.7647 45.2864 59.009 45.3246C59.2213 45.3579 59.4327 45.4742 59.5999 45.7154L59.6349 45.7636C59.9299 46.1628 60.3143 46.4904 60.7522 46.7015C61.1744 46.9051 61.6465 47 62.1351 46.9448C63.0657 46.8396 63.707 46.3362 64.3887 45.6525C64.4732 45.5662 64.5578 45.4772 64.6428 45.3867C64.6964 45.3048 64.7709 45.2521 64.8536 45.2244C64.9453 45.1937 65.0492 45.1954 65.1443 45.2286C65.236 45.2607 65.318 45.3214 65.373 45.4021C65.4253 45.4789 65.4549 45.5737 65.4453 45.6828C65.3829 46.3913 65.0126 47.0236 64.4867 47.5201C63.9025 48.0716 63.1282 48.453 62.3992 48.5868C61.5961 48.7342 60.7777 48.6286 60.0367 48.3262ZM62.7782 37.3961C63.6326 37.9157 64.9346 39.1272 64.0154 40.4153C62.9334 41.5511 61.3756 40.2489 60.6079 39.6599C59.8961 39.2035 59.0964 40.3774 59.7568 40.9104C65.3039 45.0188 67.555 37.532 63.2104 36.7852C62.732 36.7029 62.5543 37.2354 62.7782 37.3961ZM52.8376 32.6169C52.932 31.4446 54.7167 31.1784 54.8942 32.3384C55.0532 33.3776 54.866 34.3322 54.3982 35.2677C53.9511 36.1615 52.8274 35.7445 52.7425 34.9306C52.6286 33.8397 52.7788 33.3461 52.8376 32.6169ZM66.4232 32.0979C66.672 31.7719 67.0313 31.5493 67.4617 31.6751C68.8065 32.0682 68.4102 33.9782 67.9379 34.9079C67.6812 35.4127 66.8517 35.5407 66.4769 35.0962C65.8658 34.3713 65.5732 32.9237 66.35 32.2096C66.3711 32.1727 66.3945 32.1355 66.4232 32.0979ZM54.3793 27.4873L54.5917 27.4501C55.2489 27.3364 56.066 27.2272 56.5309 27.7557C56.7774 28.036 56.8623 28.5569 56.5309 28.8252C55.9479 29.2972 55.3034 29.1143 54.6048 29.1543C54.0291 29.1873 53.4758 29.2826 52.9212 29.4412C51.7046 29.7891 50.7133 30.4241 49.6742 31.1214C49.5379 31.2128 49.3987 31.0384 49.4638 30.9108C50.0636 29.7355 51.226 28.7701 52.3903 28.1816C53.0117 27.8674 53.6918 27.6069 54.3793 27.4873ZM65.1973 26.9608L65.3599 26.9941C67.1292 27.3641 69.4281 28.1032 70.266 29.8418C70.2979 30.0877 70.2642 30.1404 70.2367 30.1748L70.2276 30.1862C70.205 30.2156 70.187 30.2562 70.0804 30.2896C70.0509 30.2826 70.021 30.2751 69.9909 30.2672C69.6068 30.1665 69.3029 30.0278 69.0087 29.8839L68.6897 29.7267C68.3197 29.5451 67.9463 29.3702 67.5507 29.2411C66.7063 28.9656 65.8378 28.7715 64.9559 28.6679C64.7647 28.6454 64.5807 28.5809 64.4355 28.4703C64.2976 28.3653 64.1923 28.2199 64.1443 28.0267C64.0821 27.7766 64.1 27.5873 64.2341 27.3617C64.3349 27.1923 64.4792 27.0749 64.6449 27.0075C64.8138 26.9387 65.0061 26.9225 65.1973 26.9608Z" fill="black"/>
<path fill-rule="evenodd" clip-rule="evenodd" d="M50.2584 6.58984C30.4912 2.57173 14.9052 32.8564 30.0978 46.3136C30.075 46.3332 30.0525 46.3529 30.0302 46.3727L30.2303 46.5728L30.5103 46.7255C30.5269 46.6974 30.5439 46.6693 30.5613 46.6412C31.8749 47.5317 33.4159 48.1105 35.0079 48.2101L35.0373 48.2119C35.9995 48.2575 35.9842 46.7384 35.0078 46.6606C28.5496 45.8377 25.6824 38.4441 25.676 32.646C25.4016 22.4394 31.7485 11.9381 41.5938 8.64153C45.5855 7.28769 48.2192 7.82723 51.7728 8.55522C52.1515 8.6328 52.5407 8.71253 52.9431 8.79233L53.3349 8.86916C54.1045 8.81741 54.8539 8.74333 55.5897 8.67059C58.7297 8.3602 61.6234 8.07414 64.7941 9.65101C72.9377 13.0836 74.445 22.5591 73.884 30.4719C73.6165 31.6715 73.2457 32.9274 72.428 33.8841C71.1113 27.387 66.8785 23.0979 61.6734 19.0026C60.9762 18.1553 60.2186 17.2376 59.2838 16.6333C59.3118 16.3807 59.3257 16.1276 59.3212 15.878C59.3149 15.527 58.8062 15.2328 58.5543 15.5596C58.4035 15.7551 57.4399 16.8361 56.5575 17.8258C56.1279 18.3077 55.7176 18.768 55.4298 19.094L55.1617 19.3996C50.1409 25.4307 44.897 31.5877 37.3859 34.4846C35.6401 33.3778 33.5223 34.3524 32.4313 35.9117C29.3312 39.5342 32.9249 46.3649 37.6898 44.5118C37.9791 47.0171 39.2297 49.8413 40.9263 51.731C40.8072 51.8977 40.6835 52.0555 40.5555 52.2047L41.8103 52.8892C41.8546 52.8107 41.8977 52.7305 41.9396 52.6483C42.6801 53.2193 43.7159 53.9773 44.68 53.5266C44.8804 53.4314 44.9349 53.1394 44.8282 52.9604C44.5439 52.4831 44.0123 52.207 43.4918 51.9367C43.2025 51.7865 42.9168 51.6381 42.6787 51.458C40.4091 49.6249 39.0673 46.8686 38.1957 44.1281C38.6331 43.2807 37.7948 43.1838 36.7529 43.0634C35.8924 42.9639 34.893 42.8484 34.3584 42.281C31.1722 39.8598 34.2606 34.0115 38.0213 35.5941C38.0736 35.6534 38.1258 35.7154 38.1785 35.7782C38.4388 36.0881 38.7144 36.4163 39.108 36.5171C39.3618 36.5822 39.5548 36.2636 39.3655 36.0738C39.1039 35.8605 38.8672 35.6207 38.6304 35.3809C38.4612 35.2095 38.292 35.0381 38.1136 34.8763C43.9792 34.48 48.1698 29.9854 52.0453 25.8285C52.7703 25.0508 53.4843 24.285 54.1962 23.5601C55.1265 22.5826 56.0438 21.5964 56.9591 20.6061L57.8742 19.6146C58.2789 19.221 58.7152 18.7618 58.8926 18.2222C59.5404 18.3326 60.0324 18.8375 60.4983 19.3554L60.634 19.507C61.2532 20.1603 61.9 20.8162 62.5549 21.4803C66.696 25.6799 71.1588 30.2056 70.9804 36.4518C70.7572 37.8512 70.7029 39.5097 70.6458 41.2572C70.4702 46.6236 70.2671 52.8294 65.0607 54.9481L64.9441 54.9974C61.0905 56.613 56.4731 57.1922 52.5691 55.4626C52.3622 55.3664 52.1633 55.2566 51.9651 55.1472C51.59 54.9402 51.2176 54.7346 50.7981 54.625C50.3 54.4949 49.7011 55.1055 50.0629 55.5837C50.7474 56.4889 51.9696 56.9677 53.0476 57.327L53.2889 57.4064C59.0927 59.0692 67.1868 57.8443 70.329 52.1366C71.3507 50.0118 71.6101 47.6352 71.7305 45.3051L71.7537 44.8316C71.8159 43.6672 72.0452 41.8298 72.2556 40.1437C72.4548 38.5466 72.6372 37.0854 72.6446 36.4604C73.9643 34.5478 74.5561 32.0871 74.7728 29.7863C74.9622 28.0358 74.9765 26.2768 74.903 24.5193C75.3445 14.2439 66.8032 5.36246 56.3624 6.99689C54.2906 7.4945 52.259 7.26143 50.2584 6.58984ZM36.98 38.4845C36.7686 38.2468 34.5283 38.2835 34.8673 38.587C35.8424 38.6572 36.51 39.4022 37.0608 40.0168C37.6205 40.6414 38.0595 41.1313 38.5779 40.6416C39.2991 39.6952 37.8304 38.7838 37.0283 38.5011L36.98 38.4845Z" fill="black"/>
</svg>
