<svg width="92" height="135" viewBox="0 0 92 135" fill="none" xmlns="http://www.w3.org/2000/svg">
<path fill-rule="evenodd" clip-rule="evenodd" d="M88.8113 131.968C90.9818 131.863 90.1088 128.065 89.953 126.67C88.2345 121.575 88.6385 116.017 87.9626 110.677C87.5416 105.692 87.0006 100.722 86.5455 95.7409C85.6517 85.6294 79.2333 65.0452 71.9088 61.7347C70.9861 57.6847 67.1753 53.9041 62.3537 53.9041C59.0651 50.0099 55.1069 47.2693 50.03 47.8226C47.932 47.9181 45.8974 50.1441 43.8871 50.574C42.7615 50.7293 32.7723 50.3297 30.7714 51.5185C29.3776 52.2344 28.1193 53.5574 28.5291 55.2418C29.183 57.2824 27.1509 55.0744 22.9119 57.2524C14.2679 62.4459 19.4332 69.3937 19.6621 69.6089C14.2679 77.117 9.55318 83.2081 7.37172 92.3851C5.95792 99.1983 6.11707 106.232 4.93251 113.08C4.51425 115.454 3.87261 117.748 3.17829 120.054C2.42579 123.071 2.05989 130.593 1.64512 130.66C0.88959 130.848 2.08178 132.4 2.88234 132.401C25.0781 136.084 47.6236 132.554 69.9386 131.977C76.2274 131.758 82.5229 131.708 88.8113 131.968Z" fill="#D7A088"/>
<path fill-rule="evenodd" clip-rule="evenodd" d="M43.915 57.1853C43.915 59.5484 52.1172 68.3293 54.9479 67.75C56.835 67.3638 59.6862 64.8452 63.5016 60.1941V57.1853L62.6776 53.9098C67.3453 54.0744 71.0069 57.7758 71.9088 61.7347C79.1601 65.0121 85.5232 85.2194 86.517 95.4344L86.5455 95.7409C87.0006 100.722 87.5416 105.692 87.9626 110.677C88.6385 116.017 88.2345 121.575 89.953 126.67L89.9632 126.757C90.1425 128.215 90.9384 131.865 88.8113 131.968C82.5229 131.708 76.2274 131.758 69.9386 131.977C47.6236 132.554 25.0781 136.084 2.88234 132.401C2.08178 132.4 0.88959 130.848 1.64512 130.66C2.05989 130.593 2.42579 123.071 3.17829 120.054L3.32113 119.577C3.96005 117.431 4.5431 115.291 4.93251 113.08C6.11707 106.232 5.95792 99.1983 7.37172 92.3851C9.55318 83.2081 14.2679 77.117 19.6621 69.6089C19.4332 69.3937 14.2679 62.4459 22.9119 57.2524C27.1509 55.0744 29.183 57.2824 28.5291 55.2418C28.1193 53.5574 29.3776 52.2344 30.7714 51.5185C32.7723 50.3296 42.7615 50.7293 43.8871 50.574C44.41 50.4622 44.9345 50.2289 45.4614 49.9431L45.37 50.2476C44.4 53.4998 43.915 55.8124 43.915 57.1853Z" fill="#96A3AB"/>
<path fill-rule="evenodd" clip-rule="evenodd" d="M55.1702 70.2717C55.1805 70.17 55.3176 70.1703 55.3281 70.2717L55.4848 71.7851C55.6755 73.6334 55.859 75.478 55.9921 77.3349C56.158 79.6505 56.269 81.9655 56.3224 84.2862C56.5089 92.3688 56.5459 100.456 56.5617 108.54C57.6546 108.465 58.7476 108.392 59.8412 108.321C60.5831 108.273 61.3251 108.227 62.0672 108.182L63.9594 108.067L64.7384 108.019C65.2648 107.987 65.8629 107.854 66.2309 108.321C66.3783 108.507 66.4522 108.75 66.3148 108.972C65.998 109.483 65.5113 109.465 64.9609 109.487C64.4416 109.508 63.9222 109.529 63.4029 109.549C62.29 109.592 61.1772 109.633 60.0639 109.664C58.8956 109.697 57.7279 109.724 56.5601 109.744C56.5483 113.157 56.4071 116.565 56.2545 119.975L56.1854 121.509C55.9986 125.658 55.7977 129.81 55.5123 133.954C55.4888 134.293 55.0092 134.292 54.9859 133.954C54.6645 129.288 54.4524 124.611 54.2422 119.939C54.0897 116.551 54.0009 113.163 53.9587 109.774C53.8043 109.775 53.6499 109.777 53.4956 109.778C49.1124 109.797 44.7303 109.816 40.347 109.775C40.3543 109.783 40.3615 109.792 40.3663 109.803C40.6835 110.552 40.7137 111.508 40.706 112.312C40.6971 113.234 40.573 114.145 40.3607 115.042C39.6002 118.254 37.6386 121.131 35.4044 123.509L35.3315 123.587C34.8045 124.144 34.1999 124.703 33.8763 125.413C33.5458 126.137 33.4311 126.985 33.268 127.763L33.249 127.853L32.6112 130.799C32.4086 131.735 32.3511 133.1 31.6105 133.776C30.9196 134.406 30.0042 134.077 29.6791 133.265C29.4251 132.632 29.6781 131.937 29.8285 131.304L31.0067 126.349C31.2004 125.541 31.4119 124.728 31.8298 124.002C32.2578 123.258 32.8853 122.719 33.5256 122.168C34.738 121.124 35.851 119.928 36.7923 118.634C37.7333 117.34 38.5374 115.914 39.1014 114.414C39.3837 113.663 39.6151 112.883 39.7747 112.097C39.9264 111.351 39.9251 110.578 40.0874 109.84C40.0985 109.789 40.1415 109.754 40.1908 109.738C40.1791 109.706 40.197 109.661 40.243 109.658L43.8278 109.428C47.0143 109.222 50.2007 109.011 53.3843 108.77L53.9469 108.729C53.9032 104.208 53.9403 99.685 54.0219 95.1615C54.0967 91.0134 54.0983 86.8641 54.2216 82.7166C54.2829 80.6581 54.4151 78.6044 54.5623 76.5502C54.7128 74.4494 54.9537 72.3663 55.1702 70.2717ZM21.5111 94.3234C21.4729 94.0931 21.7626 93.9504 21.8961 94.1611C23.4226 96.568 24.1585 99.1824 24.4687 101.999C24.7428 104.485 24.662 107.007 24.5256 109.499C24.38 112.158 24.2102 114.815 24.0385 117.472L23.7746 121.547L23.1126 131.761C23.0652 132.491 22.8994 133.156 22.2706 133.495C22.1909 133.562 22.1079 133.622 22.0112 133.673C21.6715 133.855 21.2209 133.763 21.0244 133.414L21.1032 133.466C21.1718 133.51 21.0948 133.449 20.872 133.285L20.683 133.041C20.5457 132.834 20.4579 132.631 20.4227 132.386C20.3679 132.004 20.4388 131.586 20.4638 131.202L20.8978 124.505C21.2353 119.298 21.6294 114.092 21.9264 108.883C22.0648 106.455 22.1617 104.024 22.0961 101.592C22.0308 99.173 21.9076 96.7132 21.5111 94.3234ZM34.7161 49.4868L34.8008 49.4726C37.8327 48.9688 41.1295 49.063 43.9004 50.5251C43.9233 50.5371 43.9128 50.5752 43.8871 50.5741L42.9952 50.5385C40.1718 50.4279 37.3571 50.3624 34.581 51.026L34.2968 51.0945C33.297 51.3385 32.2529 51.6371 31.4499 52.2977C30.6824 52.9291 30.3001 53.9031 29.9327 54.7999L29.8835 54.9182C29.5107 55.8038 29.0387 56.6438 28.2215 57.1976C27.1629 57.9147 25.8898 57.8269 24.6761 57.9243C22.539 58.0961 20.7917 59.6455 19.9224 61.5415C19.396 62.6896 19.1715 63.9767 19.127 65.2322C19.1042 65.8714 19.101 66.5355 19.1861 67.1705C19.2133 67.3735 19.4642 68.1132 19.5921 68.0954C19.8764 68.056 20.1363 68.2043 20.2249 68.4316C20.9271 67.7529 21.6495 67.0939 22.3951 66.4585C24.2538 64.875 26.2558 63.4399 28.3641 62.2067C29.9732 61.2653 31.6705 60.3328 33.4281 59.6277C33.2888 59.6248 33.1514 59.6524 33.0186 59.7215C32.9604 59.752 32.9026 59.679 32.9485 59.6306C33.5021 59.048 34.1652 58.965 34.8337 59.1204C34.9763 59.075 35.1191 59.0311 35.2624 58.9894C35.3337 58.9686 35.3692 59.067 35.311 59.1049L35.1468 59.2099C35.876 59.4542 36.592 59.9346 37.1589 60.3137C38.7872 61.4023 40.2204 62.7332 41.6733 64.0391L41.9375 64.2758C43.2163 65.4181 44.5278 66.5282 45.9807 67.4446C46.7413 67.9243 47.5402 68.368 48.3782 68.698C49.0969 68.9812 50.2671 69.1595 50.6037 69.9194C50.9029 70.283 50.7779 70.747 50.4274 70.9917C49.8364 71.6424 48.6542 71.2221 47.95 70.9511C47.1011 70.6243 46.2786 70.2316 45.4942 69.7711C43.9714 68.8767 42.5672 67.7647 41.2592 66.5818C39.8932 65.3464 38.6046 64.0339 37.2759 62.7597C36.7002 62.2076 36.1378 61.6425 35.5613 61.0912L35.2717 60.8168C34.9774 60.5407 34.5582 60.1104 34.1099 59.85C33.2654 60.3539 32.4079 60.837 31.5711 61.354C30.4029 62.0755 29.2691 62.8491 28.1528 63.6482C26.0038 65.1865 23.9674 66.9094 22.0768 68.7561C18.6095 72.1427 15.6554 76.0101 13.0748 80.105L12.8788 80.4171C11.4124 82.7609 10.0256 85.1804 9.04232 87.7702C7.96041 90.6202 7.43422 93.6171 7.14838 96.6423C6.86468 99.6458 6.76899 102.665 6.45193 105.665C6.12678 108.743 5.48615 111.752 4.75746 114.756L4.58367 115.469C3.92433 118.159 3.24379 120.849 2.90486 123.603C2.72392 125.074 2.61509 126.565 2.63969 128.048C2.6644 129.54 2.89868 130.998 3.0877 132.474C3.16015 133.039 2.60397 133.511 2.10631 133.586C1.53397 133.672 1.04226 133.307 0.864355 132.775C0.309753 131.117 0.209008 129.284 0.226416 127.544C0.243937 125.777 0.46935 124.022 0.786522 122.285C1.41031 118.87 2.37294 115.525 3.17823 112.15C3.88793 109.176 4.36425 106.197 4.621 103.15C4.88752 99.9884 5.04712 96.8166 5.53332 93.6781C6.01324 90.5797 6.91623 87.6202 8.27803 84.795C9.51796 82.2227 11.0636 79.8015 12.6841 77.4547C14.6519 74.605 16.8131 71.8933 19.229 69.4226C19.012 69.4131 18.7892 69.343 18.5845 69.2154C17.9585 68.8247 17.667 68.0606 17.5773 67.3628C17.3675 65.7306 17.4182 64.0266 17.8378 62.4308C18.5147 59.8565 20.2715 57.5691 22.8176 56.6412C23.473 56.4023 24.1697 56.3151 24.8642 56.2979C25.5233 56.2815 26.2431 56.3675 26.879 56.1585C27.8912 55.8256 28.3251 54.6331 28.7051 53.729L28.7226 53.6875C29.2099 52.5355 29.7949 51.5481 30.8504 50.8288C31.9765 50.0612 33.3874 49.7122 34.7161 49.4868ZM63.5239 54.0427C64.4349 53.7265 65.574 54.0134 66.465 54.2896C67.4576 54.5975 68.3749 55.1644 69.1613 55.8378C69.991 56.5479 70.6766 57.4247 71.161 58.4042L71.2073 58.4986C71.6498 59.4072 72.1537 60.6546 71.9306 61.6528C71.9242 61.6811 71.9169 61.7084 71.9086 61.7348C73.7163 62.625 75.3857 63.7401 76.8395 65.1533C78.5322 66.7988 79.9656 68.6712 81.1786 70.6941C85.9961 78.7284 86.844 88.3776 87.413 97.5402L87.5549 99.8634C87.8638 104.88 88.2254 109.885 89.1646 114.832L89.2331 115.189C90.237 120.369 91.6741 125.589 91.5285 130.903C91.4848 132.495 89.1328 132.484 89.0646 130.903C88.8079 124.951 87.4195 119.204 86.4793 113.345C84.825 103.037 85.6539 92.4108 83.3099 82.2063C82.3901 78.2016 80.9652 74.3171 78.9304 70.7425C77.9253 68.9766 76.7753 67.2702 75.4283 65.7468C74.2693 64.4359 73.0647 63.1744 71.7104 62.0724C71.2775 62.5061 70.4128 62.285 70.1868 61.6528C70.0316 61.2183 70.0769 60.7104 69.9772 60.2552C69.8848 59.8329 69.7573 59.4141 69.5875 59.0164C69.249 58.2237 68.7521 57.4625 68.1786 56.8209C67.5589 56.1274 66.8467 55.5513 66.0499 55.0755C65.2475 54.5966 64.37 54.4535 63.5239 54.1035C63.4953 54.0918 63.4926 54.0536 63.5239 54.0427ZM67.0637 109.131C67.0651 109.089 67.1144 109.069 67.1447 109.097C67.4641 109.391 67.6572 109.813 67.8923 110.175C68.1634 110.592 68.4481 111 68.7466 111.398C69.3448 112.196 70.0107 112.947 70.6819 113.683C71.3061 114.368 71.9715 115.024 72.6616 115.642C73.4094 116.312 74.2474 116.91 74.9268 117.652C76.3444 119.199 76.5734 121.324 76.8725 123.318L76.9053 123.534C77.0877 124.718 77.2511 125.905 77.3984 127.094C77.4701 127.672 77.5415 128.251 77.5999 128.83L77.6178 129.014C77.6698 129.581 77.6839 130.157 77.3581 130.653C77.0094 131.183 76.2166 131.369 75.7452 130.861C74.9353 129.987 75.0872 128.435 74.9818 127.311C74.8948 126.381 74.796 125.453 74.6855 124.526L74.6292 124.062C74.499 123.008 74.3932 121.932 74.152 120.896C73.9394 119.983 73.5343 119.294 72.8696 118.633C72.2 117.967 71.5043 117.346 70.8862 116.629C70.2306 115.868 69.6393 115.052 69.1065 114.201C68.6508 113.473 68.2855 112.681 67.9508 111.889L67.8953 111.757C67.5718 110.986 67.0385 109.981 67.0637 109.131ZM78.757 75.9804C78.764 75.8727 78.9231 75.871 78.9254 75.9804C78.9455 76.9062 78.9649 77.832 78.9841 78.7579C79.1386 86.2187 79.0434 93.697 79.7916 101.132C80.1445 104.638 80.7943 108.092 81.5463 111.532C81.9311 113.292 82.3347 115.048 82.7183 116.808C83.092 118.523 83.4929 120.247 83.7894 121.979C84.0808 123.681 84.3417 125.396 84.4588 127.119L84.4733 127.344C84.5237 128.179 84.7644 129.407 84.3048 130.147C83.8068 130.949 82.8534 130.963 82.3198 130.198C81.8187 129.479 81.9433 128.201 81.8548 127.344C81.7648 126.471 81.6697 125.597 81.5617 124.725C81.3509 123.026 81.0731 121.33 80.7842 119.642C80.1826 116.127 79.3099 112.655 78.6658 109.146C78.0056 105.549 77.5364 101.927 77.5166 98.2652C77.4969 94.5724 77.8877 90.8868 78.0849 87.202C78.2853 83.4596 78.513 79.72 78.757 75.9804ZM43.5268 52.7748C43.727 52.1003 44.4337 51.6787 45.1231 51.8681C45.7548 52.0418 46.2764 52.8089 46.0294 53.4651C45.7599 54.1813 45.2888 54.792 44.8917 55.4428C44.5249 56.0443 43.9898 56.5179 43.6162 57.1086L44.0279 57.5527C44.2339 57.7743 44.4405 57.9945 44.6494 58.2109L45.3676 58.9551C45.927 59.5335 46.4898 60.1088 47.0686 60.6671C48.7703 62.3092 50.499 63.8974 52.4049 65.3036C52.8387 65.6236 53.276 65.9418 53.7255 66.2398L53.8931 66.3509C54.2014 66.5529 54.5455 66.7514 54.918 66.7172C55.8232 66.634 56.6411 65.6724 57.2631 65.0738L57.2957 65.0426C58.8372 63.5754 60.2645 61.9711 61.5125 60.2462C61.7895 59.863 62.0578 59.4732 62.3191 59.0788C61.7157 58.3738 61.8598 56.9975 61.8266 56.1425C61.8031 55.5413 61.8013 54.9399 61.7981 54.3383L61.7964 54.2169C61.7891 53.8275 61.7715 53.454 62.0242 53.1336C62.0389 53.115 62.0693 53.1156 62.0881 53.1254C62.4341 53.3068 62.5407 53.6104 62.6883 53.9511L62.7038 53.9865C62.8835 54.3953 63.0555 54.808 63.2296 55.2193C63.4119 55.6498 63.579 56.0867 63.7484 56.5224C63.8272 56.7251 63.9025 56.9285 63.976 57.1331C64.0209 57.2638 64.0672 57.3938 64.1149 57.5236L64.1261 57.5336C64.189 57.587 64.2423 57.6434 64.2883 57.7016C64.4813 57.7982 64.6348 57.9742 64.7067 58.2329C64.8634 58.7959 64.5392 59.255 64.25 59.7018C63.0752 61.5175 61.736 63.2477 60.2474 64.8172C59.5079 65.597 58.7301 66.3417 57.9203 67.0481L57.7788 67.1707C57.0513 67.7961 56.2616 68.3885 55.2901 68.5348C54.1532 68.7059 53.2279 68.1403 52.3576 67.4888L52.2708 67.4234C51.4457 66.7985 50.6373 66.1518 49.854 65.4753C48.257 64.096 46.7378 62.615 45.3895 60.9902C44.0779 59.4098 42.7815 57.6427 41.973 55.741C41.9237 55.6252 42.0533 55.504 42.1549 55.6007C42.5498 55.9768 42.9297 56.3733 43.3052 56.7748C43.3156 56.1837 43.2066 55.5876 43.2672 54.9927C43.3412 54.2697 43.3199 53.471 43.5268 52.7748Z" fill="black"/>
<path fill-rule="evenodd" clip-rule="evenodd" d="M52.7066 6.59607C57.7244 6.59607 63.7449 9.03473 64.2568 9.0835L64.2706 9.08424C64.5399 9.08424 65.5922 9.88796 67.4275 11.4954L65.4397 15.3823L65.6005 15.5363C66.3703 16.2762 67.0275 16.9506 67.5463 17.4822C71.7818 21.823 72.5431 38.8664 71.5449 44.81C70.5467 50.7536 68.6979 56.5695 60.0906 56.5695C51.4834 56.5695 41.9076 51.3812 40.4325 49.7655C39.4491 48.6883 38.3445 48.1723 37.1187 48.2173C37.0683 48.1536 37.0183 48.0901 36.9688 48.0267L36.7884 48.0011C35.0919 47.7548 33.8763 47.4232 33.1417 47.0066C31.7067 46.1927 30.1296 41.9142 30.1296 40.9718C30.1296 40.0387 27.7746 33.2509 27.7275 32.5326L27.7267 32.5127C27.7267 31.9123 24.6501 29.1519 24.6501 28.2753C24.6501 27.3987 24.03 27.4519 24.6501 24.3628L24.8303 23.4553C25.4902 20.1663 26.7819 14.7202 31.7067 12.3537C37.1187 9.75318 47.6381 6.59607 52.7066 6.59607Z" fill="#D7A088"/>
<path fill-rule="evenodd" clip-rule="evenodd" d="M38.4585 33.5175C38.4585 33.5175 36.1982 34.5907 33.9378 36.3425C31.6775 38.0943 32.7935 38.1521 32.7935 38.1521C32.7935 38.1521 32.6963 41.9063 33.3928 43.3955C34.0894 44.8847 38.2148 45.1483 38.2148 45.1483L38.9135 47.4939L38.8169 48.581C38.2792 48.3387 37.713 48.2284 37.1182 48.2503C37.0678 48.1866 37.0178 48.123 36.9683 48.0597L36.7879 48.034C35.0914 47.7877 33.8758 47.4562 33.1412 47.0395C31.7063 46.2257 30.1291 41.9472 30.1291 41.0047C30.1291 40.4806 29.386 38.1091 28.7263 36.0037C28.2116 34.361 27.7476 32.8804 27.727 32.5656L27.7263 32.5457C27.7263 32.2738 27.0953 31.5589 26.4049 30.7767C25.5707 29.8315 24.6496 28.7879 24.6496 28.3083C24.6496 28.0525 24.5968 27.8758 24.5375 27.6772C24.3933 27.1951 24.2105 26.5834 24.6496 24.3957L24.8298 23.4882C25.4897 20.1992 26.7814 14.7532 31.7063 12.3867C37.1182 9.78614 47.6376 6.62903 52.7061 6.62903C56.6587 6.62903 61.2335 8.14221 63.2479 8.8085C63.7907 8.98806 64.1476 9.10611 64.2563 9.11646L64.2701 9.1172C64.5394 9.1172 65.5917 9.92092 67.427 11.5283L66.9607 12.4401C60.8994 12.6176 50.932 13.1597 46.581 14.8151C40.1115 17.2765 38.4585 33.5175 38.4585 33.5175Z" fill="#51637B"/>
<path fill-rule="evenodd" clip-rule="evenodd" d="M30.8716 12.2316C33.5707 9.35954 48.8939 4.91717 56.6464 5.85885L56.879 5.88904C57.4976 5.96769 58.1073 6.08679 58.709 6.24858C60.654 6.70396 62.6631 7.3935 64.2701 8.54527C65.6118 9.48749 69.8441 11.0262 68.5967 13.4911C69.0593 14.3696 69.2319 15.455 68.9193 16.3203C68.8799 16.6191 68.788 16.8944 68.6705 17.1798C69.6586 18.6417 70.4411 20.2949 71.0744 21.8673C72.1811 25.8246 72.8699 29.943 72.9707 33.9805C73.3063 41.6514 72.4673 50.8142 65.803 55.7745C61.7771 58.9177 55.4708 59.0233 50.9467 55.1261C50.6899 54.8215 49.4825 53.9995 49.8854 53.8554C50.0053 53.9823 50.1286 54.1059 50.2541 54.2273C50.2484 54.2138 50.2473 54.2003 50.2497 54.1857L50.1316 54.0785C49.9093 53.8723 49.6212 53.5732 49.9493 53.6318C49.9637 53.6486 49.9796 53.6632 49.9951 53.6801C50.0646 53.7219 50.1171 53.7581 50.1579 53.79L50.179 53.8069L50.1725 53.8001C49.9835 53.5981 49.8702 53.3921 50.1527 53.5236L50.1901 53.5419C50.3158 53.6745 50.4434 53.8014 50.5734 53.925C50.5713 53.9104 50.5734 53.8958 50.5814 53.8801L50.4602 53.7627C50.3419 53.6464 50.3599 53.6459 50.4178 53.552C50.1663 53.1986 50.6358 53.4085 50.6687 53.5464C50.9625 53.4767 51.2203 54.0295 51.4095 54.0969C59.703 60.4889 71.7386 54.8172 71.5437 37.0059L71.5407 36.6574C71.4837 30.962 71.0056 25.1083 68.6558 19.9528C68.4273 19.4561 68.1716 18.973 67.8904 18.5056C67.6965 18.155 67.4892 17.8135 67.2662 17.4809C66.6418 17.4303 66.0254 17.3157 65.418 17.1382C65.2095 17.0854 65.0032 17.027 64.7971 16.9584C61.7845 17.1232 58.8391 17.3024 55.818 17.4723L54.8744 17.5312C52.3153 17.6961 49.6686 17.9603 47.6034 19.5472C45.5771 20.9918 45.5679 23.8407 43.8333 25.4268C41.3598 27.1098 41.3417 28.6274 40.8654 31.1076C40.9007 32.9772 42.1939 35.6936 39.8209 36.4805C40.2212 37.0527 39.6632 36.7778 39.6192 36.5771C39.6148 36.5782 39.6103 36.5793 39.6069 36.5793C39.9637 37.2442 39.4392 36.8255 39.3928 36.6119C39.3648 36.6041 39.3368 36.5838 39.3088 36.5558C39.6682 37.1382 39.0872 36.7304 39.1216 36.6243C38.4271 35.5541 36.9977 35.3879 35.9901 35.6715C35.9778 35.7097 35.9331 35.7131 35.905 35.6929C31.6207 36.6236 32.7261 45.5151 37.1166 44.6556C37.3045 44.6171 37.3001 44.7076 37.3374 44.7162C37.2359 44.4493 37.5219 44.5579 37.5188 44.614L37.5362 44.6131C37.55 44.6119 37.5444 44.6104 37.5547 44.614C37.4566 44.0681 38.0085 44.859 37.9649 44.8915C37.9818 44.8814 38.0009 44.8758 38.0177 44.8735L37.9987 44.8217C37.9071 44.5771 37.9149 44.6788 37.9156 44.5387C37.8468 44.3656 37.8417 44.4413 37.8579 44.3285C38.0997 44.1406 38.1711 44.7105 38.2518 44.7522C38.1135 44.5589 38.2234 44.4011 38.3539 44.506C39.3428 46.5911 40.6201 48.5503 42.2708 50.0936C42.4514 50.2363 42.6341 50.3768 42.8234 50.5094C43.5255 51.1225 44.6026 51.5168 45.2599 52.0599C45.2599 52.0689 45.2555 52.0801 45.2488 52.0914L45.2639 52.105L45.2791 52.1194L45.5077 52.2295C45.575 52.2869 45.6355 52.3509 45.6892 52.4217C45.7464 52.488 45.7968 52.561 45.8395 52.6385C45.8608 52.7329 45.8137 52.7722 45.724 52.7318C45.6847 52.7183 45.6456 52.7026 45.6063 52.688C45.6086 52.6913 45.6096 52.6936 45.6119 52.6958C45.6248 52.7153 45.7119 52.9177 45.6116 52.8847L45.5996 52.8801C45.5446 52.8599 45.4898 52.8374 45.436 52.8161C45.4999 52.8958 45.558 52.9823 45.6096 53.0554C45.6646 53.1127 45.6981 53.1801 45.7117 53.2565C45.7093 53.2992 45.6859 53.3172 45.6433 53.3116C45.5783 53.2902 45.5144 53.2677 45.4504 53.2441L45.4686 53.2789C45.5139 53.3681 45.5781 53.5176 45.464 53.4677C45.3664 53.4374 45.2724 53.4026 45.1782 53.3644C45.1703 53.3801 45.1547 53.3857 45.1233 53.3711C44.8241 53.2644 44.5349 53.134 44.2581 52.9801C44.0149 52.8026 43.7693 52.6284 43.5251 52.452C43.2952 52.3138 43.0733 52.1599 42.8616 51.9869C41.4443 51.0691 40.2035 49.9033 39.2191 48.6049C37.5728 50.0342 34.2813 48.6687 32.2452 47.5499C30.4442 46.5499 29.7364 44.701 29.5534 42.7075C29.1729 40.0238 26.9851 39.1051 27.1373 33.2165C27.134 33.2176 27.1305 33.2176 27.126 33.2176C27.0464 33.194 26.9692 33.1626 26.8964 33.1221C26.8213 33.0862 26.7507 33.0435 26.6844 32.9918L26.6026 32.8783C26.5601 32.8547 26.522 32.83 26.4929 32.8053L26.4778 32.8248C26.4299 32.8827 26.4621 32.7956 26.4649 32.7783L26.3227 32.5845C25.9857 32.1233 25.616 31.6057 25.3149 31.1918L25.3054 31.2086C25.2986 31.2213 25.295 31.2305 25.2982 31.2345C24.5814 30.2022 23.9074 28.9553 23.7201 27.7481C23.499 26.8182 23.5854 25.86 23.7783 24.9987C24.6053 21.9825 27.3144 15.157 30.8716 12.2316ZM50.3221 53.9445L50.2772 53.9044L50.3167 53.954C50.3374 53.9796 50.3585 54.0027 50.393 54.0262C50.3908 54.0183 50.3908 54.0105 50.3918 54.0015C50.3689 53.984 50.3455 53.9648 50.3221 53.9445ZM56.6117 7.37436C51.3544 6.92123 46.1836 8.08232 41.1668 9.4878L40.8208 9.58751C37.9682 10.4035 34.9519 11.1378 32.5412 12.8843C29.1732 15.4705 27.434 19.5845 25.9163 23.383C24.591 26.2052 25.2685 29.3875 27.2657 31.3581C27.4735 29.3998 27.8278 27.4988 28.3814 25.6132C28.497 25.3186 28.4095 25.222 28.6586 25.1836C29.0347 30.2653 27.1822 34.0198 30.8482 40.0424C32.4389 42.8841 30.5975 44.9634 35.0895 46.4588L35.2111 46.5053C36.1469 46.8593 37.1689 47.1388 38.0855 46.9409L38.0034 46.807C37.9197 46.6691 37.8942 46.6021 38.016 46.5431C38.0128 46.5364 38.0083 46.5296 38.0037 46.5218C37.9052 46.3353 37.8099 46.1465 37.719 45.9555C37.6822 45.9679 37.6452 45.9769 37.607 45.987C37.6317 46.033 37.635 46.0791 37.5656 46.0948C37.3186 46.1798 37.065 46.2138 36.8054 46.1979L36.7497 46.1937C36.4564 46.1757 36.2716 46.1221 36.1063 46.0724C36.0515 46.0634 35.9965 46.0544 35.9426 46.0431C35.4108 45.9249 34.8479 45.6243 34.4835 45.3263C30.3302 42.9614 30.7594 34.9111 35.8789 34.1502C35.9839 29.0815 38.3887 20.5302 42.3797 15.7004C45.9872 11.2576 55.8358 9.33207 62.6877 10.011C62.7875 10.0442 62.8874 10.0777 62.9873 10.1115C64.0444 10.2056 65.0518 10.6778 66.1097 10.8971C65.3502 10.3264 64.4885 9.94632 63.601 9.6233C61.8327 8.53894 59.8054 7.95221 57.8469 7.5384C57.4412 7.4384 57.0299 7.38335 56.6117 7.37436ZM35.6453 38.222C35.9205 38.0721 35.889 38.2168 35.9523 38.1748C37.9323 38.0129 40.0672 39.7507 41.174 41.1994C41.0865 41.2904 40.8501 41.0208 40.8086 40.9781C40.803 40.9837 40.7963 40.9882 40.7895 40.9905L40.8204 41.0341C41.2689 41.6794 40.3797 40.92 40.2964 40.7635C40.2818 40.7714 40.2673 40.7759 40.2505 40.7725C40.321 40.8418 40.5363 41.0226 40.5732 41.1511L40.6303 41.1987C41.1686 41.6608 41.1239 42.0084 40.5128 41.3522C40.5273 41.3826 40.5329 41.4107 40.5228 41.4331L40.5438 41.4472C40.8443 41.6577 41.0914 42.2445 40.4634 41.6421C40.5287 42.0821 39.841 41.2317 39.819 41.2376C38.6289 40.3011 36.8769 39.3904 35.3841 39.268L35.3327 39.2621C35.0588 39.2268 34.9293 39.1453 35.0255 38.9658C34.6881 38.8853 34.7671 38.7188 34.9268 38.7242C34.6889 38.5674 34.9031 38.4174 35.0412 38.4759C34.9462 38.2124 35.327 38.3879 35.3617 38.3512C35.5593 38.0457 35.6125 38.3005 35.6453 38.222ZM31.4951 21.8909C32.4461 21.5417 35.255 22.5871 35.0303 23.9716C34.8965 24.2894 34.4556 24.4715 34.1457 24.2921L33.7412 24.0198C33.0374 23.5472 32.4025 23.1328 31.6468 22.7207C31.2355 22.5161 31.0584 22.0817 31.4951 21.8909ZM36.9052 19.8335L36.5379 19.5939C34.556 18.2935 31.7542 16.3231 36.7231 18.3617C37.2894 18.6052 38.0419 18.7493 38.3509 19.2899C38.8363 20.2864 37.5588 20.3534 36.9052 19.8335ZM37.1283 13.9989C36.9693 13.3939 38.9482 14.1039 39.5243 14.291L39.612 14.3243C40.1724 14.5336 40.8148 14.7278 41.1499 15.2126C41.5427 15.8825 40.7478 16.0212 40.2555 15.7187C39.246 15.0573 38.1392 14.5583 37.1283 13.9989ZM42.1602 11.1804C41.0464 9.96098 44.0274 11.1292 44.474 11.4534L44.4867 11.463C44.8199 11.6982 44.7523 12.2047 44.4393 12.3534C43.5486 12.3704 42.8932 11.6262 42.1602 11.1804ZM47.2291 9.84444C45.4583 8.56862 47.7909 9.17546 48.6011 9.67545C49.1533 10.1636 48.5845 10.9878 47.2291 9.84444Z" fill="black"/>
<path fill-rule="evenodd" clip-rule="evenodd" d="M62.3386 47.8819C61.5112 48.1216 60.6231 48.143 59.7798 47.8954C59.0148 47.6709 58.2294 47.1766 57.6664 46.5227C57.1663 45.9417 56.8424 45.2358 56.8551 44.4822C56.8566 44.3961 56.8873 44.3243 56.9346 44.2685C56.9856 44.2085 57.0567 44.1672 57.133 44.1494C57.2113 44.131 57.2942 44.1375 57.3648 44.1695C57.4287 44.1986 57.4834 44.2479 57.5176 44.3199C57.6041 44.4336 57.6903 44.5457 57.7768 44.6546C58.4725 45.5139 59.1462 46.1561 60.1923 46.3865C60.7598 46.5115 61.3267 46.456 61.8468 46.2653C62.4036 46.0612 62.9068 45.7022 63.3012 45.2429C63.4795 45.0353 63.6899 44.9506 63.8956 44.9491C64.1288 44.9475 64.3593 45.0559 64.5329 45.2291C64.7036 45.3994 64.8178 45.6308 64.8282 45.8729C64.8373 46.0853 64.768 46.3073 64.5837 46.5052C63.9766 47.1574 63.1898 47.6352 62.3386 47.8819ZM62.3132 37.119C63.1613 37.6347 64.4536 38.8373 63.5412 40.1158C62.4673 41.2431 60.921 39.9506 60.159 39.366C59.4525 38.9129 58.6587 40.0782 59.3142 40.6072C64.8202 44.6852 67.0547 37.2538 62.7422 36.5126C62.2674 36.4309 62.091 36.9594 62.3132 37.119ZM54.3796 34.8497C54.107 34.6753 53.7864 34.6154 53.431 34.7772C53.1533 34.9035 52.6662 35.3247 52.3272 35.8783C52.0953 36.2571 51.9309 36.7015 51.9651 37.1643C51.9731 37.2718 51.9334 37.3511 51.8707 37.4097C51.8213 37.456 51.7498 37.49 51.6659 37.5006C51.5947 37.5096 51.5149 37.5015 51.4501 37.4813C51.3268 37.4427 51.2615 37.3627 51.2369 37.2974C50.9995 36.6668 51.1018 35.9631 51.3678 35.3283C51.7268 34.4716 52.3787 33.7539 52.8058 33.5226C53.5367 33.1265 54.3989 33.1083 55.1309 33.5118C55.7539 33.8552 56.1435 34.4096 56.531 34.9748C56.6134 35.0949 56.6951 35.2142 56.7796 35.3313C56.9489 35.5661 56.9658 35.7989 56.9002 35.9986C56.8276 36.2198 56.6423 36.4064 56.4107 36.5041C56.1966 36.5944 55.9482 36.6071 55.7283 36.5144C55.5426 36.436 55.3721 36.2832 55.2642 36.024C55.0826 35.5874 54.7799 35.1058 54.3796 34.8497ZM68.2236 35.821C68.0369 35.9183 67.8909 35.9476 67.6838 35.8855C67.5693 35.8511 67.4561 35.7852 67.3675 35.6965C67.2796 35.6087 67.2163 35.4994 67.1916 35.3782C67.1311 35.0791 66.9675 34.7991 66.7343 34.6165C66.535 34.4605 66.2835 34.3778 66.0045 34.4245C65.7035 34.4748 65.4167 34.6679 65.2191 34.8956C65.1531 34.9718 65.1013 35.0584 65.0493 35.1443C64.952 35.3051 64.8574 35.4545 64.7231 35.5725C64.6723 35.6175 64.5956 35.6486 64.5213 35.6486C64.4911 35.6486 64.4605 35.6437 64.4313 35.6346C64.1317 35.3337 64.0741 35.1055 64.0837 34.8791C64.0939 34.6417 64.1874 34.4013 64.3386 34.1771C64.6932 33.651 65.3666 33.2197 65.821 33.122C66.4432 32.9882 67.0612 33.1488 67.5567 33.4965C68.0665 33.8543 68.4443 34.4097 68.5621 35.0357C68.5904 35.1864 68.5783 35.3492 68.521 35.4902C68.4649 35.6281 68.3671 35.7462 68.2236 35.821ZM55.7518 29.2411C55.3784 29.6051 54.9364 29.6615 54.4892 29.7116C54.2408 29.7397 54.0424 29.7624 53.8473 29.8065C53.3108 29.9276 52.7806 30.11 52.2968 30.3728C51.7911 30.6475 51.24 30.9788 50.8435 31.4032C50.7492 31.5041 50.6603 31.6101 50.5713 31.7163C50.4902 31.8131 50.412 31.9064 50.3296 31.9963C50.235 32.0995 50.1452 32.2077 50.0558 32.3157C50.0005 32.4067 49.9896 32.4291 49.9785 32.4524C49.9617 32.4875 49.9422 32.5267 49.92 32.5688C49.8895 32.6264 49.8538 32.6894 49.8165 32.7466C49.7543 32.8511 49.7209 32.8799 49.6921 32.8928C49.6442 32.9141 49.5988 32.9246 49.5548 32.9189C49.5135 32.9136 49.4746 32.8938 49.4362 32.8613C49.2445 32.6992 49.188 32.4333 49.1938 32.151C49.2026 31.7226 49.3605 31.2483 49.5061 30.9567C49.8446 30.2792 50.3142 29.575 50.8788 29.0693C51.523 28.4922 52.2278 28.0552 53.0373 27.7541C53.5404 27.5669 54.1229 27.3951 54.671 27.4168C55.0655 27.4325 55.4422 27.5498 55.7532 27.8428C55.9442 28.0226 56.0359 28.2784 56.0359 28.5341C56.0359 28.7948 55.9406 29.0571 55.7518 29.2411ZM68.9832 32.5742C68.9595 32.6131 68.9266 32.6399 68.8901 32.6561C68.8517 32.673 68.8089 32.6778 68.7678 32.6709C68.7269 32.664 68.6881 32.6455 68.6572 32.6171C68.6277 32.59 68.6052 32.5539 68.5951 32.5098C68.3472 31.4204 67.8658 30.6099 66.8382 30.0873C66.3328 29.8302 65.7515 29.6668 65.2013 29.5366C65.0414 29.4987 64.8724 29.4742 64.7023 29.4493C64.1691 29.3714 63.632 29.2822 63.2843 28.851C63.0749 28.5913 62.987 28.2591 63.0367 27.9553C63.0835 27.6693 63.2505 27.407 63.5543 27.2498C64.3104 26.8587 65.2501 27.2425 66.0137 27.5694C66.0703 27.5937 66.1259 27.6175 66.1803 27.6405C66.927 27.9558 67.6081 28.372 68.1679 28.9672C68.6121 29.4395 69.0237 30.1376 69.1894 30.8557C69.3274 31.4532 69.2949 32.0631 68.9832 32.5742Z" fill="black"/>
<path fill-rule="evenodd" clip-rule="evenodd" d="M72.3648 37.8034C71.0012 39.2129 68.7249 39.6174 66.9107 38.8614C62.2524 36.9144 64.5324 30.8415 68.125 29.2106C68.5738 29.0987 69.1732 28.8332 69.7198 28.773C69.7693 28.7487 69.8769 28.819 70.0072 28.7526C73.9686 29.195 74.8707 35.3468 72.3648 37.8034ZM57.3398 38.164C55.8104 40.1933 52.9671 40.8194 50.644 39.876C46.0547 38.068 47.6824 32.6828 50.8224 30.5716C57.4552 28.0783 60.1942 34.4224 57.3398 38.164ZM47.3908 33.6678C47.3866 33.6658 47.3823 33.6648 47.3779 33.6628C47.4022 33.6521 47.4264 33.6414 47.4506 33.6305C47.4427 33.6511 47.4342 33.6714 47.4266 33.692C47.4146 33.6838 47.4042 33.6743 47.3908 33.6678ZM75.522 31.4742C75.1475 31.475 74.6066 31.5366 74.2966 31.7965C73.5322 29.2176 70.7107 26.8308 68.2569 28.5712C66.3246 29.1928 64.8907 30.5716 64.0757 32.4046C62.6063 31.5302 60.2958 31.9036 59.0216 33.0598C58.1871 30.3013 56.1334 29.3354 53.6889 29.1928C51.0208 28.7557 48.3614 31.3478 47.5317 33.4273C46.8417 33.3488 45.8108 33.1292 45.1617 33.5551C40.9492 32.45 33.5843 31.8406 32.7279 32.4547C32.1176 32.6889 31.7827 34.13 32.6351 34.2078C33.378 34.1023 32.5484 33.1518 33.2972 33.0481C37.2869 32.8007 41.16 33.6045 45.1075 33.9418C45.4599 34.4161 46.5987 34.5747 47.2062 34.3842C46.2494 37.9117 48.3148 40.3117 51.4096 41.0305C56.2017 42.1318 60.3708 37.8433 59.1178 33.3827C60.5694 32.6603 62.2392 32.6913 63.8205 33.0718C61.178 42.8008 76.8409 42.3643 74.3946 32.1298C76.0226 32.9399 76.3761 31.6377 75.522 31.4742Z" fill="black"/>
</svg>
