<svg width="92" height="137" viewBox="0 0 92 137" fill="none" xmlns="http://www.w3.org/2000/svg">
<path fill-rule="evenodd" clip-rule="evenodd" d="M47.3419 134.817C38.1011 134.817 28.91 134.363 20.014 133.467L20.0101 133.449L19.5377 133.392C18.1934 133.224 16.8191 133.092 15.4901 132.965C11.9843 132.627 8.35882 132.279 4.9773 131.244L4.37991 131.061L4.32139 131.21C4.23345 131.165 4.14113 131.118 4.04297 131.072C4.575 122.38 5.46249 113.848 6.26396 106.625L6.29687 106.33L6.10066 106.106C4.96753 104.815 4.55006 103.734 4.8259 102.801C7.08553 98.0832 7.56454 92.0638 8.02784 86.2417C8.98822 74.1751 9.89526 62.7777 25.5608 62.2843L25.5858 62.2832L25.7511 62.2717C29.0179 62.0478 32.3959 61.8161 35.4136 60.3136L35.7652 60.1386L35.7861 59.7463C35.8115 59.2728 36.3942 58.7097 36.8623 58.2573C37.0235 58.1016 37.1755 57.9545 37.3123 57.8072L37.341 57.7763L37.3656 57.7423C38.0718 56.7605 38.9012 56.1746 39.5843 56.1746C40.5792 56.1746 41.0612 57.4236 41.26 58.1682L41.5735 59.342L42.4031 58.4546C44.3527 56.3701 45.2853 54.0776 45.1806 51.633L45.2514 51.611L45.1607 51.0269C44.9894 50.0134 45.1033 49.2615 45.4995 48.7925C45.9634 48.2434 46.873 47.9764 48.2804 47.9764C49.2103 47.9764 50.2223 48.0937 51.1152 48.1972C51.4071 48.231 51.6884 48.2636 51.9541 48.2909C53.7415 48.4792 55.5687 48.8181 57.3356 49.1457L57.5836 49.1917L57.4158 49.6489L57.8451 49.9457C58.4171 50.3413 58.8431 51.1349 59.0139 52.1229L59.0215 52.1675L59.0352 52.2108C59.2893 53.0164 59.3857 53.9161 59.4878 54.8685C59.6594 56.4711 59.8367 58.128 60.7956 59.5545L61.3718 60.4114L61.9242 59.5389C62.1936 59.1132 62.5549 58.9061 63.0287 58.9061C64.3065 58.9061 65.8672 60.3198 66.1446 61.4155L66.2336 61.7674L66.5763 61.8866C68.9294 62.7062 70.8682 63.3044 72.5788 63.8321C76.8739 65.1572 79.0298 65.8223 80.4131 67.7718C81.8363 69.7773 82.5564 73.2777 83.7544 80.2419C85.0654 87.7888 85.9413 95.5458 86.7882 103.047C87.852 112.47 88.9517 122.209 90.9256 131.657C90.7883 131.798 90.6842 131.939 90.6132 132.079C89.7419 132.156 88.8557 132.226 87.9937 132.294C86.559 132.407 85.0755 132.523 83.6258 132.675L83.3042 132.709L83.2329 132.82C83.1006 132.831 82.9702 132.844 82.842 132.857C82.6376 132.878 82.4405 132.898 82.2479 132.909L82.1896 132.792L81.7219 132.845C70.0798 134.154 58.5127 134.817 47.3419 134.817Z" fill="#FAE3DD"/>
<path fill-rule="evenodd" clip-rule="evenodd" d="M39.5843 56.1747C40.5792 56.1747 41.0612 57.4238 41.26 58.1683L41.5735 59.3421L42.0577 58.8242L41.1765 60.3665L48.0363 66.6649L48.299 66.85C51.1023 68.8144 53.0109 69.7967 54.0246 69.7967C55.0697 69.7967 58.1803 67.2355 63.3563 62.1132L60.5614 60.3665L60.8133 59.581L61.3718 60.4116L61.9242 59.539C62.1936 59.1133 62.5549 58.9062 63.0287 58.9062C64.3065 58.9062 65.8672 60.3199 66.1446 61.4156L66.2336 61.7675L66.8567 61.984C68.7129 62.6257 70.3087 63.1296 71.7395 63.5729L73.5693 64.1386C77.2139 65.2719 79.1404 65.9784 80.4131 67.7719C81.8078 69.7373 82.5273 73.1384 83.6831 79.8283L83.7544 80.242C85.0058 87.4459 85.8608 94.8412 86.6725 102.023L86.9883 104.818C87.9929 113.686 89.0751 122.8 90.9256 131.657C90.7883 131.798 90.6842 131.939 90.6132 132.079C90.0323 132.13 89.4448 132.178 88.8623 132.225L87.2068 132.356C86.0207 132.45 84.8119 132.551 83.6258 132.676L83.3042 132.709L83.2329 132.82C83.1447 132.828 83.0573 132.836 82.9709 132.844L82.842 132.857C82.6376 132.878 82.4405 132.898 82.2479 132.909L82.1896 132.792L81.7219 132.845C70.0798 134.154 58.5127 134.817 47.3419 134.817C38.1011 134.817 28.91 134.363 20.014 133.467L20.0101 133.449L19.5377 133.392C18.4623 133.258 17.3676 133.147 16.2924 133.042L14.7372 132.892C11.4676 132.574 8.11728 132.205 4.9773 131.244L4.37991 131.061L4.32139 131.211C4.23345 131.165 4.14113 131.118 4.04297 131.072L4.07937 130.487C4.61484 121.997 5.4805 113.686 6.26396 106.625L6.29687 106.33L6.10066 106.106C4.96753 104.815 4.55006 103.734 4.8259 102.801C7.08553 98.0833 7.56454 92.0639 8.02784 86.2419L8.08551 85.5187C9.02077 73.844 10.1846 62.9916 25.0952 62.3025L25.5858 62.2833L26.3286 62.232C29.4141 62.0163 32.5735 61.7279 35.4136 60.3137L35.7652 60.1387L35.7861 59.7464C35.8087 59.3244 36.2741 58.8312 36.7065 58.4086L36.9981 58.1259C37.1091 58.0177 37.2146 57.9126 37.3123 57.8073L37.341 57.7764L37.3656 57.7424C38.0718 56.7606 38.9012 56.1747 39.5843 56.1747Z" fill="#4E4E56"/>
<path fill-rule="evenodd" clip-rule="evenodd" d="M27.4651 88.1696C27.4916 88.1232 27.5803 88.1394 27.5731 88.1989C27.1871 90.7626 26.2507 93.2467 25.6809 95.7779L25.6982 95.8261C25.989 96.6586 26.6575 99.6615 25.0226 98.8265L24.8919 99.511C22.7652 110.694 21.0487 121.997 21.2881 133.413C21.3232 134.322 20.8478 137.014 19.5634 135.695C18.6199 134.112 19.0354 132.171 18.961 130.413C19.1232 120.764 20.1056 111.04 22.6283 101.705L22.7326 101.383C24.4013 96.2502 24.395 97.8941 23.6109 92.1634C23.5919 91.6346 23.2099 90.4855 23.7129 90.1679C24.1661 90.4541 24.3164 91.2944 24.4807 91.7924L24.4919 91.8258C24.7359 92.5378 24.9534 93.2558 25.1689 93.9768C25.8853 92.0414 26.461 89.979 27.4651 88.1696ZM54.1278 132.417C55.0542 132.143 55.8882 133.197 55.5646 134.061C55.3552 134.961 53.6053 135.52 53.5387 134.264C53.0602 133.753 53.2155 132.811 53.8692 132.527C53.8625 132.526 54.0674 132.443 54.1278 132.417ZM76.5707 81.3368C76.6051 81.2177 76.704 81.3262 76.6774 81.4019C76.884 82.4494 76.716 83.6016 76.7634 84.6897C76.8957 84.3781 77.0671 84.0802 77.2898 83.8011C77.4829 83.5594 77.8332 83.9047 77.6324 84.1437C77.1337 84.7373 76.9156 85.4529 76.8206 86.1966C77.5523 101.725 79.7069 117.227 83.4031 132.33C84.2042 134.413 80.9731 135.257 81.3277 132.989C78.8824 122.396 76.9326 111.579 76.4966 100.69C75.9085 95.9115 76.1402 90.9328 76.2208 86.0922C76.2241 84.5151 76.3765 82.8992 76.5707 81.3368ZM43.6674 49.6619C44.5753 49.7339 45.1016 51.2417 45.2827 52.0689C45.9464 55.3111 44.1619 58.6854 41.8132 60.8116C45.2811 63.9372 49.047 66.7227 53.1111 69.0292C53.6639 68.4028 54.6405 68.4928 55.3209 68.8705C57.5214 66.7881 59.7507 64.7499 61.8931 62.6093C58.5625 60.5018 58.2843 56.1625 58.951 52.632L58.9715 52.5253C59.0219 52.2223 59.444 52.3323 59.4679 52.5926L59.4829 52.7603C59.6828 55.0563 59.7007 57.5352 60.9771 59.5415C62.4293 57.2471 65.9095 59.5951 66.4201 61.6133C81.0159 66.6968 81.1524 63.7006 84.041 80.4908C86.9614 97.6557 87.7876 115.115 91.2084 132.202C91.2506 132.686 90.8108 133.083 90.3729 133.148C88.6995 133.371 88.6475 128.848 88.2618 127.585C87.4385 122.869 86.8167 118.12 86.2808 113.363C84.6354 99.2739 84.0721 84.9705 80.8861 71.1113C80.5657 69.9452 80.1094 68.7917 79.3027 67.8719C75.9409 64.2122 70.1098 65.0123 66.4662 61.7508C66.819 62.8377 66.8475 64.0392 66.778 65.1745C66.3793 71.2253 66.1388 77.2875 65.7105 83.3362C65.6609 84.0154 64.839 84.2386 64.4542 83.6765C61.4051 79.2246 58.2757 74.8399 55.3036 70.3341C54.8247 70.5613 54.3138 70.6649 53.7654 70.556C52.8957 71.6544 53.2714 74.5276 52.9875 76.0341L52.8821 77.1867C51.2584 95.053 50.0665 112.964 50.1549 130.913L50.1582 131.492C50.1574 132.043 50.1996 132.614 50.1585 133.163C49.7872 134.947 48.0317 134.308 48.1302 132.717C48.052 112.606 48.8826 92.3645 52.1998 72.5045C49.2052 76.2804 46.2141 80.059 43.2181 83.8341C42.994 84.1189 42.5679 83.9937 42.3901 83.73L42.3788 83.7127L42.4525 83.9104C42.2724 83.8527 42.115 83.743 41.9517 83.6484C40.4455 79.9485 39.4707 76.0678 38.2874 72.261C37.2997 68.5283 35.819 64.867 35.2733 61.0421L35.2486 61.0317C33.7665 61.7771 32.1245 62.2555 30.4651 62.2839C28.5885 62.7675 26.6147 62.9956 24.7426 63.2414C11.134 63.8239 8.44355 77.3411 8.56799 88.5454L8.54436 89.0803C8.40215 92.4123 8.33507 95.8023 7.50933 99.0434C7.20451 99.6549 6.24008 103.588 5.27003 102.191C4.45217 103.285 4.70824 103.921 5.79824 104.597C7.70206 106.232 9.55972 108.835 9.92608 111.518C9.99425 112.013 9.28376 112.448 9.03117 111.896L8.90508 111.621C8.16741 110.019 7.38747 108.452 6.33397 107.06C6.28736 107.138 6.22391 107.203 6.14798 107.247C5.89483 113.886 5.38223 120.512 4.92388 127.139C4.67326 128.089 5.14563 134.118 3.22479 132.628L3.16585 132.581C2.72712 131.652 2.9911 130.528 3.08077 129.536L3.35071 126.359C3.93373 119.874 4.41106 113.376 5.21657 106.914L5.15333 106.842C4.22694 105.768 3.36142 104.35 3.8176 102.917C4.05143 102.056 4.82673 101.627 5.35123 100.968C8.19691 85.9532 3.28063 62.7039 25.1619 61.9738L26.0779 61.9104C29.0275 61.7011 32.0653 61.4029 34.7356 60.0734C34.7858 59.1359 35.8562 58.3416 36.4408 57.7117C38.2417 55.2086 40.6591 55.0831 41.5332 58.3575C43.8578 55.857 44.7967 52.9536 43.6674 49.6619ZM53.464 122.411C54.5971 121.319 56.1152 123.309 54.0606 124.715C53.6878 125.399 52.6689 124.917 52.8422 124.201L52.8401 124.081C52.8249 123.458 52.7636 122.689 53.464 122.411ZM53.5846 107.829C55.6534 107.162 55.1379 110.932 53.7731 111.446C52.9484 111.856 52.6657 110.83 52.8163 110.204C52.2805 109.39 52.7712 108.318 53.5846 107.829ZM53.5512 96.9977C53.1695 95.3827 55.4865 95.1138 55.4999 96.8008C55.5747 97.5101 54.928 97.9716 54.7646 98.5884C54.7301 98.9897 54.2378 99.2724 53.9228 98.9372C53.3972 98.3777 53.2842 97.6185 53.5512 96.9977ZM53.2604 82.6473C53.4965 80.7568 55.6353 81.5537 54.88 81.8687C54.8648 81.8851 54.8489 81.9011 54.8322 81.9174C55.696 82.0014 55.6355 83.0162 55.5393 83.6654C55.2004 85.1187 53.0045 83.7965 53.2604 82.6473ZM40.1067 76.634C40.2825 77.2699 40.4595 77.9055 40.6406 78.5399C41.1073 80.1743 41.6618 81.7653 42.2465 83.3537C41.531 81.1144 40.8181 78.8744 40.1067 76.634ZM41.2889 58.6326C39.2411 55.1926 38.136 59.0708 36.6509 60.5951C37.7001 68.0992 40.8753 75.1091 43.0364 82.343C46.0474 78.4928 49.0617 74.6453 52.0735 70.7958C52.2536 70.565 52.4272 70.3231 52.607 70.0864C48.8262 67.9007 45.2614 65.3166 42.2606 62.1106C41.6834 62.2341 41.2408 61.4622 40.8265 61.141L40.783 61.1052C40.3998 60.7822 40.0445 60.2725 40.2858 59.77C40.2538 59.7019 40.3024 59.6392 40.3686 59.6185C40.6682 59.2894 40.9861 58.9721 41.2889 58.6326ZM65.1727 65.8409C65.3726 63.3857 64.9678 59.8658 61.6675 60.4259C62.2552 61.2312 63.3603 61.3613 63.9423 62.1346C64.1554 62.4886 63.8939 62.9271 63.5066 62.9943C60.945 65.3152 58.5233 67.6925 55.9078 69.9775C58.8142 73.7417 61.6044 77.5773 64.4308 81.3995C64.626 76.2111 64.9692 71.0281 65.1727 65.8409Z" fill="black"/>
<path fill-rule="evenodd" clip-rule="evenodd" d="M73.6457 47.7342C73.2014 47.0756 72.1317 42.2959 71.4483 41.5608C71.4999 38.7372 72.2785 28.9614 70.0546 24.5669C70.5224 24.0926 71.7655 20.0079 71.4483 18.4637C72.496 15.2299 65.7655 10.0937 63.204 8.70573C51.2992 2.30602 34.0482 9.37022 28.6341 21.2256C25.3807 28.3653 25.3207 36.3591 24.9529 44.0415C24.9094 45.6859 24.7587 47.3432 24.7604 48.9856C24.9956 50.4288 26.1371 51.8986 25.2717 53.0987C24.3158 53.7615 22.3839 55.3762 23.2441 56.2919C23.7482 56.7127 24.5535 56.4686 25.1005 56.8732C25.379 57.0294 25.5527 57.3717 25.8784 57.4238C28.8536 57.3105 30.9531 57.3008 33.9374 57.1799C35.2439 57.1371 37.2333 57.691 38.7329 56.5882C43.9711 59.509 41.78 55.2714 42.8392 52.2544C46.0648 53.3478 52.4901 56.8343 55.9283 56.9469C58.7222 57.2931 61.3348 55.6619 64.0816 56.0332C67.4939 57.3041 71.493 57.5867 74.6187 55.4364C75.3988 54.8732 76.2666 55.5256 77.2498 54.9175C79.1605 54.0013 74.61 48.7505 73.6457 47.7342Z" fill="#FAE3DD"/>
<path fill-rule="evenodd" clip-rule="evenodd" d="M28.6341 21.2256C34.0482 9.37022 51.2992 2.30602 63.204 8.70573C65.7655 10.0937 72.496 15.2299 71.4483 18.4637C71.6881 19.6311 71.0362 22.2503 70.5016 23.664C68.0194 25.5031 60.7713 25.1214 48.7577 22.519L48.2965 22.4185L44.1942 24.8554L42.509 31.2034C41.3776 32.3257 40.4634 33.6958 39.7664 35.3137C39.7664 35.3137 38.0703 33.4462 35.5559 33.6846C33.921 34.3822 32.7171 35.1423 31.9443 35.965C31.1869 36.7712 31.1717 38.5787 31.8988 41.3875L31.9443 41.5608L35.5559 42.6881H37.2319L41.8366 48.3296L42.509 54.1331C42.3576 56.6736 42.9295 58.9282 38.7329 56.5882C37.2333 57.691 35.2439 57.1371 33.9374 57.1799C30.9531 57.3008 28.8536 57.3105 25.8784 57.4238C25.5527 57.3717 25.379 57.0294 25.1005 56.8732C24.5535 56.4686 23.7482 56.7127 23.2441 56.2919C22.3839 55.3762 24.3158 53.7615 25.2717 53.0987C26.1371 51.8986 24.9956 50.4288 24.7604 48.9856C24.7587 47.3432 24.9094 45.6859 24.9529 44.0415L24.9853 43.3493C25.3272 35.8802 25.4783 28.1511 28.6341 21.2256ZM70.4446 44.2119L71.4933 40.23L71.4701 40.8289C71.4599 41.1073 71.4522 41.3529 71.4484 41.5608C72.1317 42.2959 73.2015 47.0756 73.6458 47.7342L73.742 47.8369C74.8773 49.0616 79.1033 54.0288 77.2498 54.9175C76.2667 55.5257 75.3989 54.8732 74.6188 55.4364C71.4931 57.5867 67.494 57.3041 64.0816 56.0332C63.6816 55.9792 63.2844 55.9676 62.889 55.9861L62.7261 55.4747L66.4603 52.2544L70.4446 44.2119Z" fill="#F2DEC5"/>
<path fill-rule="evenodd" clip-rule="evenodd" d="M69.745 24.1919C69.7027 23.948 70.0379 23.7661 70.1676 24.0132C71.1096 25.8088 71.4869 27.8883 71.8206 29.8716C72.1576 31.8759 72.3803 33.8884 72.3926 35.923C72.402 37.488 72.2602 39.0711 71.9941 40.6372L72.0265 40.7487C72.0862 40.9534 72.1466 41.158 72.2075 41.3624L72.2995 41.6689C72.4772 42.2574 72.6456 42.8486 72.8281 43.4357C73.2093 44.661 73.6107 45.8897 74.1022 47.0754C74.5819 48.2325 75.1653 49.3483 75.8587 50.3912C76.527 51.3965 77.5876 52.2466 78.0584 53.3632C78.2225 53.7523 77.9798 54.2667 77.5266 54.2046C77.4971 54.2402 77.4522 54.266 77.3912 54.2714C77.0393 54.3022 76.7094 54.2729 76.3583 54.2398C76.1623 54.2214 76.1626 53.9528 76.3583 53.9343C76.5075 53.9203 76.6527 53.9079 76.7979 53.8995C75.7937 53.303 75.0773 52.1382 74.5045 51.1846C73.7683 49.9595 73.2123 48.6209 72.7591 47.2672C72.2936 45.8773 71.964 44.4585 71.6992 43.0179C71.6688 42.852 71.6399 42.6861 71.6121 42.5199C71.2775 43.946 70.8465 45.3461 70.3358 46.6917L70.2642 46.879C69.0868 49.9388 67.4922 53.0281 64.8399 55.0506C64.7195 55.1423 64.5966 55.2294 64.4726 55.3145L64.6235 55.4013C64.7737 55.4872 64.9216 55.5697 65.0663 55.6373C65.6023 55.888 66.184 56.0791 66.7596 56.2145C67.9482 56.4944 69.1965 56.4142 70.4092 56.4532C70.807 56.466 71.0332 57.0638 70.6266 57.258C69.2872 57.8974 67.8405 57.7617 66.458 57.3118C65.7738 57.089 65.1319 56.7772 64.538 56.3701C64.2924 56.2019 64.0073 55.9943 63.7666 55.7543C61.1141 57.2421 57.8172 57.4086 54.8649 56.8765C53.3307 56.5999 51.844 56.0949 50.536 55.2309C49.2778 54.4002 48.381 53.3483 47.7407 51.9855C47.6839 51.8647 47.8418 51.7143 47.9387 51.8324C49.9499 54.2812 53.4111 55.303 56.4559 55.4973C58.0806 55.6012 59.7426 55.5149 61.3046 55.0276C62.7863 54.5651 64.0577 53.7175 65.1193 52.5902C67.2711 50.3052 68.5604 47.1968 69.4864 44.2385C70.4937 41.0203 70.9734 37.6343 71.0724 34.2663C71.1225 32.5599 71.0594 30.8391 70.7921 29.1517C70.5269 27.4781 70.0348 25.8584 69.745 24.1919ZM39.5908 9.69438C39.7332 9.6218 39.8335 9.81067 39.7127 9.90359C37.2048 11.8317 34.9588 14.2766 33.1409 16.8643C29.7884 21.6369 27.6383 27.1597 26.6482 32.8985C26.0636 36.2875 25.911 39.7279 25.9694 43.162C25.9925 44.5262 26.0702 45.8863 26.1567 47.2467L26.2543 48.7548C26.2996 49.4574 26.3375 50.154 26.3082 50.86L26.3002 51.0231C26.2538 51.8447 26.3344 52.6728 26.1289 53.4743C26.0234 53.8853 25.4452 53.95 25.2358 53.5912C25.1948 53.521 25.1565 53.4486 25.1193 53.3754C24.6286 54.1776 23.9931 54.8948 23.2881 55.5355C23.6251 55.4636 23.9654 55.4177 24.3147 55.4596C24.8685 55.5261 25.3652 55.7405 25.7167 56.1162C26.0655 55.9586 26.4243 55.8501 26.8369 55.8478C27.1407 55.8463 27.3685 56.2064 27.1952 56.4739C26.8493 57.0078 26.3667 57.3071 25.8183 57.603C25.4297 57.8127 24.9658 57.6333 24.8223 57.2187L24.8141 57.1935C24.6526 56.669 23.7937 56.7538 23.3884 56.8349L23.2691 56.8593C22.5147 57.0167 21.7781 57.2181 21.0096 57.0104C20.5139 56.8763 20.3843 56.1283 20.8622 55.88C22.3719 55.0957 23.6392 54.0422 24.9416 52.9845C24.6541 52.2777 24.4908 51.4879 24.3025 50.7692C24.0374 49.7575 23.96 48.669 23.8643 47.6298C23.6824 45.654 23.613 43.6568 23.6325 41.6732C23.6985 34.9736 24.8414 28.2532 27.7609 22.1865C29.0399 19.5289 30.7202 17.0697 32.7063 14.893C34.6806 12.7291 36.9866 11.0204 39.5908 9.69438ZM37.2534 42.5042C37.176 42.3965 37.3272 42.2542 37.4332 42.324C39.7286 43.8355 41.3216 46.1307 42.3494 48.6521C43.3668 51.1484 43.9916 54.2059 42.9881 56.809C42.8284 57.2236 42.0635 57.3776 41.9852 56.809C41.6354 54.2702 41.581 51.7278 40.8118 49.2595C40.0493 46.8127 38.7445 44.5721 37.2534 42.5042ZM35.4732 50.7463C35.4858 50.7015 35.5589 50.7092 35.5557 50.7576C35.4982 51.6528 35.4592 52.559 35.3469 53.4493C35.2923 53.882 35.2202 54.3119 35.1587 54.7435C35.0958 55.1862 35.1053 55.6332 34.8485 56.0113C34.5083 56.5125 33.6042 56.3715 33.6346 55.6817C33.6556 55.2059 33.8737 54.9005 34.078 54.4829C34.209 54.2151 34.3233 53.9383 34.4334 53.6603L34.597 53.2432C34.9223 52.4162 35.2335 51.603 35.4732 50.7463ZM31.3632 48.3748C31.3771 48.3043 31.4904 48.3213 31.487 48.3915C31.4257 49.6587 31.2832 50.9116 31.0599 52.1602C30.9581 52.7293 30.8394 53.2953 30.7139 53.8596L30.6597 54.1014C30.5254 54.6958 30.4388 55.3945 30.138 55.9255C29.8374 56.4562 29.1237 56.0708 29.2161 55.5359C29.3242 54.9114 29.7065 54.2832 29.9287 53.6834C30.1338 53.1297 30.3131 52.5663 30.4807 52.0001C30.8334 50.8083 31.1227 49.5942 31.3632 48.3748ZM39.0178 51.8926L39.0445 51.8652C39.149 51.7513 39.3048 51.8272 39.3547 51.9473C39.5589 52.4395 39.4566 53.02 39.4421 53.5425L39.4394 53.6565C39.4285 54.1859 39.4361 54.6817 39.1966 55.1704C38.9059 55.7637 38.1399 55.3952 38.0806 54.8673C38.0158 54.2913 38.2876 53.7274 38.4631 53.1878C38.5746 52.8449 38.6559 52.4883 38.8254 52.1771C38.6804 52.2021 38.5356 52.2523 38.403 52.2886C38.3436 52.3047 38.3212 52.2173 38.3779 52.1971C38.5971 52.1193 38.8446 52.0608 39.0178 51.8926ZM69.5758 53.6395C69.5058 53.5609 69.5931 53.4563 69.684 53.4988C70.7756 54.0099 71.7966 54.3424 73.0011 54.4513C73.523 54.4984 73.5263 55.3204 73.0011 55.2728C71.744 55.1593 70.4266 54.5943 69.5758 53.6395ZM31.1706 36.3709C32.1316 34.2037 35.172 32.2811 37.2108 34.2966C37.249 34.3342 37.2101 34.4164 37.1547 34.3933C35.8865 33.8665 34.334 34.5366 33.4564 35.495C32.76 36.2552 32.3417 37.2314 32.2586 38.2602C32.1756 39.29 32.4211 40.3648 33.1033 41.1613C33.4612 41.5791 33.9445 41.9746 34.5131 42.0249C35.0873 42.0755 35.5659 41.6702 36.1087 41.56C36.5178 41.4771 36.8267 41.7345 36.8669 42.1389C36.9553 43.0314 36.069 43.6303 35.3007 43.7758C34.4743 43.9322 33.6308 43.7613 32.9186 43.3124C30.6186 41.8623 30.1224 38.7348 31.1706 36.3709ZM52.7503 15.1285C53.1683 14.7281 53.8792 15.1261 53.7249 15.6974C53.397 16.9131 52.7 17.9406 51.9278 18.9158C51.1848 19.8541 50.3889 20.7558 49.5358 21.595C48.6882 22.4287 47.7674 23.2001 46.7996 23.8892L46.5082 24.0962C45.8223 24.5809 45.0958 25.0711 44.328 25.4202C44.1427 27.0213 43.78 28.601 43.2313 30.1134C42.7028 31.5698 42.0304 32.9773 41.2156 34.2945L41.0986 34.4831C40.3498 35.6861 39.4495 37.0305 38.179 37.6899C38.1409 37.7098 38.1026 37.7219 38.065 37.729C38.3492 37.919 38.5894 38.158 38.7322 38.5013C38.8886 38.8773 38.5616 39.232 38.2481 39.3562C37.5852 39.6187 36.9385 39.1742 36.3426 38.7001C36.3174 38.757 36.2936 38.8144 36.2732 38.8722C36.14 39.2509 36.1007 39.6378 35.7571 39.8891C35.5938 40.0085 35.3926 39.9016 35.2899 39.7664C34.953 39.3226 35.3018 38.718 35.598 38.3553C35.639 38.3052 35.6814 38.2575 35.725 38.2118C35.5998 38.1196 35.4776 38.0378 35.3593 37.9749C34.6634 37.6055 33.6318 37.54 33.2311 38.3579C33.2004 38.4207 33.1039 38.3882 33.1039 38.3233C33.105 37.3187 34.1315 36.7731 35.0222 36.6989C35.6731 36.6448 36.3026 36.8736 36.8884 37.14L36.9977 37.1904C37.2157 37.2918 37.4403 37.3875 37.6552 37.4946C37.6203 37.4021 37.6208 37.2934 37.6759 37.1855C38.3496 35.8666 39.5064 34.794 40.3407 33.5725C41.168 32.3606 41.8784 31.0636 42.4454 29.7094C42.9957 28.3949 43.4268 27.0392 43.7283 25.6565C43.629 25.677 43.517 25.5884 43.5241 25.4844C43.5409 25.233 43.6636 25.0065 43.8792 24.91C44.1165 23.6093 44.2377 22.2866 44.2306 20.9533C44.2301 20.8499 44.3795 20.8536 44.3882 20.9533C44.4931 22.1388 44.5016 23.3358 44.4134 24.5259C44.974 24.0089 45.5652 23.5173 46.105 22.9865C46.9172 22.1879 47.703 21.3679 48.4609 20.5175C49.2343 19.6499 49.9652 18.7503 50.6337 17.7985L50.9835 17.2994C51.5213 16.5342 52.0738 15.777 52.7503 15.1285ZM51.6952 6.58642C56.3078 6.29778 61.234 6.86608 65.3772 9.03671C67.6527 10.2287 69.4115 12.0303 70.6682 14.2724C71.4186 15.6113 71.9878 17.0938 72.2035 18.6181C72.4249 20.1842 72.1649 21.5807 71.1674 22.8256C70.7712 23.32 70.1039 22.7677 70.2015 22.2619C70.7987 19.1672 69.8301 16.1095 68.1123 13.5474C65.6197 9.8295 61.2665 8.17796 57.0281 7.44124C54.9458 7.07945 52.8337 6.92821 50.721 7.00181C49.1104 7.05799 47.4582 7.20843 45.9297 7.75168C45.8652 7.7746 45.8396 7.67393 45.9017 7.65022C47.7249 6.95215 49.7602 6.70754 51.6952 6.58642ZM58.5366 13.5844C58.7741 13.4335 59.0646 13.5883 59.1462 13.8331C59.434 14.6962 58.8308 15.8365 58.4273 16.5835C57.9707 17.4288 57.3836 18.2191 56.7772 18.9614C55.5642 20.4461 53.9699 21.685 52.2204 22.4636C52.1133 22.5113 51.9884 22.3817 52.0867 22.29C53.4404 21.0263 54.6677 19.6715 55.7302 18.1517C56.2523 17.4048 56.6877 16.617 57.1035 15.8077C57.4756 15.0834 57.8255 14.0363 58.5366 13.5844ZM66.294 14.6011C66.4458 14.0699 67.3101 14.1604 67.2743 14.7342C67.1819 16.2165 66.4843 17.7044 65.7263 18.9607C64.9458 20.2543 63.9574 21.4071 62.8245 22.4027C62.7687 22.4518 62.6922 22.3761 62.7428 22.3207C63.7203 21.248 64.5099 20.026 65.0946 18.6961C65.6786 17.3682 65.8991 15.9826 66.294 14.6011ZM61.998 14.3611C62.1633 13.8992 62.9546 13.9335 62.9061 14.4844C62.7727 15.9987 61.8862 17.5858 61.0651 18.8365C60.1938 20.1636 59.0817 21.3327 57.8388 22.3145C57.7922 22.3513 57.7265 22.2904 57.7718 22.2475C58.8882 21.193 59.7936 19.9749 60.5103 18.6163C60.8761 17.9231 61.183 17.2012 61.4253 16.4555C61.6495 15.7656 61.7547 15.0411 61.998 14.3611Z" fill="black"/>
<path fill-rule="evenodd" clip-rule="evenodd" d="M59.592 47.9681C58.837 47.66 58.1633 47.1461 57.6708 46.4895C57.4996 46.2612 57.4552 46.0202 57.4911 45.7998C57.5315 45.5519 57.6781 45.3272 57.878 45.1765C58.0786 45.0254 58.3294 44.9508 58.5719 44.9888C58.7826 45.0219 58.9924 45.1373 59.1584 45.3767L59.1931 45.4245C59.4859 45.8208 59.8675 46.146 60.3022 46.3555C60.7212 46.5575 61.1899 46.6518 61.6748 46.597C62.5985 46.4926 63.2351 45.9929 63.9118 45.3143C63.9956 45.2286 64.0796 45.1403 64.1639 45.0505C64.2172 44.9691 64.2911 44.9168 64.3731 44.8893C64.4642 44.8589 64.5673 44.8606 64.6617 44.8935C64.7528 44.9253 64.8342 44.9856 64.8888 45.0657C64.9406 45.1419 64.97 45.2361 64.9605 45.3443C64.8986 46.0476 64.531 46.6752 64.009 47.168C63.4292 47.7154 62.6606 48.094 61.937 48.2268C61.1398 48.3731 60.3275 48.2683 59.592 47.9681ZM62.3132 37.119C63.1613 37.6347 64.4536 38.8373 63.5412 40.1158C62.4672 41.2432 60.921 39.9506 60.159 39.366C59.4525 38.913 58.6586 40.0782 59.3142 40.6072C64.8202 44.6852 67.0546 37.2539 62.7421 36.5127C62.2673 36.431 62.091 36.9595 62.3132 37.119ZM52.4463 32.3752C52.54 31.2116 54.3115 30.9474 54.4877 32.0988C54.6455 33.1303 54.4597 34.0778 53.9953 35.0064C53.5515 35.8936 52.4362 35.4797 52.3519 34.6718C52.2388 33.5889 52.388 33.0991 52.4463 32.3752ZM65.9313 31.8601C66.1782 31.5365 66.5348 31.3156 66.9621 31.4405C68.2969 31.8307 67.9035 33.7265 67.4347 34.6493C67.18 35.1504 66.3566 35.2774 65.9845 34.8362C65.378 34.1167 65.0876 32.6798 65.8586 31.971C65.8795 31.9344 65.9027 31.8974 65.9313 31.8601ZM53.9765 27.2837L54.1874 27.2467C54.8397 27.1339 55.6507 27.0255 56.1122 27.5501C56.3569 27.8283 56.4411 28.3453 56.1122 28.6116C55.5335 29.0801 54.8938 28.8986 54.2004 28.9382C53.6289 28.971 53.0797 29.0657 52.5293 29.2231C51.3217 29.5683 50.3377 30.1987 49.3063 30.8908C49.171 30.9816 49.0329 30.8084 49.0974 30.6818C49.6928 29.5152 50.8466 28.5569 52.0023 27.9728C52.6191 27.661 53.2941 27.4023 53.9765 27.2837ZM64.7143 26.7611L64.8757 26.7941C66.632 27.1614 68.9138 27.895 69.7455 29.6207C69.7772 29.8648 69.7437 29.9171 69.7165 29.9512L69.7074 29.9626C69.685 29.9918 69.6671 30.032 69.5613 30.0652C69.532 30.0582 69.5024 30.0508 69.4724 30.043C69.0912 29.943 68.7896 29.8053 68.4976 29.6625L68.1809 29.5064C67.8136 29.3263 67.443 29.1526 67.0503 29.0245C66.2122 28.751 65.3502 28.5583 64.4748 28.4555C64.285 28.4332 64.1023 28.3691 63.9582 28.2593C63.8214 28.1551 63.7168 28.0108 63.6692 27.8191C63.6074 27.5709 63.6252 27.3829 63.7583 27.159C63.8584 26.9909 64.0016 26.8743 64.1661 26.8074C64.3337 26.7392 64.5246 26.7231 64.7143 26.7611Z" fill="black"/>
</svg>
