<svg width="154" height="217" viewBox="0 0 154 170" fill="none" xmlns="http://www.w3.org/2000/svg">
<path fill-rule="evenodd" clip-rule="evenodd" d="M120.328 123.407C118.753 122.846 117.236 122.197 115.853 121.244C111.866 118.276 109.267 113.811 106.811 109.58C103.351 103.426 100.887 96.8692 99.1832 90.0289C98.4511 87.0901 98.2025 83.6826 96.5393 81.0771C92.7689 75.6214 81.7129 76.3282 75.8421 77.2859C71.9107 77.9815 71.0981 82.3813 70.2052 85.637C69.4617 88.3421 68.975 91.0778 68.5664 93.8502C67.5945 94.4893 66.4972 95.0083 65.4512 95.4604C54.0525 98.9558 52.0491 105.436 47.6953 115.446C40.3419 129.995 20.3884 135.691 17.3743 152.91C15.4324 164.277 20.9547 174.972 26.6481 184.422C31.9505 194.744 39.3529 199.698 51.1415 197.26C62.1986 194.779 72.825 190.63 83.6875 187.424C88.9486 186.13 94.2015 182.765 99.7357 183.939C111.139 186.5 122.856 187.704 134.542 187.371C150.95 188.035 150.948 172.286 149.264 160.09C148.084 141.111 138.511 128.924 120.328 123.407V123.407Z" fill="#FECDAC"/>
<path fill-rule="evenodd" clip-rule="evenodd" d="M121.425 150.871C122.796 151.778 123.949 153.152 124.875 154.599C121.01 154.197 117.152 153.734 113.303 153.206C113.807 152.884 114.315 152.569 114.836 152.272C116.734 151.202 119.306 149.47 121.425 150.871ZM57.2157 162.295C56.5075 162.018 56.2335 160.938 55.9575 160.319C55.0922 158.378 54.3025 156.405 53.4808 154.445C56.6006 153.555 59.6343 152.569 62.8661 152.095C66.3411 151.586 69.8674 151.462 73.3745 151.577C80.4782 151.808 87.516 152.969 94.5 154.214C101.476 155.458 108.451 156.652 115.476 157.59C122.358 158.508 129.263 159.181 136.179 159.771C137.523 159.886 139.764 160.369 140.845 159.311C141.701 158.474 141.728 156.929 140.658 156.248C139.991 155.823 139.024 155.817 138.262 155.719C137.303 155.596 136.339 155.514 135.374 155.45C134.98 155.424 134.587 155.4 134.194 155.376C137.352 154.185 140.651 153.535 144.075 153.716C144.268 154.893 145.141 156.103 145.618 157.073C146.452 158.767 147.102 160.481 147.529 162.323C148.421 166.173 148.459 170.168 148.207 174.094C147.976 177.368 147.479 180.989 144.911 183.307C142.967 185.063 140.224 185.713 137.68 185.917C134.722 186.155 131.719 185.901 128.786 185.505C124.672 184.948 120.54 184.213 116.507 183.227C108.697 181.318 101.21 178.28 94.3033 174.161C90.9349 172.153 87.7209 169.893 84.3063 167.961C80.827 165.992 77.1248 164.465 73.2372 163.516C68.8868 162.455 64.3388 162.002 59.8674 162.264C59.0914 162.309 57.9704 162.591 57.2157 162.295ZM52.174 160.324C52.6311 161.808 52.9809 163.502 53.9567 164.748C54.9232 165.984 56.3814 166.42 57.8919 166.53C59.7133 166.662 61.556 166.577 63.3814 166.645C67.1251 166.784 70.8175 167.392 74.3964 168.508C77.7316 169.547 80.8275 171.169 83.8098 172.968C86.5676 174.631 89.2445 176.417 92.0032 178.076C91.269 178.413 90.5431 178.777 89.8132 179.094C88.2823 179.758 86.7421 180.4 85.1949 181.025C82.1439 182.258 79.08 183.462 75.9847 184.58C69.7434 186.833 63.3995 188.803 56.9792 190.48C53.9172 191.28 50.8116 192.215 47.6304 192.348C44.8095 192.466 42.1966 191.668 39.9215 189.991C35.2027 186.512 31.4485 181.491 28.4136 176.538C26.6106 173.595 25.0371 170.503 23.7356 167.306C23.0774 165.689 22.4804 164.048 21.9431 162.387C21.691 161.607 21.452 160.823 21.2257 160.036C21.1262 159.689 21.0308 159.342 20.9363 158.994C25.7615 157.521 30.6441 156.192 35.6412 155.454C38.3092 155.06 41.0128 154.861 43.71 154.89C45.0488 154.904 46.3869 154.976 47.7187 155.115C48.4355 155.189 49.1494 155.285 49.8603 155.403C50.154 155.452 50.456 155.524 50.7588 155.577C51.2214 157.163 51.6878 158.746 52.174 160.324ZM151.918 154.022C152.178 153.496 152.287 152.978 152.381 152.406C152.452 151.969 152.64 151.354 152.475 150.787C152.29 150.151 151.786 149.583 151.424 149.041C151.025 148.443 150.626 147.843 150.227 147.244C149.43 146.045 148.634 144.845 147.84 143.644C144.596 138.741 141.375 133.823 138.148 128.908C135.285 124.546 132.47 120.146 129.519 115.843C126.997 112.163 124.247 108.545 120.793 105.683C116.427 102.065 111.227 100.36 105.797 99.0304C105.203 98.4148 104.411 98.0786 103.564 98.1467C102.368 96.7898 101.417 95.8419 100.986 94.1162C100.779 93.2896 100.844 90.9672 100.039 90.4781C99.0828 89.8971 98.5834 90.6661 98.3198 91.5328C97.4375 94.4325 98.4501 98.331 100.78 101.236C99.7986 104.629 98.4969 109.451 96.1749 112.169C93.6884 115.08 90.2497 115.986 86.5395 116.046C79.4641 116.16 72.396 113.53 66.9992 108.972C65.3589 107.587 63.8354 106.04 62.4571 104.395C61.4233 103.161 60.2003 101.256 59.3916 99.8157C59.3916 99.2545 58.7291 98.6677 65.4737 98.2144C72.2182 97.761 72.7297 88.5257 72.8797 87.2688C73.0015 86.2482 73.5198 84.664 72.8006 83.8318C72.4954 83.4784 71.8691 83.4215 71.4821 83.6616C70.7524 84.1147 70.5127 85.2735 70.2833 86.0604C69.9619 87.1628 68.9115 94.0043 66.9209 94.7964C65.989 95.1673 64.9202 95.1742 63.9345 95.2427C62.7171 95.3278 61.4973 95.39 60.2848 95.5316C59.8377 95.5838 59.3499 95.7285 58.9087 95.7327C58.6216 95.7354 58.3255 95.596 58.048 95.498C57.1116 95.1671 56.1759 95.4153 55.2112 95.545C46.6818 96.6913 37.8994 99.3075 30.6241 104.015C24.2116 108.164 19.694 114.131 16.713 121.108C13.6714 128.228 11.928 135.927 10.467 143.507C9.97753 146.046 9.55011 148.597 9.1829 151.158C8.82803 153.631 8.38411 156.16 8.27785 158.659C8.23578 159.648 8.47206 160.566 8.83564 161.469C9.2451 162.486 10.2129 162.886 11.1412 163.361C13.1789 164.403 15.3284 165.212 17.5431 165.784C18.8961 168.246 20.0347 170.803 20.9497 173.458C20.6103 174.13 20.6032 175.135 20.5379 175.788C20.376 177.416 20.3067 179.053 20.2922 180.688C20.263 183.966 20.4601 187.24 20.6146 190.513C20.7713 193.832 21.2921 206.929 21.377 208.528C21.443 209.771 21.3541 211.508 22.0086 212.611C23.0143 214.307 25.4964 214.25 26.6461 212.875C55.2112 219.016 108.905 217.166 130.531 214.077C133.344 213.675 132.461 214.12 133.177 213.41C133.713 212.876 134.17 211.962 134.319 211.227C134.517 210.246 134.197 209.359 133.636 208.565C133.045 207.731 132.938 206.38 132.719 205.388C132.2 203.043 131.943 192.745 131.7 191.603C131.625 191.248 131.552 190.872 131.464 190.496C135.43 190.871 139.564 190.871 143.337 189.545C145.477 188.792 147.473 187.611 149.01 185.923C150.87 183.88 151.905 181.308 152.437 178.623C153.124 175.161 153.269 171.575 153.134 168.055C152.947 163.896 152.257 159.678 150.545 155.859C151.108 155.336 151.581 154.705 151.918 154.022Z" fill="black"/>
<path fill-rule="evenodd" clip-rule="evenodd" d="M111.201 32.0545C110.502 27.8185 112.795 26.9396 111.201 22.9129C107.657 15.4517 98.0006 15.7732 90.9144 15.1996C83.0106 14.896 75.0109 15.9416 67.7246 19.1163C65.9841 19.8745 64.3101 20.7662 62.7054 21.7793C61.3179 22.6554 61.5086 24.3213 62.3835 25.23C56.0745 34.1833 59.6829 46.2012 54.6489 55.6256C53.719 57.3102 52.489 58.8208 51.6807 60.5737C50.452 63.2382 50.3733 67.0559 53.1597 68.8254C57.084 70.9363 59.274 66.7569 61.2022 72.8154C70.8323 93.9402 90.1944 95.1299 108.575 84.1162C110.165 83.2297 111.788 82.2279 112.989 80.8352C115.715 77.7612 115.394 73.4383 115.454 69.5995C115.488 67.3499 115.493 65.0999 115.471 62.8499C115.386 53.736 112.372 41.0934 111.201 32.0545Z" fill="#FECDAC"/>
<path fill-rule="evenodd" clip-rule="evenodd" d="M72.0514 6.71829C83.1494 1.6733 95.7368 -0.239873 107.843 1.01503C113.818 1.63344 119.715 2.96022 125.326 5.11543L125.818 5.30593C127.203 5.84022 128.697 6.37057 129.749 7.45817C130.974 8.72214 131.318 10.6335 130.442 12.1949C129.762 13.4081 128.539 14.2783 127.234 14.7427C127.694 15.1199 128.13 15.5407 128.539 16.0103C129.228 16.7974 129.281 17.9197 128.539 18.696C127.109 20.1921 125.254 21.2746 123.257 21.7934C123.481 22.8796 123.36 24.082 122.878 25.1646C121.497 28.2722 117.606 28.6426 114.612 28.4581L114.522 28.4523L114.355 30.3619C114.267 31.3792 113.659 32.1681 112.627 32.324C112.591 32.3295 112.555 32.3331 112.519 32.3365C114.151 38.2522 115.137 44.3506 116.047 50.4131C116.523 53.5777 116.949 56.7497 117.356 59.9237L117.491 60.9818C117.926 64.4037 118.468 67.8602 118.657 71.3075C118.825 74.4357 118.23 77.4224 116.306 79.9467C114.58 82.2099 112.225 83.9055 109.694 85.164C103.974 88.0091 97.9535 90.1274 91.6273 91.1102L91.2054 91.1753C88.7635 91.5488 86.2475 91.8636 83.8318 91.1864C81.7093 90.5916 79.4834 89.0574 79.9629 86.593C80.124 85.7606 81.2857 85.7243 81.6838 86.3681L81.7757 86.5156C82.2531 87.2747 82.7763 87.9801 83.6094 88.3718C84.5845 88.8326 85.7155 88.9611 86.7813 88.974C89.7581 89.0085 92.8578 88.265 95.7242 87.5196C101.077 86.1271 106.574 83.8565 110.959 80.4164C112.824 78.9548 114.323 77.1268 114.851 74.7748C115.504 71.8751 114.904 68.7052 114.607 65.791C113.996 59.7778 113.269 53.7757 112.502 47.7803L112.349 46.5813C111.703 41.5689 111.024 36.5548 110.702 31.5134C110.568 31.3303 110.477 31.1217 110.441 30.8932L110.391 30.565V30.565C110.347 30.2839 110.34 30.0264 110.371 29.7888C110.372 28.8785 110.398 27.9736 110.45 27.0631C110.459 26.9 110.467 26.7368 110.472 26.5754C109.527 26.784 108.576 26.9526 107.62 27.0959C100.903 28.1096 94.0811 28.3635 87.3097 27.8593C83.9313 27.6071 80.5784 27.1739 77.2359 26.6316C75.5348 26.356 73.8394 26.0513 72.1493 25.7104C70.9278 25.4656 69.7317 25.1337 68.5302 24.8218C67.2906 26.6298 66.6211 28.8549 66.7514 31.0401C66.898 33.5336 68.5555 35.7949 68.0905 38.3428C67.654 40.7273 65.6155 41.4667 63.6029 42.0572L62.7469 42.305C62.0884 42.4977 61.6102 42.6836 61.491 43.4767C61.2865 44.8386 61.5381 46.3709 61.5905 47.7401C61.6539 49.3595 61.7369 50.9789 61.7751 52.5983C61.795 53.4361 61.8274 54.2775 61.8258 55.1153C61.824 55.7101 61.7353 56.1163 61.5055 56.5006C61.6828 56.7238 61.8419 56.965 61.9832 57.2207C62.0284 57.3041 61.9163 57.3928 61.8495 57.3241C61.6702 57.1373 61.48 56.9687 61.2793 56.818C61.178 56.9433 61.0603 57.0702 60.9226 57.2062L60.9119 57.1917V57.1917C60.4813 57.6215 59.7973 57.6632 59.2633 57.2062L59.1231 57.0845C58.7323 56.7412 58.4637 56.4553 58.355 55.8878C58.3496 55.8588 58.344 55.8298 58.3406 55.8008C57.3471 55.7663 56.3374 56.0019 55.4435 56.4972C54.0266 57.2824 53.0295 58.4013 52.4398 59.7831C52.6749 60.0587 52.9499 60.3054 53.2702 60.5121C53.3154 60.5429 53.2756 60.61 53.2268 60.5865C52.8992 60.4323 52.6061 60.2419 52.3437 60.0189C52.132 60.5629 51.9836 61.1468 51.8931 61.7652C51.5746 63.9486 52.1428 66.6161 54.1116 67.8602C54.9639 68.3987 55.9375 68.6907 56.9472 68.6943C57.4392 68.696 57.8647 68.6127 58.3424 68.4949C58.6663 68.4151 58.9884 68.299 59.3268 68.299C59.6163 68.299 59.8841 68.3715 60.132 68.5166L60.0633 68.5227C59.8962 68.5384 59.9283 68.5455 60.161 68.5455C60.8848 68.5765 61.299 69.3127 60.9662 69.9529L60.9226 70.0518C60.9134 70.0718 60.9056 70.0883 60.8995 70.1014L60.8732 70.2712C60.8705 70.2873 60.8678 70.3039 60.8649 70.321L60.8548 70.3554C60.853 70.3609 60.851 70.3663 60.8486 70.3718L61.9342 72.0308C63.2651 74.0602 64.6258 76.0819 66.1741 77.9356C67.2599 79.2359 68.4107 80.5107 69.6268 81.6912C70.7197 82.7521 72.0299 83.2635 73.2676 84.0977C73.9283 84.5402 74.1217 85.4668 73.5211 86.0634C71.7584 87.817 69.263 86.4243 67.8172 84.999C66.4492 83.6479 65.2675 82.0231 64.2488 80.3965C62.441 77.504 61.0024 74.4284 60.3727 71.0899C60.1103 71.3311 59.7755 71.4816 59.4372 71.5995C58.7586 71.8352 58.0112 71.9331 57.2947 71.9585C55.9212 72.0039 54.5459 71.6702 53.31 71.079C48.2813 68.6762 47.543 61.4805 50.6174 57.237C50.2028 56.0323 49.9713 54.725 49.7198 53.6103L49.6053 53.112C48.3338 47.546 47.4804 41.6859 49.7343 36.232C50.0239 35.5284 50.3496 34.8429 50.735 34.1864C51.0444 33.6587 51.5765 33.0966 51.723 32.4963C52.0488 31.1779 50.0383 29.7925 49.452 28.7461C48.7626 27.5184 48.6649 26.0695 49.604 24.9468C49.7235 24.8055 49.8536 24.6748 49.9949 24.5607C49.1046 22.9431 49.063 20.9084 50.2356 19.3126C51.0064 18.2608 52.1827 17.5246 53.4674 17.3015C54.2528 17.1655 55.1974 17.2163 56.0605 17.4593C60.7869 13.0617 66.1796 9.38767 72.0514 6.71829ZM53.901 61.7434C55.1625 60.6281 56.5558 60.0442 58.2749 60.1911C60.003 60.3396 62.084 61.0561 63.099 62.5413C63.9008 63.7146 62.2668 65.4356 61.0906 64.5542C60.0193 63.7509 59.3043 62.8442 57.9745 62.4126C56.78 62.0263 55.3016 61.7779 54.0512 61.9991C53.9137 62.0227 53.7763 61.8522 53.901 61.7434Z" fill="black"/>
<path fill-rule="evenodd" clip-rule="evenodd" d="M96.8722 78.0623C95.6532 77.565 94.5655 76.7355 93.7704 75.6758C93.4939 75.3074 93.4222 74.9184 93.4802 74.5626C93.5454 74.1625 93.7821 73.7999 94.1049 73.5567C94.4287 73.3127 94.8337 73.1924 95.2252 73.2537C95.5655 73.307 95.9042 73.4933 96.1722 73.8797L96.2282 73.957C96.701 74.5966 97.317 75.1213 98.019 75.4596C98.6955 75.7856 99.4522 75.9378 100.235 75.8493C101.726 75.6808 102.754 74.8743 103.847 73.779C103.982 73.6408 104.118 73.4981 104.254 73.3532C104.34 73.2219 104.459 73.1374 104.592 73.0931C104.739 73.044 104.905 73.0467 105.058 73.0999C105.205 73.1512 105.336 73.2485 105.424 73.3779C105.508 73.5008 105.556 73.6528 105.54 73.8275C105.44 74.9626 104.847 75.9756 104.004 76.771C103.068 77.6544 101.827 78.2655 100.658 78.4799C99.3713 78.716 98.0598 78.5468 96.8722 78.0623V78.0623ZM101.266 60.5519C102.635 61.3843 104.722 63.3252 103.249 65.3888C101.515 67.2083 99.0181 65.1221 97.7878 64.1786C96.6471 63.4474 95.3654 65.328 96.4238 66.1818C105.314 72.7638 108.921 60.7696 101.959 59.5732C101.192 59.4414 100.907 60.2944 101.266 60.5519ZM85.335 52.8954C85.4863 51.0174 88.3464 50.5909 88.631 52.4493C88.8857 54.1141 88.5858 55.6433 87.836 57.1421C87.1195 58.574 85.3187 57.906 85.1825 56.6021C85 54.8543 85.2408 54.0637 85.335 52.8954ZM107.107 52.064C107.506 51.5417 108.082 51.1852 108.772 51.3867C110.927 52.0165 110.292 55.0763 109.535 56.5657C109.124 57.3745 107.794 57.5796 107.193 56.8674C106.214 55.7061 105.745 53.3869 106.99 52.243C107.024 52.1839 107.061 52.1242 107.107 52.064ZM87.8057 44.6777L88.1461 44.6181C89.1993 44.436 90.5088 44.2609 91.2538 45.1077C91.649 45.5567 91.785 46.3912 91.2538 46.821C90.3196 47.5772 89.2867 47.2841 88.1671 47.3482C87.2444 47.4011 86.3577 47.5538 85.469 47.8079C83.5192 48.3651 81.9305 49.3825 80.2653 50.4995C80.0468 50.6461 79.8237 50.3666 79.928 50.1622C80.8893 48.2794 82.7522 46.7327 84.6181 45.7899C85.614 45.2866 86.7039 44.8692 87.8057 44.6777ZM105.143 43.8342L105.403 43.8876C108.239 44.4803 111.923 45.6644 113.266 48.4497C113.317 48.8436 113.263 48.928 113.219 48.9831L113.204 49.0015C113.168 49.0486 113.139 49.1135 112.969 49.1671C112.921 49.1558 112.873 49.1438 112.825 49.1312C112.209 48.9699 111.722 48.7476 111.251 48.5171L110.74 48.2652C110.147 47.9744 109.548 47.6942 108.914 47.4873C107.561 47.0459 106.169 46.735 104.756 46.569C104.45 46.533 104.155 46.4296 103.922 46.2524C103.701 46.0842 103.532 45.8513 103.455 45.5418C103.355 45.1412 103.384 44.8379 103.599 44.4765C103.761 44.2051 103.992 44.017 104.257 43.909C104.528 43.7988 104.836 43.7729 105.143 43.8342Z" fill="black"/>
</svg>
