<svg width="128" height="128" viewBox="0 0 128 128" fill="none" xmlns="http://www.w3.org/2000/svg">
<rect width="128" height="128" fill="#F5F5F5"/>
<path fill-rule="evenodd" clip-rule="evenodd" d="M23.6665 66.0011L24.0389 66.0011H28.0389L33.1689 66.0011H36.9993H36.9994L36.9995 66.0011L37.6661 70.001L37.6663 70.0011H37.6663L37.674 70.0054C38.1037 71.8352 38.7799 73.7291 39.5944 75.6955C40.8675 78.769 42.7335 81.5616 45.0858 83.914C47.4382 86.2663 50.2308 88.1323 53.3043 89.4054C56.3778 90.6785 59.672 91.3338 62.9987 91.3338C66.3255 91.3338 69.6196 90.6785 72.6931 89.4054C75.7666 88.1323 78.5593 86.2664 80.9116 83.914C83.264 81.5616 85.13 78.769 86.4031 75.6955C87.2176 73.7291 87.8938 71.8352 88.3235 70.0054L88.3295 70.0011L88.3297 70.0011L88.3315 69.9997L88.7758 66.0011L88.7759 66.0011H88.8287H92.8287L97.9179 66.0011H101.918L106.998 66.0011H110.998C110.998 67.3384 110.942 68.6728 110.831 70.0011C110.418 74.9339 109.245 79.7815 107.344 84.3695C104.932 90.193 101.396 95.4844 96.9393 99.9415C92.4821 104.399 87.1908 107.934 81.3673 110.346C75.5438 112.758 69.3022 114 62.9989 114C56.6956 114 50.454 112.758 44.6305 110.346C38.807 107.934 33.5157 104.399 29.0586 99.9415C24.6014 95.4844 21.0659 90.193 18.6537 84.3695C16.7533 79.7815 15.5795 74.9339 15.167 70.0011C15.0559 68.6728 15 67.3384 15 66.0011H19H23.6665ZM92.4158 70.0011C91.9278 72.4778 91.0595 74.9063 90.0986 77.2262C88.6245 80.785 86.4638 84.0186 83.7401 86.7424C81.0163 89.4662 77.7827 91.6268 74.2239 93.1009C70.665 94.5751 66.8507 95.3338 62.9987 95.3338C59.1467 95.3338 55.3324 94.575 51.7736 93.1009C48.2148 91.6268 44.9812 89.4662 42.2574 86.7424C39.5336 84.0186 37.373 80.785 35.8989 77.2262C34.9379 74.9063 34.0697 72.4778 33.5817 70.0011L28.3331 70.0011C28.779 73.106 29.7096 76.2208 30.9715 79.2671C32.7136 83.473 35.2671 87.2945 38.4861 90.5135C41.7051 93.7325 45.5266 96.286 49.7325 98.0281C53.9383 99.7702 58.4461 100.667 62.9985 100.667C67.5509 100.667 72.0587 99.7702 76.2645 98.0281C80.4704 96.286 84.2919 93.7325 87.5109 90.5135C90.7299 87.2945 93.2834 83.473 95.0255 79.2671C96.2826 76.2322 97.1968 73.116 97.6324 70.0011L92.4158 70.0011ZM98.721 80.7979C100.152 77.3434 101.209 73.7062 101.667 70.0011L106.816 70.0011C106.413 74.4078 105.348 78.7365 103.649 82.8388C101.437 88.177 98.1965 93.0274 94.1108 97.113C90.0252 101.199 85.1748 104.44 79.8366 106.651C74.4984 108.862 68.7769 110 62.9989 110C57.2209 110 51.4994 108.862 46.1613 106.651C40.8231 104.44 35.9727 101.199 31.887 97.113C27.8013 93.0274 24.5604 88.177 22.3492 82.8388C20.65 78.7365 19.5845 74.4078 19.1822 70.0011H23.6665L24.2968 70.0011C24.7662 73.7062 25.8451 77.3434 27.276 80.7979C29.2191 85.489 32.0672 89.7515 35.6576 93.3419C39.2481 96.9324 43.5106 99.7805 48.2017 101.724C52.8929 103.667 57.9208 104.667 62.9985 104.667C68.0761 104.667 73.1041 103.667 77.7952 101.724C82.4864 99.7805 86.7489 96.9324 90.3393 93.3419C93.9298 89.7515 96.7779 85.489 98.721 80.7979Z" fill="#25A66E"/>
<path d="M17 16H27.6663V59.9989H17V16Z" stroke="#25A66E" stroke-width="4"/>
<rect x="78.332" y="35.9996" width="10.6663" height="23.9994" stroke="#25A66E" stroke-width="4"/>
<rect x="98.3311" y="30.6663" width="10.6663" height="29.3326" stroke="#25A66E" stroke-width="4"/>
<rect x="56.999" y="25.3331" width="11.9996" height="34.6658" stroke="#25A66E" stroke-width="4"/>
<rect x="37" y="43.9994" width="10.6663" height="15.9995" stroke="#25A66E" stroke-width="4"/>
</svg>
