<svg viewBox="0 0 16 16" fill="none" xmlns="http://www.w3.org/2000/svg">
  <circle cx="8" cy="8" r="8"/>
  <path d="M7.34766 9.13184V8.77051C7.34766 8.45801 7.41439 8.1862 7.54785 7.95508C7.68132 7.72396 7.92546 7.47819 8.28027 7.21777C8.62207 6.97363 8.84668 6.77507 8.9541 6.62207C9.06478 6.46908 9.12012 6.29818 9.12012 6.10938C9.12012 5.89779 9.04199 5.73665 8.88574 5.62598C8.72949 5.5153 8.51139 5.45996 8.23145 5.45996C7.74316 5.45996 7.18652 5.61947 6.56152 5.93848L6.0293 4.86914C6.75521 4.46224 7.52507 4.25879 8.33887 4.25879C9.00944 4.25879 9.54167 4.41992 9.93555 4.74219C10.3327 5.06445 10.5312 5.49414 10.5312 6.03125C10.5312 6.38932 10.4499 6.69857 10.2871 6.95898C10.1243 7.2194 9.8151 7.51237 9.35938 7.83789C9.04688 8.06901 8.84831 8.24479 8.76367 8.36523C8.68229 8.48568 8.6416 8.64355 8.6416 8.83887V9.13184H7.34766ZM7.19141 10.8018C7.19141 10.5283 7.26465 10.3216 7.41113 10.1816C7.55762 10.0417 7.77083 9.97168 8.05078 9.97168C8.32096 9.97168 8.5293 10.0433 8.67578 10.1865C8.82552 10.3298 8.90039 10.5348 8.90039 10.8018C8.90039 11.0589 8.82552 11.2624 8.67578 11.4121C8.52604 11.5586 8.31771 11.6318 8.05078 11.6318C7.77734 11.6318 7.56576 11.5602 7.41602 11.417C7.26628 11.2705 7.19141 11.0654 7.19141 10.8018Z"/>
</svg>
